<?xml version="1.0" encoding="UTF-8" standalone="no"?>
<!-- Created with Inkscape (http://www.inkscape.org/) -->

<svg
   xmlns:dc="http://purl.org/dc/elements/1.1/"
   xmlns:cc="http://creativecommons.org/ns#"
   xmlns:rdf="http://www.w3.org/1999/02/22-rdf-syntax-ns#"
   xmlns:svg="http://www.w3.org/2000/svg"
   xmlns="http://www.w3.org/2000/svg"
   xmlns:sodipodi="http://sodipodi.sourceforge.net/DTD/sodipodi-0.dtd"
   xmlns:inkscape="http://www.inkscape.org/namespaces/inkscape"
   id="svg4738"
   version="1.1"
   inkscape:version="0.91 r13725"
   width="410"
   height="200"
   viewBox="0 0 410 200"
   sodipodi:docname="bgGooglePlay.svg">
  <metadata
     id="metadata4744">
    <rdf:RDF>
      <cc:Work
         rdf:about="">
        <dc:format>image/svg+xml</dc:format>
        <dc:type
           rdf:resource="http://purl.org/dc/dcmitype/StillImage" />
        <dc:title></dc:title>
      </cc:Work>
    </rdf:RDF>
  </metadata>
  <defs
     id="defs4742">
    <filter
       y="-0.25"
       height="1.5"
       inkscape:menu-tooltip="Darkens the edge with an inner blur and adds a flexible glow"
       inkscape:menu="Shadows and Glows"
       inkscape:label="Dark And Glow"
       style="color-interpolation-filters:sRGB"
       id="filter4196">
      <feGaussianBlur
         stdDeviation="5"
         result="result6"
         id="feGaussianBlur4198" />
      <feComposite
         result="result8"
         in="SourceGraphic"
         operator="atop"
         in2="result6"
         id="feComposite4200" />
      <feComposite
         result="result9"
         operator="over"
         in2="SourceAlpha"
         in="result8"
         id="feComposite4202" />
      <feColorMatrix
         values="1 0 0 0 0 0 1 0 0 0 0 0 1 0 0 0 0 0 1 0 "
         result="result10"
         id="feColorMatrix4204" />
      <feBlend
         in="result10"
         mode="normal"
         in2="result6"
         id="feBlend4206" />
    </filter>
    <filter
       x="-0.25"
       width="1.5"
       y="-0.25"
       height="1.5"
       inkscape:menu="Non realistic 3D shaders"
       inkscape:menu-tooltip="Deep and dark metal shading"
       inkscape:label="Deep Metal"
       style="color-interpolation-filters:sRGB"
       id="filter5385">
      <feGaussianBlur
         result="result8"
         stdDeviation="5"
         in="SourceGraphic"
         id="feGaussianBlur5387" />
      <feComposite
         operator="xor"
         in2="SourceGraphic"
         result="result22"
         id="feComposite5389" />
      <feComposite
         k2="1"
         operator="arithmetic"
         result="result20"
         in2="result22"
         in="result22"
         id="feComposite5391" />
      <feComposite
         in2="result22"
         in="result20"
         operator="over"
         result="result6"
         id="feComposite5393" />
      <feOffset
         in="result6"
         result="result21"
         id="feOffset5395" />
      <feDisplacementMap
         in2="result20"
         result="result4"
         scale="100"
         yChannelSelector="A"
         xChannelSelector="A"
         in="result21"
         id="feDisplacementMap5397" />
      <feComposite
         in2="SourceGraphic"
         k1="1"
         operator="arithmetic"
         result="fbSourceGraphic"
         k3="0.5"
         in="result4"
         id="feComposite5399" />
      <feComposite
         in2="result4"
         result="result12"
         operator="in"
         in="fbSourceGraphic"
         id="feComposite5401" />
      <feComposite
         in2="SourceGraphic"
         operator="in"
         result="result18"
         id="feComposite5403" />
      <feComposite
         result="fbSourceGraphic"
         in2="SourceGraphic"
         operator="in"
         in="result18"
         id="feComposite5405" />
      <feColorMatrix
         result="fbSourceGraphicAlpha"
         in="fbSourceGraphic"
         values="0 0 0 -1 0 0 0 0 -1 0 0 0 0 -1 0 0 0 0 1 0"
         id="feColorMatrix5655" />
      <feGaussianBlur
         id="feGaussianBlur5657"
         result="result8"
         stdDeviation="5"
         in="fbSourceGraphic" />
      <feComposite
         id="feComposite5659"
         in2="result8"
         result="result19"
         operator="xor" />
      <feComposite
         id="feComposite5661"
         in2="result8"
         result="result17"
         operator="arithmetic"
         k2="1" />
      <feComposite
         id="feComposite5663"
         in2="result17"
         operator="xor"
         result="result6" />
      <feOffset
         id="feOffset5665"
         in="result6"
         result="result18" />
      <feDisplacementMap
         id="feDisplacementMap5667"
         in2="result17"
         result="result4"
         scale="100"
         yChannelSelector="A"
         xChannelSelector="A"
         in="result18" />
      <feComposite
         id="feComposite5669"
         in2="result4"
         k3="1"
         operator="arithmetic"
         result="result2"
         in="result4" />
      <feComposite
         id="feComposite5671"
         in2="result2"
         operator="over"
         in="result2"
         result="fbSourceGraphic" />
      <feComposite
         id="feComposite5673"
         in2="fbSourceGraphic"
         result="result15"
         operator="xor"
         in="fbSourceGraphic" />
      <feComposite
         id="feComposite5675"
         in2="result8"
         in="result15"
         operator="in"
         result="result16" />
    </filter>
  </defs>
  <sodipodi:namedview
     pagecolor="#ffffff"
     bordercolor="#666666"
     borderopacity="1"
     objecttolerance="10"
     gridtolerance="10"
     guidetolerance="10"
     inkscape:pageopacity="0"
     inkscape:pageshadow="2"
     inkscape:window-width="1920"
     inkscape:window-height="978"
     id="namedview4740"
     showgrid="false"
     inkscape:zoom="1.8101934"
     inkscape:cx="175.95663"
     inkscape:cy="134.13417"
     inkscape:window-x="0"
     inkscape:window-y="65"
     inkscape:window-maximized="1"
     inkscape:current-layer="layer5" />
  <g
     inkscape:groupmode="layer"
     id="layer1"
     inkscape:label="Layer 1">
    <path
       style="fill:#5a97a9;fill-opacity:1"
       d="M 0,100 0,9e-6 l 205,0 204.99999,0 0,99.999991 0,100 -38.66667,0 c -21.26666,0 -52.54166,0.59794 -52.3125,0.3739 0.22917,-0.22405 15.56979,-4.73321 20.24479,-7.15578 10.07968,-5.22327 12.29541,-6.59721 21.5,-13.33186 C 367.37445,175.05081 381.72015,166 380.40144,166 c -0.54026,0 2.22543,-3.50523 7.49568,-9.5 3.11915,-3.54795 7.13565,-12.98118 7.75548,-18.21466 1.01641,-8.58201 -0.25687,-13.55418 -4.7897,-18.70375 -2.22216,-2.5245 -4.42604,-4.35159 -4.89753,-4.0602 -1.14398,0.70703 -2.32751,-3.72929 -6.54188,-24.521387 -4.22573,-20.848235 -4.72428,-22.263265 -9.78135,-27.762415 -4.63026,-5.03502 -9.53772,-8.69505 -18.85124,-6.82013 -3.68177,0.741183 -38.19163,12.82922 -79.29091,28.136095 -9.9,3.68712 -19.57499,7.14067 -21.49999,7.67454 -4.39632,1.21927 -6.63987,3.20277 -9.35641,8.271907 -2.04839,3.82235 -2.12973,5.0605 -1.83154,27.87834 0.27491,21.03541 0.55277,24.52171 2.33384,29.28205 1.18495,3.16706 3.18508,6.26377 4.83229,7.4816 l 2.81051,2.0779 -2.64435,5.64005 c -3.39046,7.23144 -3.7923,19.92049 -0.77239,24.39006 L 247.23002,200 123.61501,200 0,200 Z M 295.5853,54.234698 c 0.95689,-0.64776 5.32426,-8.94474 19.72692,-37.476509 2.34367,-4.642824 3.65067,-8.412471 3.26512,-9.417218 -0.39895,-1.039635 -0.99782,-1.320489 -1.57819,-0.740123 -0.5144,0.514401 -5.7311,10.377149 -11.59267,21.917218 -5.86157,11.540069 -11.04752,21.406022 -11.52435,21.924352 -0.53931,0.58624 -4.17674,0.32185 -9.62455,-0.69957 -4.81667,-0.90309 -14.15759,-2.5437 -20.75759,-3.64581 -6.6,-1.10211 -17.39999,-2.925107 -23.99999,-4.051112 -6.6,-1.126005 -14.475,-2.462286 -17.5,-2.969514 -5.70249,-0.956185 -8.08938,-0.225401 -5.71097,1.748504 0.75558,0.627079 18.21215,4.021025 38.79237,7.542102 43.22366,7.39515 39.12466,6.80134 40.5039,5.86768 z M 47.06685,22.875096 c 0.77436,-1.446916 2.13722,-1.875087 5.96833,-1.875087 2.73065,0 4.96482,-0.45 4.96482,-1 0,-0.55 -1.125,-1 -2.5,-1 -3.0317,0 -3.02488,0.133866 -0.28089,-5.514104 1.69316,-3.485037 1.96552,-4.972691 1.14914,-6.276751 C 54.90516,4.87207 50.65016,4.511689 48.93402,6.579506 47.66218,8.111975 47.82399,8.197577 50.76962,7.550609 53.57526,6.934385 54,7.10577 54,8.854108 54,11.974134 47.87083,21.270845 46.63115,20.031165 46.06402,19.464029 44.2275,18.947808 42.55,18.884008 40.43993,18.803758 40.11635,18.617852 41.5,18.28077 c 3.30623,-0.805458 5.3659,-3.292237 5.27832,-6.372851 -0.074,-2.602035 -0.42732,-2.90791 -3.35907,-2.90791 -4.60932,0 -8.10699,3.963126 -5.66925,6.423691 0.4125,0.416363 0.75,1.728863 0.75,2.916667 0,1.705574 0.68331,2.225526 3.25,2.473 4.36307,0.420679 4.16117,2.186642 -0.25,2.186642 -3.86843,0 -4.80483,1.657182 -1.25,2.212179 3.40376,0.531412 5.70366,-0.257088 6.81685,-2.337092 z m -6.73102,-8.442304 c -0.83346,-2.171962 1.28243,-4.214515 2.79695,-2.7 1.28003,1.280033 0.48705,4.267217 -1.13278,4.267217 -0.58453,0 -1.3334,-0.705248 -1.66417,-1.567217 z m 24.72991,6.532033 c 2.68852,-1.438851 2.41547,-4.603408 -0.56574,-6.556773 -2.88958,-1.893323 -3.30107,-3.66947 -0.75,-3.237287 0.9625,0.163059 1.975,-0.146154 2.25,-0.687142 0.275,-0.540988 -0.70724,-1.123084 -2.18275,-1.293547 -3.54314,-0.409333 -5.58883,2.895503 -3.24384,5.240487 0.86319,0.863195 1.9873,1.569446 2.49802,1.569446 0.51071,0 0.92857,0.727484 0.92857,1.616631 0,1.124302 -0.60908,1.457354 -2,1.09362 -1.25577,-0.32839 -2,-0.03068 -2,0.800035 0,1.095693 1.00807,1.958781 2.81574,2.410767 0.17366,0.04342 1.18616,-0.386886 2.25,-0.956237 z M 6.63837,19.500009 c 0.78896,-2.055986 5.35445,-1.892076 6.91962,0.248428 2.63152,3.598812 2.58767,0.09461 -0.0907,-7.249044 C 11.94352,8.321492 10.35676,5.262489 9.94115,5.701609 8.95127,6.747488 4.00001,18.638452 4.00001,19.969877 c 0,1.577867 1.98847,1.22374 2.63836,-0.469868 z M 8,15.191139 c 0,-1.317148 2.93346,-4.798837 2.96819,-3.522917 0.0175,0.642516 0.30495,1.880016 0.6388,2.75 0.43513,1.133949 0.0105,1.581787 -1.5,1.581787 C 8.94814,16.000009 8,15.636017 8,15.191139 Z m 16,4.80887 c 0,-0.55 -0.675,-1 -1.5,-1 -1.08334,0 -1.5,-1.111111 -1.5,-4 0,-2.444444 0.4375,-3.902778 1.125,-3.75 0.61875,0.1375 1.33125,-0.3125 1.58333,-1 0.25208,-0.6875 -0.20602,-1.25 -1.01801,-1.25 -0.81199,0 -1.76424,-0.750248 -2.11612,-1.667218 C 18.63903,2.2898 16.76582,13.496672 18.58226,19.250009 19.16694,21.101911 24,21.770971 24,20.000009 Z m 5.19521,-3.75 c 0.21945,-3.420093 0.72476,-4.75 1.80479,-4.75 1.08003,0 1.58533,1.329907 1.80479,4.75 0.32587,5.07859 2.09166,6.580918 2.35073,2 0.40283,-7.122928 -0.86282,-9.704331 -4.34955,-8.871262 -1.18546,0.283238 -1.78588,-0.322606 -2,-2.018085 C 28.63769,6.028104 28.05,4.83932 27.5,4.718919 c -0.58584,-0.128246 -1.12029,3.197918 -1.29045,8.03109 -0.23804,6.761585 -0.0224,8.25 1.19521,8.25 1.06291,0 1.57238,-1.351605 1.79045,-4.75 z M 71,17.581796 c 0,-4.365016 0.85959,-6.581787 2.55219,-6.581787 0.88317,0 1.44187,1.588614 1.64301,4.671831 0.41844,6.413699 2.59901,6.881016 2.99738,0.642365 0.22196,-3.475991 0.72437,-4.814196 1.80742,-4.814196 1.08002,0 1.58533,1.329907 1.80479,4.75 0.16763,2.6125 0.75259,4.75 1.2999,4.75 0.57955,0 0.86987,-2.401242 0.69521,-5.75 L 83.5,9.500009 76.25,9.390647 69,9.281285 l 0,5.859362 c 0,3.239575 0.44711,5.859362 1,5.859362 0.55,0 1,-1.538196 1,-3.418213 z m 22.81127,0.731411 c 0.20779,-1.459856 -0.54016,-2.744678 -2.25,-3.86501 C 88.51482,12.452088 88.17708,10.55155 91,11.289758 c 1.29986,0.339922 2,0.03068 2,-0.883369 0,-1.820561 -4.39089,-1.845238 -5.89481,-0.03313 -1.46543,1.765732 -0.45785,4.380043 1.98719,5.156069 2.39358,0.759693 2.52729,3.659429 0.15762,3.418383 -2.7788,-0.282663 -3.4146,-0.02305 -2.71517,1.108655 0.35907,0.580997 2.07313,0.918497 3.80902,0.75 2.3656,-0.229623 3.23411,-0.854104 3.46742,-2.493159 z M 270.04876,192.97377 c -6.21109,-2.42568 -7.57674,-6.17091 -9.63728,-11.56636 -1.39384,-3.64971 -1.45744,-5.04741 -0.42542,-9.34933 0.66737,-2.78194 1.52074,-5.05808 1.89636,-5.05808 0.37562,0 0.50998,3.06109 0.29858,6.80243 -0.35219,6.23273 -0.15595,7.0739 2.3431,10.04385 4.46869,5.31074 9.78491,7.45165 19.75773,7.95668 17.257,0.87391 37.32327,-5.33475 55.73385,-17.24449 3.95752,-2.56011 26.62138,-12.50236 27.20874,-12.30657 1.36707,0.45569 -24.48321,19.45748 -35.49005,23.70373 -20.77552,8.01483 -49.12296,11.92435 -61.68561,7.01814 z m 19.68125,-20.36235 c -2.18042,-0.50783 -1.45502,-2.23962 -1.73002,-2.65484 -0.275,-0.41522 -1.625,-0.96403 -3,-1.21958 -4.11203,-0.76424 31.04228,-2.9277 41.78906,-2.17064 9.24034,0.65092 -6.94341,6.23613 -11.10156,7.00172 -10.52363,1.93759 -19.09535,1.86688 -22.83247,0.99648 z m 22.26998,-57.73762 c -5.775,-1.04474 -22.39462,-3.91256 -36.93249,-6.37292 -24.89093,-4.2125 -29.44311,-5.52527 -27.14132,-7.82706 0.46359,-0.46359 16.98234,1.87056 36.70835,5.18701 19.726,3.31645 37.11969,6.16699 38.65263,6.33454 2.69028,0.29404 3.17707,-0.45729 14.00301,-21.613037 6.16872,-12.054715 11.77675,-22.104635 12.46231,-22.333155 3.54183,-1.18061 1.51132,4.42328 -9.31039,25.695175 -13.53383,26.603027 -10.28703,24.213827 -28.4421,20.929447 z"
       id="path4750"
       inkscape:connector-curvature="0"
       sodipodi:nodetypes="ccccccsssssssscssssssssscssccccssssssssssssssssssssssssssssssssssssssssssssssssssssssssccssssssssssssssssssssssssssssscccsssssssssssssssssssssssscssssccsssssssss" />
    <path
       style="fill:#ffffff;fill-opacity:1;filter:url(#filter5385)"
       d="M 8.2691321,199.45659 C 8.6284121,198.85607 26.152292,176.75281 47.211092,150.33824 68.269892,123.92367 103.65237,79.52931 125.83883,51.6841 160.87807,7.707969 170.9467,-4.528737 167.49027,1.063885 c -0.60721,0.982485 -0.35239,1.145564 0.98694,0.631616 1.37171,-0.526373 1.56266,-0.38701 0.79479,0.580062 C 167.45391,4.565306 42.075652,162.07662 27.196912,180.76292 c -7.97667,10.01796 -14.90392,17.96672 -15.39388,17.66391 -0.48995,-0.30281 -1.6325,0.0507 -2.5389799,0.78553 -0.90649,0.73485 -1.3542,0.84475 -0.99492,0.24423 z m 22.1471199,-6.32481 c 2.87961,-3.62083 23.20144,-29.13357 45.15961,-56.69498 C 164.97336,24.227055 180.5508,4.65486 181.66805,3.13785 c 0.64253,-0.872438 1.46189,-1.292602 1.82079,-0.933699 0.3589,0.358904 -11.66328,16.108196 -26.71597,34.998428 -15.05269,18.890231 -39.90692,50.095881 -55.23162,69.345871 -15.324698,19.25 -37.985988,47.7125 -50.358398,63.25 -12.37242,15.5375 -22.90161,28.25 -23.39819,28.25 -0.49659,0 -0.67112,0.375 -0.38785,0.83333 0.28326,0.45834 -0.0995,0.83334 -0.8506,0.83334 -0.76226,0 0.9476,-2.90866 3.87004,-6.58334 z m 8.58356,6.60128 c 0,-0.51819 70.547978,-89.36911 131.536978,-165.662875 14.27966,-17.863048 26.27605,-32.925016 26.65865,-33.47104 0.38259,-0.546023 0.95782,-0.730574 1.27828,-0.410113 0.32046,0.320461 -1.94759,3.907429 -5.04011,7.971039 -5.49843,7.225002 -4.18852,6.106538 4.28155,-3.655779 2.31844,-2.67216 4.4102,-4.65538 4.64835,-4.407155 0.23815,0.248225 -5.65504,8.101318 -13.09596,17.451318 C 168.63338,43.47661 117.5756,107.56809 78.733872,156.29845 c -19.1796,24.0625 -35.05184,43.75 -35.27164,43.75 -0.93538,0 1.13623,-3.82079 4.33754,-8 3.33977,-4.35996 0.74963,-1.99462 -3.3065,3.01954 -2.23512,2.76304 -5.49346,5.53003 -5.49346,4.66507 z m 30.27795,-34.43461 c 9.54271,-11.9625 30.771448,-38.625 47.174958,-59.25 16.40351,-20.62499 30.50688,-38.28749 31.34081,-39.24999 0.83394,-0.9625 1.25535,-1.75 0.93646,-1.75 -0.31888,0 -21.61637,26.4375 -47.32775,58.74999 -25.711378,32.3125 -47.648658,59.7625 -48.749508,61 -1.10085,1.2375 -1.71441,2.25 -1.36346,2.25 0.35095,0 8.44577,-9.7875 17.98849,-21.75 z M 151.49981,62.04846 c 0.99549,-1.1 1.58498,-2 1.30998,-2 -0.275,0 -1.31449,0.9 -2.30998,2 -0.99549,1.1 -1.58498,2 -1.30998,2 0.275,0 1.31449,-0.9 2.30998,-2 z m 16.07338,-20.25 c 7.58089,-9.487505 15.33236,-19.162505 17.22549,-21.500005 1.89313,-2.3375 3.21011,-4.25 2.92662,-4.25 -0.28349,0 -6.71798,7.7625 -14.29887,17.25 -7.58089,9.487505 -15.33236,19.162505 -17.22549,21.500005 -1.89313,2.3375 -3.21011,4.25 -2.92662,4.25 0.28349,0 6.71798,-7.7625 14.29887,-17.25 z M 76.052052,173.69512 C 176.1675,48.14648 197.36903,21.28775 198.1685,18.994395 c 0.50504,-1.448757 2.20271,-3.583741 3.7726,-4.74441 1.56989,-1.160669 4.98405,-4.821092 7.58704,-8.134275 2.60298,-3.313182 5.1202,-5.784474 5.59382,-5.49176 0.47362,0.292713 -1.38511,3.231336 -4.13051,6.530272 -2.99612,3.600201 -4.99164,6.976743 -4.99164,8.446149 0,2.175195 0.43085,2.448084 3.86514,2.448084 4.63234,0 7.27455,-1.903948 13.0738,-9.420856 2.35001,-3.046042 5.57511,-6.187968 7.1669,-6.982057 1.59179,-0.794089 2.89416,-1.246473 2.89416,-1.005298 0,0.241175 -2.7,3.836166 -6,7.988868 -6.09806,7.673769 -7.24566,10.72736 -4.43665,11.805277 2.88599,1.10746 7.1567,-2.257008 14.40934,-11.351693 3.96245,-4.968833 7.41615,-9.034241 7.6749,-9.034241 0.25874,0 0.19233,0.45 -0.14759,1 -0.8735,1.413351 0.82703,1.243419 2.50177,-0.25 1.90777,-1.701208 0.85229,-0.227915 -6.85282,9.565512 -3.38192,4.298532 -6.14895,8.166287 -6.14895,8.595012 0,0.428726 0.93689,1.627379 2.08199,2.663674 2.04254,1.84848 2.15621,1.843518 6,-0.261933 l 3.91801,-2.146107 0,2.416921 c 0,1.87047 0.5315,2.416921 2.35078,2.416921 5.63387,0 8.46994,-2.142193 16.56508,-12.512263 6.93483,-8.883689 12.10778,-14.571077 9.67963,-10.642246 -0.95156,1.539655 0.65382,1.47503 2.37215,-0.09549 0.7522,-0.6875 -0.8453,1.585159 -3.55,5.050354 -11.5907,14.849715 -13.41764,17.475889 -13.41764,19.287508 0,2.219793 2.58239,2.51517 6.47668,0.740812 1.41393,-0.64423 6.87536,-6.71923 12.13652,-13.5 10.95284,-14.11642 13.64762,-16.24055 6.12589,-4.828673 -1.08753,1.65 0.29172,0.525 3.06501,-2.5 2.77329,-3.025 4.9458,-4.765593 4.8278,-3.867984 -0.29256,2.225527 -4.74768,7.969466 -12.84876,16.565807 -3.73073,3.958802 -6.769,8.008802 -6.75172,9 0.0173,0.991197 1.10209,2.580365 2.41068,3.531484 l 2.37925,1.729306 11.74845,-14.729306 c 6.46165,-8.101119 11.85098,-14.865943 11.97629,-15.032942 0.12532,-0.166999 1.29121,-0.37041 2.59088,-0.452024 1.29967,-0.08161 2.69364,-0.619979 3.09772,-1.196365 0.43507,-0.620599 0.74093,-0.345087 0.75,0.675584 0.008,0.947959 -6.05969,9.413803 -13.48469,18.812987 -7.425,9.399183 -13.5,17.455981 -13.5,17.903994 0,0.448013 0.64365,1.348754 1.43034,2.001642 1.18005,0.97936 3.79169,-1.755279 14.92467,-15.627551 13.22457,-16.478493 22.64499,-26.013706 22.64499,-22.92094 0,0.82128 -1.2375,2.249822 -2.75,3.174539 -1.5125,0.924717 -7.925,8.399411 -14.25,16.610431 -17.14827,22.261621 -20.50618,25.821341 -24.35748,25.821341 -1.75863,0 -4.13852,-0.65912 -5.28865,-1.4647 -1.15013,-0.80558 -2.35468,-1.20116 -2.67678,-0.87906 -0.94861,0.94861 -11.67709,-0.70626 -11.67709,-1.8012 0,-0.55057 2.475,-4.164196 5.5,-8.030277 3.025,-3.866081 5.5,-7.455592 5.5,-7.976692 0,-1.854159 -2.88837,0.739272 -7.96529,7.151926 -2.83034,3.575 -5.85147,7.040163 -6.71363,7.700353 -1.59971,1.22498 -7.05121,0.73483 -8.72276,-0.78427 -0.51177,-0.46509 1.54228,-3.844285 4.75,-7.814417 3.10842,-3.847235 5.65168,-7.538724 5.65168,-8.203307 0,-1.717351 -3.34001,1.497727 -9.19561,8.851641 -4.44594,5.583558 -5.35971,6.250003 -8.5695,6.250003 -1.97609,0 -4.97484,-0.437921 -6.66389,-0.973155 -1.68905,-0.535233 -5.2085,-1.237806 -7.821,-1.561273 -2.6125,-0.323466 -4.75,-1.003752 -4.75,-1.511746 0,-0.507993 2.475,-4.126925 5.5,-8.04207 5.11567,-6.621018 6.85601,-9.867854 4.51317,-8.419896 -2.02724,1.252903 -17.01317,19.791824 -17.01317,21.0468 0,1.67784 4.60795,3.15838 13.86635,4.45527 4.05149,0.56751 7.87649,1.35618 8.5,1.75258 0.62351,0.3964 3.83365,1.04832 7.13365,1.4487 5.91238,0.71735 12.25851,1.63955 25.97826,3.7751 3.83804,0.59741 7.39506,1.50301 7.9045,2.01244 0.99794,0.99795 -2.30969,5.70195 -16.10873,22.90932 -4.58352,5.71565 -8.65775,10.90145 -9.05385,11.52401 -0.3961,0.62256 -1.99672,1.94458 -3.55694,2.93783 -6.44657,4.10391 -2.05957,2.82365 28.56639,-8.33651 6.94473,-2.53067 11.47095,-4.69287 11.09549,-5.30036 -0.36386,-0.58874 -0.14359,-0.72289 0.5168,-0.31474 0.63302,0.39122 10.65047,-2.68925 22.261,-6.84549 11.61053,-4.15625 21.31369,-7.55681 21.56259,-7.55681 0.24889,0 0.17759,-0.44485 -0.15843,-0.98855 -0.33607,-0.54376 0.0189,-0.74685 0.78893,-0.45136 0.76993,0.29545 4.28081,-0.54264 7.80194,-1.86243 8.99915,-3.37306 12.84741,-3.90273 18.90937,-2.60267 3.68202,0.78965 6.53004,2.25501 9.38895,4.8308 2.25705,2.03352 4.82849,3.53621 5.7143,3.33929 0.88581,-0.19691 8.7458,-9.30342 17.46664,-20.23668 8.72084,-10.933256 16.20199,-19.664867 16.62476,-19.403577 0.42278,0.26129 -6.4413,9.45901 -15.2535,20.439377 -8.8122,10.98037 -16.28381,20.64612 -16.60359,21.47944 -0.4989,1.30011 -0.773,1.2626 -1.93134,-0.26425 -1.63351,-2.15318 -1.83724,-0.9396 -0.31863,1.89795 0.6022,1.12523 2.62588,9.47489 4.49706,18.55482 4.20837,20.42119 6.6289,28.37857 10.43806,34.31462 1.62909,2.53873 3.2387,6.63463 3.57689,9.102 0.80481,5.87177 -1.79505,18.31905 -5.33731,25.55329 -2.66824,5.44925 -4.37619,7.11449 -15.96916,15.56976 -2.09025,1.52452 -7.40045,5.44063 -11.80045,8.70247 -8.90961,6.60495 -17.67449,11.70388 -27.66761,16.09551 l -6.66762,2.93018 -37.62839,0 -37.62839,0 -2.44423,-5.25 c -2.99586,-6.43487 -3.11235,-11.88778 -0.42441,-19.86679 l 2.03934,-6.05371 -3.49939,-3.87341 c -5.25415,-5.81571 -6.32643,-11.28646 -7.08156,-36.12985 -0.62503,-20.56341 -0.55219,-21.91471 1.42174,-26.37712 2.41046,-5.44924 2.48007,-5.81408 0.92601,-4.85362 -0.72104,0.44563 -0.88282,0.27393 -0.4309,-0.4573 0.39798,-0.64395 1.09152,-0.94343 1.5412,-0.66552 0.83612,0.51676 2.82949,-1.35231 2.92987,-2.74716 0.0307,-0.42597 1.62222,-2.67597 3.53681,-5 9.77372,-11.86386 26.57301,-33.31262 26.57512,-33.9302 0.003,-0.98658 -6.67089,-2.13466 -8.44716,-1.45304 -0.80554,0.30912 -12.87364,14.87106 -26.81799,32.35988 -58.20508,73.00002 -76.77853,96.51059 -79.81122,101.02631 -3.56216,5.30411 -10.87448,13.27153 -12.18032,13.27153 -1.00056,0 1.55601,-3.48078 14.32241,-19.5 16.11064,-20.21557 55.38155,-69.52836 78.30731,-98.3311 11.96492,-15.03211 21.97672,-27.91047 22.24845,-28.61858 0.55854,-1.45554 -2.49228,-2.51602 -7.29756,-2.53666 -3.32502,-0.0143 -9.32231,7.27637 -102.14601,124.17462 -10.22645,12.87877 -18.43471,22.29341 -20.20803,23.17806 -2.34383,1.16926 -2.82294,1.20053 -2.2269,0.14538 0.41769,-0.73942 9.30463,-12.06955 19.74876,-25.17806 49.80896,-62.5156 93.25768,-117.11007 95.26356,-119.70119 2.78043,-3.59166 2.16487,-4.63246 -2.73976,-4.63246 l -3.86883,0 -60.15091,75.49999 c -51.92239,65.17177 -63.66883,79.63796 -60.49339,74.5 0.33992,-0.55 0.17898,-1 -0.35765,-1 -0.53663,0 -1.17658,0.5625 -1.42211,1.25 -0.24554,0.6875 -0.69947,1.02106 -1.00875,0.74125 -0.30927,-0.27981 19.70562,-25.92981 44.47755,-57 68.29696,-85.66144 74.87573,-94.07743 74.28605,-95.03155 -0.95992,-1.55318 -7.67687,-2.31477 -9.63425,-1.09237 -1.48231,0.92572 -1.84084,0.85582 -1.84084,-0.35885 0,-0.82966 -0.84375,-1.50847 -1.875,-1.50847 -1.03125,0 -3.17438,-0.25988 -4.76251,-0.57751 -2.60407,-0.52081 -3.38726,0.0436 -7.97858,5.75 -2.80008,3.48013 -17.44408,21.85251 -32.54222,40.82751 -69.5861,87.45426 -86.860268,108.99999 -87.390128,108.99999 -0.31328,0 -0.29148,-0.45 0.0484,-1 0.87612,-1.4176 -0.83992,-1.24201 -2.44331,0.25 -1.9437,1.80868 16.159428,-21.04929 94.840008,-119.74999 16.22228,-20.35 30.1066,-38.22094 30.85405,-39.7132 2.44043,-4.872215 -1.51643,-8.878277 -5.16524,-5.229468 -0.85653,0.856535 -17.87618,22.067158 -37.82143,47.134718 -77.219648,97.05108 -93.906858,117.82092 -94.956098,118.18767 -0.5975,0.20885 -0.79593,-0.0902 -0.44094,-0.66459 0.35498,-0.57437 0.2696,-1.19525 -0.18974,-1.37973 -0.45934,-0.18448 29.031028,-37.83253 65.534148,-83.66234 39.21701,-49.23709 66.56649,-84.4205 66.85127,-85.999992 0.62394,-3.460628 -2.41287,-7.551538 -4.89787,-6.597955 -0.96413,0.369972 -7.00522,7.254422 -13.42465,15.29878 -6.41943,8.044357 -38.18393,47.908427 -70.58778,88.586807 -32.403858,40.6784 -59.486258,74.0444 -60.183128,74.14668 -0.69686,0.10227 8.11547,-11.58005 19.58295,-25.96072 z M 305.49981,192.1602 c 9.44917,-2.44347 16.47035,-5.0584 24.5973,-9.16087 7.46573,-3.76869 16.0815,-9.25646 17.81849,-11.34941 2.41747,-2.91288 -0.75392,-1.78592 -7.09805,2.5223 -15.65882,10.6337 -37.02862,17.88079 -52.69596,17.87065 -9.78654,-0.006 -14.4172,-1.03534 -19.14746,-4.25488 -5.73209,-3.9014 -7.26992,-6.8638 -7.17137,-13.81455 0.0684,-4.82187 -0.18001,-5.94793 -1.1074,-5.02054 -0.67742,0.67742 -1.19555,3.95912 -1.19555,7.57222 0,4.92121 0.48035,7.02109 2.10453,9.2 6.69939,8.98755 24.13832,11.5441 43.89547,6.43508 z m -6.12303,-2.61826 c 15.01204,-2.61788 33.84776,-10.82649 43.66663,-19.02992 2.78031,-2.32288 4.81681,-3.326 5.85899,-2.88595 3.29544,1.39146 17.14315,1.6695 21.55992,0.43288 5.52356,-1.5465 11.9406,-6.92017 14.68291,-12.29555 3.43622,-6.73555 3.40933,-13.44779 -0.11902,-29.71495 -1.72979,-7.975 -5.12815,-23.91593 -7.55193,-35.42429 -4.85177,-23.03675 -6.1885,-25.91489 -13.89305,-29.91319 -6.71997,-3.48735 -12.1275,-3.33731 -22.17661,0.61531 -4.89765,1.9264 -16.55481,6.08146 -25.90481,9.23347 -9.35,3.15202 -25.55,9.00773 -36,13.01271 -10.45,4.00498 -22.12994,8.23939 -25.95542,9.4098 -8.20861,2.51144 -9.92292,3.87155 -12.11524,9.61205 -1.39963,3.66486 -1.58443,7.75072 -1.24957,27.62753 0.35926,21.32541 0.57934,23.73701 2.56531,28.11038 2.79523,6.15547 7.12762,8.22349 15.41346,7.35745 l 5.66448,-0.59206 -0.16151,7.88517 c -0.14636,7.14527 0.0731,8.13712 2.33849,10.57043 6.52634,7.00999 16.87392,8.86663 33.37697,5.98873 z m -18.19273,-3.50436 c -8.96545,-1.88478 -13.69185,-7.06485 -13.47353,-14.76679 0.17625,-6.21799 -2.14262,-5.98723 42.0017,-4.17978 23.42831,0.95926 27.28759,1.36744 27.28759,2.88609 0,1.04184 -13.58743,8.46126 -20,10.921 -12.54106,4.81053 -27.30374,6.92894 -35.81576,5.13948 z m 27.31576,-14.14946 4,-1.21206 -4.5,-0.73968 c -7.92452,-1.30258 -23.22263,-1.0592 -22.75822,0.36207 1.1716,3.5856 13.81868,4.45001 23.25822,1.58967 z M 285.0669,111.57907 c -28.90528,-5.00659 -36.70155,-6.67781 -37.73306,-8.08848 -1.5348,-2.09896 -0.13467,-4.44213 2.65433,-4.44213 0.95891,0 17.53987,2.69999 36.84657,5.99999 19.3067,3.3 35.90722,6 36.89004,6 1.31536,0 4.62936,-5.5155 12.55754,-20.89959 5.92383,-11.49478 11.37661,-21.40254 12.1173,-22.01725 1.91804,-1.59184 4.60571,-0.25441 4.56946,2.27384 -0.0169,1.17865 -5.3044,12.26801 -11.75,24.64301 l -11.71927,22.49999 -4,0.17053 c -2.2,0.0938 -20.39481,-2.66917 -40.43291,-6.13991 z m 43.80179,4.12737 c 0.61257,-0.7381 0.81767,-1.6381 0.45578,-2 -0.3619,-0.36189 -0.10644,-0.65799 0.56769,-0.65799 0.67413,0 0.94757,-0.45 0.60765,-1 -0.33992,-0.55 -0.15062,-1 0.42066,-1 1.4816,0 5.2923,-7.8464 4.46265,-9.1888 -0.38078,-0.61612 -0.25756,-0.85151 0.27383,-0.5231 0.92374,0.5709 13.18155,-22.86232 12.52627,-23.94644 -0.17412,-0.28808 0.45713,-1.08954 1.40278,-1.78102 0.94565,-0.69147 1.39905,-1.77549 1.00757,-2.40893 -0.39149,-0.63344 -0.23524,-1.1517 0.34722,-1.1517 0.58246,0 1.05902,-0.675 1.05902,-1.5 0,-0.83334 -0.88889,-1.5 -2,-1.5 -1.79035,0 -2.46754,1.03891 -2.11842,3.25 0.0651,0.4125 -0.40658,0.75 -1.04825,0.75 -0.64166,0 -0.88809,0.27857 -0.54762,0.61904 0.34048,0.34048 -0.0387,1.27676 -0.84252,2.08062 -0.80386,0.80387 -1.20588,1.8753 -0.89336,2.38096 0.31251,0.50566 0.0973,0.91938 -0.47824,0.91938 -1.48735,0 -8.27989,13.85394 -7.45051,15.19591 0.37837,0.61221 0.2476,0.84096 -0.2906,0.50833 -0.90403,-0.55872 -9.06244,14.7841 -8.64439,16.25675 0.10235,0.36054 -1.66527,0.76476 -3.92804,0.89828 -2.26276,0.13351 -4.484,0.47135 -4.93608,0.75075 -0.45209,0.2794 -0.82197,-0.0196 -0.82197,-0.66451 0,-0.73398 -1.12205,-1.00784 -3,-0.73221 -1.65,0.24217 -3,0.009 -3,-0.51735 0,-0.53713 -1.54673,-0.70665 -3.52241,-0.38604 -2.37978,0.38619 -3.30687,0.22286 -2.85795,-0.5035 0.43909,-0.71046 -0.38334,-0.92133 -2.42478,-0.62171 -1.85713,0.27257 -2.84887,0.0645 -2.48657,-0.52173 0.37353,-0.60439 -0.79564,-0.74821 -3.07522,-0.37829 -2.47938,0.40235 -3.46317,0.24943 -3.019,-0.46926 0.43657,-0.70639 -0.5681,-0.92286 -2.97759,-0.64157 -2.00006,0.2335 -3.63648,0.0138 -3.63648,-0.48816 0,-0.50198 -1.32623,-0.71805 -2.94719,-0.48014 -1.71577,0.25182 -2.70099,0.0342 -2.35795,-0.52085 0.34651,-0.56067 -0.70508,-0.76344 -2.55281,-0.49225 -1.72813,0.25363 -3.14205,0.0302 -3.14205,-0.4965 0,-0.53713 -1.54673,-0.70665 -3.52241,-0.38604 -2.42006,0.39273 -3.31026,0.22835 -2.84452,-0.52523 0.46804,-0.7573 -0.46062,-0.91208 -3,-0.5 -2.53938,0.41209 -3.46804,0.25731 -3,-0.5 0.46804,-0.7573 -0.46062,-0.91208 -3,-0.5 -2.49732,0.40526 -3.4646,0.25174 -3.01343,-0.47827 0.43909,-0.71046 -0.38334,-0.92133 -2.42478,-0.62171 -1.69908,0.24937 -2.84011,0.0503 -2.53563,-0.44234 0.30448,-0.49267 -0.73179,-0.74874 -2.30282,-0.56906 -3.07376,0.35155 -4.15158,3.42878 -1.11717,3.18959 0.95658,-0.0754 1.45766,0.31851 1.11352,0.87534 -0.39392,0.63738 0.69544,0.8582 2.94061,0.59609 2.01077,-0.23475 3.31931,-0.0167 3,0.5 -0.31931,0.51665 0.98924,0.73475 3,0.5 2.03482,-0.23755 3.32074,-0.019 2.99444,0.50901 -0.32408,0.52436 0.76679,0.72888 2.51733,0.47195 1.84923,-0.27141 2.84829,-0.0635 2.48896,0.51786 -0.37122,0.60065 0.98451,0.75869 3.55304,0.41418 2.79607,-0.37503 3.93904,-0.21037 3.49761,0.50387 -0.44017,0.71221 0.55322,0.86476 3.02218,0.46411 2.49732,-0.40526 3.4646,-0.25174 3.01343,0.47827 -0.4401,0.7121 0.39647,0.9194 2.47759,0.61396 1.72813,-0.25363 3.14205,-0.038 3.14205,0.47915 0,0.51717 1.32623,0.74566 2.94719,0.50775 1.69733,-0.24911 2.69966,-0.032 2.36352,0.51184 -0.34109,0.5519 0.89855,0.77136 2.98266,0.52805 2.01077,-0.23475 3.31931,-0.0167 3,0.5 -0.31931,0.51665 0.98924,0.73475 3,0.5 2.09092,-0.2441 3.32418,-0.0245 2.98101,0.53073 -0.35176,0.56916 0.8823,0.70892 3.09255,0.35025 2.49732,-0.40526 3.4646,-0.25174 3.01343,0.47827 -0.4401,0.7121 0.39647,0.9194 2.47759,0.61396 1.72813,-0.25363 3.14205,-0.0302 3.14205,0.4965 0,0.53713 1.54673,0.70665 3.52241,0.38604 2.08935,-0.33906 3.28586,-0.18887 2.94098,0.36915 -0.91404,1.47896 5.16088,1.09842 6.40549,-0.40124 z M 213.89526,24.396959 c 4.92609,-6.381023 6.03072,-9.180509 2.46259,-6.241005 -2.39046,1.969319 -9.35804,10.890804 -9.35804,11.982299 0,2.209838 2.11984,0.444815 6.89545,-5.741294 z M 101.73314,198.92436 c 0.67834,-0.68342 1.48524,-0.99067 1.79313,-0.68278 0.30789,0.30789 -0.24711,0.86705 -1.23333,1.24258 -1.4252,0.54268 -1.54006,0.42782 -0.5598,-0.5598 z m 121.82199,-3.62591 c 1.0714,-7.50754 5.71239,-18.41433 11.55998,-27.16712 6.56551,-9.82738 7.84835,-8.02588 1.5412,2.16432 -4.78535,7.73151 -8.29399,17.25162 -9.21478,25.0028 -0.46273,3.89524 -0.92416,4.75 -2.56427,4.75 -1.81443,0 -1.9371,-0.44071 -1.32213,-4.75 z m 147.99468,3.90894 c 0.5225,-0.46259 4.55,-3.47837 8.95,-6.70174 4.4,-3.22337 12.8375,-10.72657 18.75,-16.67376 l 10.75,-10.81309 0,4.28828 c 0,4.02979 -0.46717,4.74544 -7.75,11.87213 -4.2625,4.17111 -10.98848,10.12305 -14.94662,13.22654 -6.44861,5.05621 -7.69067,5.6427 -11.95,5.6427 -2.65643,0 -4.33429,-0.37103 -3.80338,-0.84106 z M 1.9998121,191.98943 c 0,-0.58513 -0.55934,-0.71956 -1.25000002,-0.30041 -1.81933998,1.10412 0.25039002,-1.54278 50.54537992,-64.64057 25.20815,-31.62499 58.280988,-73.16939 73.495188,-92.320869 15.2142,-19.15148 27.82907,-34.320198 28.03305,-33.708262 0.26801,0.804016 0.75994,0.789712 1.77363,-0.05157 0.77151,-0.6403 1.40275,-0.944601 1.40275,-0.676223 0,0.268377 -18.24929,23.385978 -40.55398,51.372444 -22.304678,27.98647 -56.772518,71.24698 -76.595178,96.13448 -19.82267,24.8875 -36.2233799,45.25 -36.4460299,45.25 -0.22264,0 -0.40481,-0.47656 -0.40481,-1.05902 z m -1.62057002,-17.3204 c 0.12614,-0.85948 0.50861,-1.84195 0.84993002,-2.18327 0.34131,-0.34131 0.51736,0.0826 0.39122,0.94211 -0.12615,0.85948 -0.50862,1.84195 -0.84993002,2.18327 -0.34132,0.34131 -0.51737,-0.0826 -0.39122,-0.94211 z m 0.42057,-17.82058 c 0.66000002,-0.66 1.19311002,-1.8975 1.18469002,-2.75 -0.0135,-1.3658 -0.13052,-1.37174 -0.98469002,-0.05 -0.53315,0.825 -0.97626,1.14101 -0.98469,0.70225 -0.008,-0.43877 11.35789992,-15.06377 25.25849992,-32.5 13.90059,-17.43624 40.93789,-51.37539 60.0829,-75.42036 C 106.82018,19.873278 121.28761,2.552499 123.09214,1.652281 c 2.31601,-1.155379 2.7681,-1.180374 2.1671,-0.119817 C 123.76005,4.17802 0.84213208,158.04845 0.22795208,158.04845 c -0.34548,0 -0.0881,-0.54 0.57186,-1.2 z m 236.48600792,-9.3 c 0.008,-2.75 0.20172,-3.75631 0.43157,-2.23625 0.22986,1.52006 0.22371,3.77006 -0.0136,5 -0.23736,1.22994 -0.42542,-0.0137 -0.41792,-2.76375 z M 0.03308208,139.35747 c -0.0183,-0.65504 0.41673,-1.4691 0.96673,-1.80902 0.55000002,-0.33992 1.00000002,-1.06803 1.00000002,-1.61803 0,-0.55 -0.5625,-0.65355 -1.25000002,-0.2301 -1.45571,0.89662 -2.10469998,1.72341 49.02400992,-62.45518 21.60297,-27.11683 39.05501,-49.664321 38.78232,-50.105545 -0.27269,-0.441225 0.57581,-0.597374 1.88557,-0.346999 1.76173,0.336777 2.83092,-0.230887 4.10911,-2.181645 1.66305,-2.538132 1.64763,-2.722149 -0.41163,-4.914136 -1.17666,-1.252494 -2.13938,-2.635612 -2.13938,-3.073595 0,-0.437983 0.7875,0.160674 1.75,1.330349 1.74084,2.115546 1.7806,2.086941 7.592998,-5.462888 3.21364,-4.174263 6.09724,-7.335321 6.40799,-7.024573 0.31074,0.310747 1.17977,0.05477 1.93117,-0.56883 3.94042,-3.270259 0.8458,1.261485 -11.029238,16.151177 -7.23763,9.075 -31.44151,39.450005 -53.78641,67.500005 C -2.7403979,144.31013 0.07527208,140.86794 0.03308208,139.35747 Z M 212.00222,135.79845 c 0.001,-0.6875 5.22047,-7.775 11.5981,-15.75 6.37763,-7.975 12.47175,-15.625 13.54248,-17 1.92984,-2.47822 1.92989,-2.46516 0.006,1.5 -1.06733,2.2 -6.03753,9.11849 -11.04489,15.37442 -5.00736,6.25593 -9.10429,11.63343 -9.10429,11.95 0,0.85864 1.01922,-0.3389 10.25582,-12.05018 4.65263,-5.89917 8.74842,-10.43667 9.10175,-10.08333 0.97301,0.973 0.76867,3.34392 -0.26364,3.05909 -0.86979,-0.23999 -13.15405,14.6253 -15.11716,18.29341 -0.88346,1.65075 -6.91567,5.95659 -8.3448,5.95659 -0.34759,0 -0.63089,-0.5625 -0.62956,-1.25 z M 1.7912321,115.50654 c -0.31638,-0.31639 13.6693899,-18.43638 31.0794999,-40.26666 41.79174,-52.402073 41.11711,-51.522049 41.20803,-53.75366 0.0434,-1.065771 0.30592,-1.375265 0.58333,-0.687765 0.70274,1.741573 3.06385,1.56179 4.11315,-0.313188 0.78021,-1.394172 1.02886,-1.373417 2.29969,0.191958 0.89952,1.108013 0.96465,1.478657 0.17664,1.005256 -0.68654,-0.41244 -2.08668,-0.161322 -3.11143,0.558041 C 77.115402,22.959885 59.964172,44.02346 40.026312,69.04846 -1.2430879,120.84773 2.5380721,116.25337 1.7912321,115.50654 Z M 406.23029,106.49733 c -3.0081,-2.10696 -12.10897,-5.16082 -17.94229,-6.02068 -4.28754,-0.63199 -6.22748,-1.72667 -6.27288,-3.5397 -0.0244,-0.97531 16.45023,1.93003 22.22544,3.9195 4.40946,1.51899 5.31038,2.24641 5.57567,4.50187 0.36209,3.07835 -0.44923,3.33605 -3.58594,1.13901 z M -1.8791538e-4,101.56968 c 0,-1.48249 14.46546991538,-20.77579 23.82097991538,-31.77122 0.81895,-0.9625 1.24249,-1.75 0.9412,-1.75 -0.30129,0 -4.93459,5.5125 -10.29623,12.25 C 4.8453421,92.3876 -1.8791538e-4,97.79215 -1.8791538e-4,96.43332 c 0,-0.97058 2.09735001538,-3.67144 31.36071991538,-40.38486 l 25.90495,-32.500005 -4.38283,-0.599806 -4.38284,-0.599807 5.08333,-0.150193 c 2.79584,-0.08261 5.362,0.128466 5.70258,0.46905 0.49578,0.495776 -9.31974,13.481002 -17.10656,22.630761 -0.81913,0.9625 -1.24281,1.75 -0.94153,1.75 0.30129,0 4.8824,-5.4 10.18024,-12.000005 5.29784,-6.6 10.14082,-12 10.76218,-12 0.70187,0 0.56489,0.662781 -0.36168,1.75 -0.82028,0.9625 -13.80459,17.275005 -28.85402,36.250005 C 4.3521921,97.12395 -1.8791538e-4,102.47404 -1.8791538e-4,101.56968 Z M 34.075722,56.88351 c 3.95667,-5.01593 6.70979,-8.82064 6.11804,-8.45492 -0.59175,0.36572 -4.31318,4.76889 -8.26986,9.78481 -3.95667,5.01593 -6.70979,8.82064 -6.11804,8.45492 0.59175,-0.36572 4.31319,-4.76888 8.26986,-9.78481 z M 381.07876,93.46512 c 0.048,-1.16494 0.28494,-1.4019 0.60416,-0.60416 0.28887,0.72187 0.25335,1.58437 -0.0789,1.91666 -0.33229,0.33229 -0.56864,-0.25833 -0.52522,-1.3125 z M 251.99981,89.13428 c 0,-1.74443 26.75928,-33.61543 28.5,-33.94424 1.88096,-0.35531 1.86801,-0.2666 -0.21765,1.49031 -4.1681,3.51112 -25.10548,30.85938 -24.10081,31.4803 0.5513,0.34072 -0.16402,0.84246 -1.58959,1.11498 -1.42557,0.27252 -2.59195,0.20891 -2.59195,-0.14135 z m 127.00616,-4.61332 c -0.008,-2.52857 0.71728,-3.56698 15.33992,-21.9725 12.24272,-15.40991 15.65392,-19.25847 15.65392,-17.66097 0,0.50431 -6.38439,8.95934 -14.18754,18.78895 -7.80315,9.82961 -14.77538,18.99702 -15.49384,20.37202 -1.1582,2.21657 -1.307,2.27014 -1.31246,0.4725 z m -99.89704,-13.0598 c 5.43998,-6.78865 9.89088,-13.00379 9.89088,-13.81143 0,-0.80763 -1.0125,-1.66143 -2.25,-1.89732 -1.68343,-0.32089 -1.62048,-0.36116 0.25,-0.15991 1.375,0.14794 3.48711,0.58189 4.69358,0.96434 2.21649,0.70264 5.04812,-1.42606 8.07064,-6.06717 0.69532,-1.06767 0.55489,-0.44706 -0.31206,1.37912 -0.86694,1.82619 -3.09789,4.21812 -4.95766,5.31541 -3.01091,1.77648 -15.29795,16.01054 -19.86239,23.0098 -0.94889,1.45505 -2.55519,2.86258 -3.56956,3.12785 -1.09881,0.28734 2.15377,-4.50697 8.04657,-11.86069 z M 0.33314208,79.59245 c 0,-0.80081 0.38235,-1.21972 0.84965002,-0.93091 0.4673,0.28881 0.59075,0.94402 0.27432,1.45601 -0.80863002,1.30839 -1.12397002,1.16106 -1.12397002,-0.5251 z M 394.62694,79.79846 c 2.59264,-4.3491 12.79629,-16.60635 13.47494,-16.18692 0.92165,0.56961 -11.99448,17.43692 -13.35231,17.43692 -0.47729,0 -0.53247,-0.5625 -0.12263,-1.25 z m -16.14238,-0.77467 c -0.40754,-0.65942 -0.27794,-1.48613 0.28801,-1.83714 0.56594,-0.35101 7.82359,-9.13151 16.12811,-19.51224 8.30452,-10.38072 15.09913,-18.587118 15.09913,-18.236431 0,1.469881 -3.20458,5.923121 -15.88033,22.068091 -16.11427,20.52457 -14.73303,18.977 -15.63492,17.51772 z M 1.7713421,77.48665 c -0.33518,-0.33518 0.22861,-1.58339 1.25288,-2.77381 1.02426,-1.19041 9.9911599,-12.40188 19.9264399,-24.91438 9.93527,-12.512505 18.58051,-22.750005 19.21163,-22.750005 0.72862,0 0.59955,0.638805 -0.3536,1.75 -0.8256,0.9625 -9.50906,11.875005 -19.29658,24.250005 C 2.0956521,78.86232 2.5783121,78.29362 1.7713421,77.48665 Z M 292.12489,74.54846 c 0.86461,-1.1 14.06885,-17.75 29.34274,-37.000005 25.70658,-32.398517 31.93,-39.993335 30.11403,-36.75 -0.38494,0.6875 -0.31333,1.25 0.15913,1.25 0.47246,0 1.46504,-0.5625 2.20572,-1.25 3.15389,-2.92741 -1.46188,3.052953 -28.07894,36.380106 C 310.5403,56.3698 297.99981,72.51649 297.99981,73.06009 c 0,0.5436 -1.035,0.98837 -2.3,0.98837 -1.265,0 -2.94056,0.5625 -3.72347,1.25 -0.93107,0.81761 -0.87968,0.55817 0.14855,-0.75 z m 20.48722,-7.58628 c 24.04757,-30.564268 52.72973,-65.905032 53.14816,-65.486602 0.30554,0.305539 1.23261,-0.0031 2.06015,-0.685799 3.72609,-3.074028 -0.81054,2.980071 -24.45811,32.639195 -13.82562,17.340306 -24.62562,31.737916 -24,31.994706 0.62563,0.25678 0.0954,0.50241 -1.17824,0.54583 -1.27366,0.0434 -3.29866,0.60262 -4.5,1.24267 -1.83904,0.97979 -2.00846,0.94028 -1.07196,-0.25 z m 21.82883,-7.33957 c 1.06762,-0.86578 2.86762,-1.53547 4,-1.4882 1.65212,0.069 1.53106,0.2453 -0.61279,0.89256 -1.46941,0.44364 -3.26941,1.11333 -4,1.48821 -0.73059,0.37487 -0.45483,-0.0268 0.61279,-0.89257 z M 1.6157121,58.63441 c 0.50484,-1.3347 0.36986,-1.69519 -0.44596,-1.19098 -0.64347002,0.39768 -1.16994001538,0.4685 -1.16994001538,0.15736 0,-0.31113 6.04312001538,-8.16957 13.42915991538,-17.46319 7.38603,-9.293627 13.12353,-17.237318 12.75,-17.652651 -0.37354,-0.415334 0.12538,-0.466041 1.1087,-0.112682 1.20053,0.431416 1.96711,0.07313 2.33352,-1.090671 1.62823,-5.171481 2.07128,-5.653817 1.94861,-2.121418 -0.10536,3.034048 -2.28698,6.309058 -13.98334,20.991592 -7.6221699,9.56818 -14.4966499,18.07169 -15.2766099,18.89669 -1.24742,1.31945 -1.33097002,1.26961 -0.69414,-0.41405 z M 366.183,57.74465 c -0.6888,-0.84733 5.46065,-9.29021 21.08562,-28.94945 12.13191,-15.264291 22.29198,-27.519291 22.57793,-27.233334 0.28596,0.285957 -0.0126,1.052422 -0.66341,1.703255 -1.56672,1.566727 -1.51909,3.103087 0.0667,2.150392 1.51068,-0.907607 3.50021,-3.51587 -18.78946,24.632942 C 367.28471,59.31618 367.37592,59.21213 366.183,57.74465 Z m -12.26752,-5.63548 c 1.42138,-1.53786 11.35933,-13.863803 22.08433,-27.39099 10.725,-13.527188 19.86406,-24.611725 20.30902,-24.632306 0.44496,-0.02058 0.55465,0.374146 0.24377,0.877171 -0.31089,0.503024 -0.16746,1.065524 0.31874,1.25 0.48619,0.184475 -8.39851,12.067495 -19.74377,26.406711 C 360.04641,50.20853 356.05548,54.70947 353.91548,54.79816 l -2.58433,0.10711 2.58433,-2.7961 z m -64.91567,0.54869 c 0,-0.21482 1.54343,-0.57078 3.42985,-0.79101 1.88642,-0.22023 3.20987,-0.0445 2.94099,0.3906 -0.48392,0.78299 -6.37084,1.15299 -6.37084,0.40041 z m -10,-1.6094 c -3.3918,-0.71395 -3.40726,-0.73771 -0.5,-0.76868 1.65,-0.0176 4.125,0.32832 5.5,0.76868 3.27891,1.05009 -0.0112,1.05009 -5,0 z m -7.25,-1.66228 c 0.6875,-0.27742 1.8125,-0.27742 2.5,0 0.6875,0.27741 0.125,0.50438 -1.25,0.50438 -1.375,0 -1.9375,-0.22697 -1.25,-0.50438 z m -5.48097,-1.03071 c 0.97297,-0.25355 2.32297,-0.23687 3,0.037 0.67703,0.27392 -0.11903,0.48136 -1.76903,0.46098 -1.65,-0.0204 -2.20394,-0.24449 -1.23097,-0.49804 z m 21.26747,-0.24795 c -0.74907,-1.21203 -0.4413,-1.67594 8.87724,-13.380734 3.80256,-4.776302 7.15172,-8.446208 7.44258,-8.155347 0.29086,0.290861 -1.92032,5.354678 -4.91374,11.252927 -4.66745,9.196764 -5.82079,10.767854 -8.09814,11.031404 -1.46056,0.16902 -2.94913,-0.16769 -3.30794,-0.74825 z m 6.40536,-3.6851 c 1.17668,-1.99431 1.95888,-3.80656 1.73822,-4.02721 -0.42675,-0.426752 -5.68008,6.12736 -5.68008,7.08652 0,1.71226 2.07822,0.0993 3.94186,-3.05931 z m -44.44186,1.62604 c -2.67601,-0.68093 -2.73001,-0.76337 -0.5,-0.76337 1.375,0 3.85,0.34351 5.5,0.76337 2.67601,0.68092 2.73001,0.76337 0.5,0.76337 -1.375,0 -3.85,-0.34352 -5.5,-0.76337 z m 51.5,-6 c 1.66583,-3.300005 3.25379,-6.000005 3.52879,-6.000005 0.275,0 -0.86296,2.7 -2.52879,6.000005 -1.66583,3.3 -3.25379,6 -3.52879,6 -0.275,0 0.86296,-2.7 2.52879,-6 z m -59.25,4.33772 c 0.6875,-0.27742 1.8125,-0.27742 2.5,0 0.6875,0.27741 0.125,0.50438 -1.25,0.50438 -1.375,0 -1.9375,-0.22697 -1.25,-0.50438 z m -5,-1 c 0.6875,-0.27742 1.8125,-0.27742 2.5,0 0.6875,0.27741 0.125,0.50438 -1.25,0.50438 -1.375,0 -1.9375,-0.22697 -1.25,-0.50438 z M 0.79981208,41.84846 c 0.66000002,-0.66 1.19311002,-1.897502 1.18469002,-2.750005 -0.0135,-1.365797 -0.13052,-1.371739 -0.98469002,-0.05 -0.53315,0.825003 -0.97626,1.131225 -0.98469,0.680487 -0.008,-0.450732 2.91657002,-4.574209 6.49998002,-9.163282 6.2333999,-7.982773 6.4389099,-8.420815 4.7499999,-10.124534 -1.6872399,-1.702031 -1.6856199,-1.750584 0.0367,-1.098172 1.08447,0.410808 1.55868,0.288988 1.19098,-0.305953 -0.83839,-1.356552 -4.2155199,-1.246405 -5.0884099,0.165962 -0.48434,0.783679 -0.26239,0.882622 0.69098,0.308042 1.19619,-0.720918 1.20095,-0.595514 0.0321,0.845492 -1.48582,1.831728 -2.63355,2.319686 -1.62756,0.691958 0.33992,-0.55 -0.0189,-1 -0.79746,-1 -0.91992,0 -1.37822,-1.015916 -1.30902,-2.901696 0.0586,-1.595933 0.52045,-2.647112 1.02642,-2.335955 0.50873,0.312857 0.6256,-0.201298 0.26145,-1.150242 -0.44375,-1.156417 -0.28071,-1.482508 0.5,-1 0.78072,0.482508 0.94376,0.156417 0.5,-1 -0.44044,-1.147775 -0.27899,-1.481442 0.48759,-1.007673 0.76238,0.471179 0.97531,0.05532 0.63601,-1.242159 -0.39083,-1.494536 0.0399,-1.995981 1.84248,-2.14517 1.5349799,-0.12704 2.3525299,0.339942 2.3525299,1.343756 0,0.846153 0.61799,2.753612 1.37332,4.238799 2.54037,4.995115 2.90607,7.20034 1.19407,7.20034 -0.86206,0 -1.56739,0.423442 -1.56739,0.940983 0,1.684299 2.05185,2.260873 3.56797,1.002606 0.8142,-0.675725 1.76949,-0.939465 2.12286,-0.58609 0.35338,0.353376 0.18819,0.642501 -0.36709,0.642501 -0.55528,0 -4.75096,4.725 -9.3237399,10.5 -4.57278,5.775 -8.55846002,10.500005 -8.85707002,10.500005 -0.29861,0 -0.003,-0.54 0.65707,-1.2 z M 11.264242,15.450689 c 0.90144,-0.901434 -0.3398,-3.473688 -1.3692099,-2.837473 -0.49237,0.3043 -0.89522,1.201715 -0.89522,1.994256 0,1.47259 1.1914099,1.91624 2.2644299,0.843217 z M 226.49981,42.04846 c -2.67601,-0.68093 -2.73001,-0.76337 -0.5,-0.76337 1.375,0 3.85,0.34351 5.5,0.76337 2.67601,0.68092 2.73001,0.76337 0.5,0.76337 -1.375,0 -3.85,-0.34352 -5.5,-0.76337 z m 79.31156,-2.750005 c 7.64129,-14.774103 14.18844,-29.848436 14.18844,-32.667844 0,-2.135032 0.76828,-3.934203 2.21075,-5.177169 l 2.21075,-1.904987 -1.71075,2.714816 c -0.94091,1.49315 -1.71075,3.864642 -1.71075,5.269983 0,1.405341 -2.05308,6.643093 -4.5624,11.639449 -2.50932,4.996356 -4.34986,9.296829 -4.09008,9.556606 0.25978,0.259778 5.3087,-5.637142 11.21982,-13.104266 5.91113,-7.467123 11.15322,-13.576588 11.6491,-13.576588 1.30272,0 0.59873,0.983244 -12.18267,17.015129 -6.36468,7.983322 -13.1023,16.645822 -14.97248,19.25 -4.09665,5.704476 -4.86463,6.040686 -2.24973,0.984871 z m -85.99906,1.066885 c 0.72187,-0.28887 1.58437,-0.25334 1.91667,0.079 0.33229,0.33229 -0.25834,0.56864 -1.3125,0.52522 -1.16495,-0.048 -1.4019,-0.28494 -0.60417,-0.60416 z M 39.449522,23.967078 c -0.4243,-0.686526 0.19314,-0.960379 1.69098,-0.75 1.57778,0.221607 2.35931,-0.165506 2.35931,-1.168623 0,-0.825 -0.60987,-1.371711 -1.35526,-1.214913 -1.69247,0.35602 -4.30452,-1.717538 -3.59985,-2.857717 0.28758,-0.465309 -0.0349,-1.739148 -0.71662,-2.830753 -1.03543,-1.657987 -0.93318,-2.323211 0.62111,-4.040678 4.09935,-4.529738 10.22989,-0.517031 7.00284,4.58367 -1.18633,1.875116 -1.11152,2.358745 0.60516,3.912314 1.83273,1.6586 1.85176,1.890992 0.29573,3.610391 -1.82753,2.019393 -5.85039,2.460122 -6.9034,0.756309 z m 4.21446,-9.48584 c 0.83346,-2.171962 -1.28244,-4.214515 -2.79695,-2.7 -1.28003,1.280033 -0.48705,4.267217 1.13278,4.267217 0.58452,0 1.3334,-0.705248 1.66417,-1.567217 z M 0.73312208,21.705196 C 1.1379621,21.068989 1.4760821,20.248455 1.4845021,19.881788 c 0.0396,-1.725955 1.31782,-1.696561 1.77213,0.04075 0.35039,1.339888 -0.0813,2.10825 -1.37437,2.446404 -1.26022002,0.329553 -1.64118002,0.109504 -1.14914002,-0.663749 z M 20.749812,22.386174 c 0.6875,-0.277412 1.8125,-0.277412 2.5,0 0.6875,0.277413 0.125,0.504386 -1.25,0.504386 -1.375,0 -1.9375,-0.226973 -1.25,-0.504386 z m 16.25,-0.230069 c 0,-0.674126 -0.51953,-0.904598 -1.15451,-0.512158 -0.74421,0.459948 -0.88179,0.272264 -0.38713,-0.528116 0.54526,-0.882249 1.07722,-0.931796 1.83784,-0.171175 0.58876,0.588756 0.76297,1.377966 0.38713,1.753799 -0.37583,0.375833 -0.68333,0.131776 -0.68333,-0.54235 z m 34.56429,-1.400778 c 0.37554,-0.986221 0.9347,-1.541221 1.24258,-1.233333 0.30789,0.307887 6.4e-4,1.114794 -0.68278,1.793128 -0.98762,0.980267 -1.10248,0.865403 -0.5598,-0.559795 z m -52.36429,-0.906872 c -1.37087,-1.370868 -1.64494,-11.406975 -0.33365,-12.217402 0.4765,-0.29449 1.63081,0.309278 2.56515,1.341706 1.11387,1.230814 1.33204,2.103802 0.63364,2.535436 -1.34949,0.834031 -1.40743,7.54026 -0.0651,7.54026 0.55,0 1,0.45 1,1 0,1.379543 -2.34381,1.256184 -3.8,-0.2 z m 29.8,0.164817 c 0,-0.569351 0.71379,-2.124562 1.5862,-3.456024 0.8724,-1.331463 1.25288,-2.960159 0.84549,-3.619325 -0.45104,-0.729793 -0.31737,-0.936848 0.34181,-0.529456 1.24049,0.76667 2.67218,-2.829877 1.73203,-4.351064 -0.34296,-0.554921 -1.362,-1.008948 -2.26455,-1.008948 -1.25523,0 -1.36527,-0.275709 -0.4681,-1.172875 0.88939,-0.889395 1.78367,-0.894576 3.7,-0.02144 2.97998,1.357773 3.13372,2.854403 0.79666,7.755283 -1.64062,3.440416 -1.64062,3.694519 0,4.894169 2.64665,1.93528 2.10302,2.544862 -2.26954,2.544862 -2.2,0 -4,-0.465832 -4,-1.035183 z m 12,0.104734 c 0,-0.588253 0.675,-1.069551 1.5,-1.069551 2.06937,0 1.87663,-1.349184 -0.5,-3.5 -2.39871,-2.170804 -2.53436,-3.811627 -0.45762,-5.535174 1.16826,-0.969568 1.82318,-0.999269 2.7,-0.122444 0.87683,0.876824 0.86655,1.157618 -0.0424,1.157618 -1.91834,0 -1.39098,2.022586 1.05,4.027058 1.82053,1.49497 2.03963,2.193636 1.14788,3.660292 -1.2184,2.003879 -5.39788,3.074091 -5.39788,1.382201 z m 27,-0.06955 c 0,-0.55 0.675,-1 1.5,-1 2.13211,0 1.86993,-1.004445 -1.0606,-4.063253 -2.36815,-2.471821 -2.43794,-2.795347 -0.92857,-4.304719 1.86995,-1.869952 3.10332,-2.065362 3.98917,-0.632028 0.33992,0.55 0.14148,1 -0.44098,1 -1.72754,0 -1.21154,2.208741 1.08776,4.656234 1.77638,1.890869 1.92778,2.548997 0.87755,3.814451 -1.4152,1.70521 -5.02433,2.085433 -5.02433,0.529315 z m -62,-6.85765 c 0,-6.839106 1.5719,-10.495415 2.68394,-6.242966 0.30976,1.184517 1.36063,2.100616 2.40964,2.100616 2.80243,0 5.03913,4.086446 4.28916,7.836289 -0.89556,4.47782 -2.21287,3.922154 -2.57524,-1.086289 -0.4113,-5.684674 -3.0951,-5.915991 -3.8075,-0.328168 -0.275,2.157007 -1.0625,4.107007 -1.75,4.333333 -0.92042,0.303003 -1.25,-1.440561 -1.25,-6.612815 z m 43,1.937105 c 0,-4.59326 0.18291,-4.95016 2.75,-5.365795 3.87587,-0.627541 9.52185,-0.309859 11,0.618937 1.48077,0.930442 1.70671,9.667403 0.25,9.667403 -0.55,0 -1,-1.5199 -1,-3.377555 0,-3.285659 -2.01729,-6.271816 -3.34201,-4.947102 -0.36189,0.361895 -0.65799,2.38299 -0.65799,4.491324 0,3.901137 -1.29312,5.117814 -2.39301,2.251546 -0.33384,-0.869984 -0.60699,-2.643426 -0.60699,-3.940983 0,-1.297558 -0.42742,-2.623357 -0.94983,-2.946221 -1.25968,-0.778527 -3.05017,2.686755 -3.05017,5.90325 0,1.411157 -0.45,2.565741 -1,2.565741 -0.55,0 -1,-2.214245 -1,-4.920545 z m 242.999998,2.979561 c 0,-0.517541 0.44485,-1.215913 0.98855,-1.551938 0.56686,-0.350339 0.7345,0.05106 0.39301,0.940983 -0.66479,1.732417 -1.38156,2.049387 -1.38156,0.610955 z M 46.756042,17.384097 c 0.69093,-0.278554 1.04822,-0.843028 0.79399,-1.254386 -0.25423,-0.411357 0.18582,-0.747923 0.97789,-0.747923 1.08673,0 1.16859,0.327196 0.33357,1.333334 -0.60861,0.733333 -1.61397,1.297807 -2.23412,1.254386 -0.70253,-0.04919 -0.65403,-0.269856 0.12867,-0.585411 z m 38.24377,-0.835642 c 0,-0.825 0.43588,-1.5 0.96862,-1.5 0.53274,0 0.70959,0.675 0.39301,1.5 -0.31658,0.825 -0.75246,1.5 -0.96862,1.5 -0.21615,0 -0.39301,-0.675 -0.39301,-1.5 z M 15.650472,14.58048 c -0.30982,-0.807386 -0.13296,-1.733944 0.39302,-2.059017 0.52597,-0.325073 0.95632,0.335516 0.95632,1.467975 0,2.414565 -0.55611,2.658155 -1.34934,0.591042 z m 6.73684,0.305475 c 0.31062,-1.585796 2.6125,-2.345145 2.6125,-0.861816 0,0.628292 -0.41156,0.887989 -0.91459,0.577102 -0.50302,-0.310886 -1.14427,-0.101193 -1.425,0.465983 -0.28072,0.567177 -0.40353,0.485606 -0.27291,-0.181269 z m 56.69145,-0.420833 c 0.048,-1.164943 0.28494,-1.4019 0.60417,-0.604167 0.28887,0.721875 0.25334,1.584375 -0.0789,1.916667 -0.3323,0.332291 -0.56865,-0.258334 -0.52522,-1.3125 z m 234.991918,0.08333 c 0,-0.55 0.64311,-2.125 1.42913,-3.5 0.78602,-1.375 1.42913,-2.05 1.42913,-1.5 0,0.55 -0.64311,2.125 -1.42913,3.5 -0.78602,1.375 -1.42913,2.05 -1.42913,1.5 z m -256.041008,-1 c -0.93951,-4.647628 -0.30876,-8.01919 1.97014,-10.531109 1.375,-1.515594 2.8744,-2.529248 3.332,-2.252564 0.4576,0.276683 -0.3299,1.715822 -1.75,3.198086 -2.6719,2.788859 -3.57223,5.798535 -1.332,4.452645 0.9621,-0.57801 0.98688,-0.418861 0.10761,0.690984 -0.62832,0.793077 -1.36361,2.341958 -1.634,3.441958 -0.27038,1.1 -0.58257,1.55 -0.69375,1 z m -22.57887,-3.5793 c -0.46622,-0.754366 -0.34614,-0.97393 0.31066,-0.568007 0.58886,0.363939 3.07198,-1.626102 5.51804,-4.422313 3.64966,-4.172114 4.56586,-4.77525 5.10795,-3.36258 0.37775,0.98439 0.007,2.443541 -0.86571,3.407972 -0.83946,0.927594 -1.18781,2.043418 -0.77411,2.47961 0.4137,0.436192 -0.2986,0.469698 -1.58289,0.07446 -1.7026,-0.523974 -2.96061,-0.130963 -4.64451,1.450978 -1.70409,1.600909 -2.50864,1.847267 -3.06943,0.939881 z m 11.1018,-0.835287 c -0.32198,-0.520968 -0.15917,-1.210648 0.3618,-1.532624 0.52097,-0.321975 1.21065,-0.159164 1.53263,0.361804 0.32197,0.520967 0.15916,1.210648 -0.36181,1.532624 -0.52097,0.321975 -1.21065,0.159164 -1.53262,-0.361804 z m 20.05022,0.08126 c -0.28327,-0.458334 0.12038,-0.833334 0.89699,-0.833334 0.77661,0 1.18026,0.375 0.897,0.833334 -0.28327,0.458333 -0.68692,0.833333 -0.897,0.833333 -0.21008,0 -0.61373,-0.375 -0.89699,-0.833333 z m 16.8015,-0.321179 c -0.42807,-0.692624 -0.27573,-0.883939 0.38076,-0.478203 1.02536,0.633706 9.41066,-6.838028 8.59241,-7.656277 -0.20772,-0.207723 0.27422,-0.377678 1.07097,-0.377678 1.03488,0 0.74734,0.833466 -1.00668,2.918005 -1.35044,1.604903 -2.20078,3.329903 -1.88964,3.833334 0.31114,0.50343 -0.33429,0.915328 -1.43429,0.915328 -1.1,0 -2.27812,0.45 -2.61804,1 -0.82506,1.334981 -2.2179,1.265459 -3.09549,-0.154509 z M 23.564102,7.755327 c 0.37554,-0.986221 0.9347,-1.541221 1.24258,-1.233334 0.30789,0.307887 6.4e-4,1.114795 -0.68278,1.793128 -0.98762,0.980268 -1.10248,0.865404 -0.5598,-0.559794 z M 71.802632,5.32537 c 1.1571,-1.624999 2.86937,-3.589577 3.80503,-4.365729 1.59937,-1.326706 1.60154,-1.218402 0.0363,1.809169 -0.91568,1.771196 -2.62795,3.735774 -3.80503,4.36573 l -2.14015,1.145373 2.10382,-2.954543 z m 2.8564,1.980701 c -0.54831,-0.887173 1.81462,-4.06462 4.59078,-6.173279 2.52845,-1.920504 2.15949,-0.874624 -1.16899,3.313733 -1.60545,2.020194 -3.14526,3.30699 -3.42179,2.859546 z M 12.499812,6.048455 c -0.33992,-0.55 -0.14147,-1 0.44098,-1 0.58246,0 1.05902,0.45 1.05902,1 0,0.55 -0.19844,1 -0.44098,1 -0.24254,0 -0.7191,-0.45 -1.05902,-1 z m 7.5,0 c -0.90129,-0.58246 -1.02463,-0.975487 -0.30902,-0.984687 0.65505,-0.0084 1.4691,0.434687 1.80902,0.984687 0.76731,1.241525 0.42112,1.241525 -1.5,0 z M -1.8791538e-4,5.591043 c 0,-0.399921 0.89999999538,-1.871294 2.00000001538,-3.269718 1.1,-1.398423 2,-2.215379 2,-1.815458 0,0.399921 -0.9,1.871294 -2,3.269717 C 0.89981208,5.174008 -1.8791538e-4,5.990964 -1.8791538e-4,5.591043 Z M 8.7331421,4.924367 c 0.67834,-0.683418 1.4852499,-0.990671 1.7931299,-0.682784 0.30789,0.307887 -0.24711,0.867047 -1.2333299,1.242579 -1.4252,0.542684 -1.54006,0.427821 -0.5598,-0.559795 z M 29.999812,5.098544 c 0,-0.825375 -0.88121,-1.114788 -2.46974,-0.811123 -1.35835,0.259666 -2.23179,0.08713 -1.94098,-0.383423 0.29082,-0.470549 1.02926,-0.855543 1.641,-0.855543 0.61173,0 2.01253,-0.7875 3.11288,-1.75 1.22062,-1.067711 1.67471,-1.196395 1.16469,-0.330062 -0.64276,1.091808 -0.40658,1.255179 1.02204,0.706966 1.76586,-0.677623 1.76212,-0.599281 -0.0753,1.580061 -1.0633,1.261169 -2.05057,2.480535 -2.19393,2.709701 -0.14336,0.229167 -0.26066,-0.160793 -0.26066,-0.866577 z m 228.999998,-3.4431 c 0,-0.216157 0.69837,-0.661002 1.55194,-0.988546 0.88992,-0.341496 1.29132,-0.173849 0.94098,0.393011 -0.58726,0.950203 -2.49292,1.405448 -2.49292,0.595535 z"
       id="path5294"
       inkscape:connector-curvature="0" />
  </g>
  <g
     inkscape:groupmode="layer"
     id="layer7"
     inkscape:label="Layer 6" />
  <g
     inkscape:groupmode="layer"
     id="layer2"
     inkscape:label="Layer 2">
    <path
       style="fill:none;fill-rule:evenodd;stroke:#eb7e21;stroke-width:3;stroke-linecap:round;stroke-linejoin:bevel;stroke-miterlimit:4;stroke-dasharray:none;stroke-opacity:1"
       d="m 215.99903,39.519906 c 38.9611,6.935355 39.01689,6.964033 78.4887,13.764725 20.66058,-40.680399 5.88417,-10.199081 23.1579,-45.1149676"
       id="path4353"
       inkscape:connector-curvature="0"
       sodipodi:nodetypes="ccc" />
  </g>
  <g
     inkscape:groupmode="layer"
     id="layer3"
     inkscape:label="Layer 3" />
  <g
     inkscape:groupmode="layer"
     id="layer4"
     inkscape:label="Layer 4">
    <path
       style="fill:#2172aa;fill-opacity:1;stroke:none;stroke-width:1px;stroke-linecap:butt;stroke-linejoin:miter;stroke-opacity:1"
       d="m 210.74015,199.60172 c 1.94191,-1.57104 4.58222,-19.97877 9.2433,-25.37671 4.66109,-5.39793 13.70956,-22.02839 14.06177,-19.88037 l 5.58706,-6.63876 0.70813,8.84009 c 0.11177,1.39533 0.68024,1.05304 2.6717,3.01373 4.18258,4.11797 7.6467,5.44221 15.37287,5.87667 2.72145,0.15302 13.77128,1.00511 24.5552,1.89355 10.78391,0.88842 26.50527,2.05783 34.93633,2.59869 8.43107,0.54085 18.94775,-1.97077 24.0456,-1.53023 14.14993,1.22278 23.35168,0.96845 28.4205,-0.78556 14.36041,-6.60701 11.71768,6.25287 9.72428,-5.06797 0,0 9.21273,1.49149 7.64417,-1.33705 -1.56857,-2.82855 -0.64225,-5.85134 -0.64225,-6.04215 0,-0.19078 0.75662,-10.69042 -0.13127,-22.31853 -1.05717,-13.84499 -3.75592,-23.84701 -3.29935,-24.25785 0.38441,-0.3459 5.47962,-1.73964 11.3227,-3.09724 14.14226,-3.28582 -0.1305,0.3457 13.64313,-3.49759 1.18101,-0.32954 1.24773,2.3472 1.24773,50.05779 l 0,50.40593 -101.32117,0 -101.32117,0 z"
       id="path4225"
       inkscape:connector-curvature="0"
       sodipodi:nodetypes="ssscssssssccssssssscccs" />
    <path
       style="fill:#ffffff;fill-opacity:1;fill-rule:evenodd;stroke:none;stroke-width:1px;stroke-linecap:butt;stroke-linejoin:miter;stroke-opacity:1"
       d="m 242.60495,161.70381 c 40.63737,10.1086 82.14084,6.42116 122.28418,6.94159 0,0 17.35807,-1.93146 22.63957,-4.36992 3.89499,-31.16385 -7.17996,-67.085381 -13.03516,-94.221225 -8.3267,-11.050083 -11.03166,-12.325909 -21.95398,-14.283323 -19.69022,6.294889 -15.47631,3.883612 -28.60453,9.24753 -13.12822,5.363918 -46.64082,17.150916 -75.86856,27.504329 -0.52283,0.933426 -9.04756,5.98034 -9.81359,12.561299 0.21665,19.4264 -2.95927,41.61884 4.35211,56.61972 z"
       id="path3536"
       inkscape:connector-curvature="0"
       sodipodi:nodetypes="cccccscccc" />
  </g>
  <g
     inkscape:groupmode="layer"
     id="layer5"
     inkscape:label="Layer 5">
    <path
       style="fill:none;fill-rule:evenodd;stroke:#000000;stroke-width:3;stroke-linecap:round;stroke-linejoin:bevel;stroke-miterlimit:4;stroke-dasharray:none;stroke-opacity:1"
       d="m 248.53094,101.21247 c 38.9611,6.93536 39.01689,6.96404 78.4887,13.76473 20.66058,-40.6804 5.88417,-10.19908 23.1579,-45.114968"
       id="path4353-7"
       inkscape:connector-curvature="0"
       sodipodi:nodetypes="ccc" />
    <path
       style="color:#000000;font-style:normal;font-variant:normal;font-weight:normal;font-stretch:normal;font-size:medium;line-height:normal;font-family:sans-serif;text-indent:0;text-align:start;text-decoration:none;text-decoration-line:none;text-decoration-style:solid;text-decoration-color:#000000;letter-spacing:normal;word-spacing:normal;text-transform:none;direction:ltr;block-progression:tb;writing-mode:lr-tb;baseline-shift:baseline;text-anchor:start;white-space:normal;clip-rule:nonzero;display:inline;overflow:visible;visibility:visible;opacity:1;isolation:auto;mix-blend-mode:normal;color-interpolation:sRGB;color-interpolation-filters:linearRGB;solid-color:#000000;solid-opacity:1;fill:#775683;fill-opacity:1;fill-rule:nonzero;stroke:none;stroke-width:1;stroke-linecap:butt;stroke-linejoin:miter;stroke-miterlimit:4;stroke-dasharray:none;stroke-dashoffset:0;stroke-opacity:1;color-rendering:auto;image-rendering:auto;shape-rendering:auto;text-rendering:auto;enable-background:accumulate"
       d="m -0.32195824,-0.9944476 0.002,0.501953 c 0.0789,21.4762346 0.09766,29.3222656 0.09766,29.3222656 l 0.002,0.136718 0.214844,0.363282 0.283203,0 101.59572124,-0.01172 -0.0508,-30.3124996 -102.14455024,0 z m 1.00390599,1 100.14259225,0 0.0488,28.3124996 -100.09764225,0.01172 c -6.7e-4,-0.259068 -0.019473,-8.029156 -0.09375,-28.3242196 z M 27.78937,3.9274274 c -0.154698,-0.03523 -0.332094,-10e-4 -0.455078,0.06445 -0.122984,0.06549 -0.202954,0.148994 -0.267578,0.232422 -0.12925,0.166855 -0.205899,0.34858 -0.283204,0.568359 -0.154609,0.439559 -0.283783,1.03405 -0.40039,1.789063 -0.233213,1.510024 -0.408593,3.6438756 -0.494141,6.1718746 -0.119234,3.523678 -0.130555,5.671312 0.05664,7.015625 0.0936,0.672156 0.228539,1.157762 0.501953,1.529297 0.273414,0.371534 0.726334,0.55664 1.136719,0.55664 0.375975,0 0.755464,-0.145733 1.039062,-0.410156 0.283598,-0.264423 0.482028,-0.621314 0.642578,-1.064453 0.321102,-0.886279 0.497165,-2.149861 0.607422,-3.9375 0.108519,-1.759559 0.296472,-2.967719 0.550782,-3.664063 0.127154,-0.348171 0.268363,-0.559756 0.386718,-0.667968 0.118356,-0.108213 0.205891,-0.140625 0.369141,-0.140625 0.16325,0 0.250786,0.03241 0.369141,0.140625 0.118354,0.108212 0.257611,0.319796 0.384765,0.667968 0.254308,0.696345 0.442258,1.904504 0.550781,3.664063 0.08308,1.347108 0.257611,2.464242 0.484375,3.322266 0.226764,0.858023 0.457662,1.452021 0.884766,1.830078 0.213552,0.189028 0.581439,0.314623 0.892578,0.191406 0.31114,-0.123217 0.477599,-0.371617 0.609375,-0.652344 0.263552,-0.561453 0.411997,-1.389578 0.478516,-2.613281 0.203133,-3.73692 0.01425,-6.308264 -0.763672,-7.958984 -0.388961,-0.825361 -0.95791,-1.4283416 -1.689453,-1.7265626 -0.731543,-0.298221 -1.578403,-0.289612 -2.515625,-0.05664 -0.492557,0.122435 -0.687234,0.06665 -0.882813,-0.138671 -0.195579,-0.205319 -0.400771,-0.703556 -0.501953,-1.53711 -0.09039,-0.744652 -0.289252,-1.441388 -0.554687,-2 -0.265435,-0.558613 -0.551907,-1.042591 -1.136718,-1.175782 z m 25.179687,0.535156 c -1.590959,-0.14019 -3.253568,0.33391 -4.246093,1.578125 -0.322599,0.404406 -0.560417,0.710521 -0.714844,1.001953 -0.07721,0.145716 -0.147886,0.288016 -0.150391,0.5 -0.0025,0.211984 0.16042,0.496355 0.351563,0.601563 0.382285,0.210415 0.667344,0.12818 1.105468,0.0625 0.438125,-0.06568 1.006383,-0.188392 1.746094,-0.357422 1.387665,-0.317096 2.164505,-0.354113 2.361328,-0.271484 0.09841,0.04131 0.116265,0.0543 0.169922,0.222656 0.05366,0.168358 0.08789,0.482689 0.08789,0.917969 0,0.6541586 -0.35445,1.8520546 -0.935547,3.1660146 -0.581097,1.313961 -1.375698,2.770138 -2.207031,4.082031 -0.831333,1.311894 -1.704176,2.483174 -2.41211,3.216797 -0.353967,0.366812 -0.674114,0.621233 -0.871093,0.722657 -0.09598,0.04942 -0.153621,0.05624 -0.15625,0.05664 -0.418452,-0.404875 -1.020312,-0.669 -1.771485,-0.888672 -0.781961,-0.228675 -1.693343,-0.38491 -2.578125,-0.419922 -0.03944,-0.0016 -0.05366,-0.0042 -0.0918,-0.0059 2.969746,-1.11266 4.886006,-3.649469 4.800782,-6.767578 -0.01879,-0.687381 -0.05196,-1.236789 -0.154297,-1.707031 -0.102335,-0.470242 -0.289849,-0.881156 -0.619141,-1.1777346 -0.658583,-0.593157 -1.601972,-0.625 -3.085937,-0.625 -2.453749,0 -4.604585,1.0797456 -5.857422,2.5566406 -0.626419,0.738447 -1.032502,1.585816 -1.09961,2.462891 -0.06711,0.877074 0.228944,1.77604 0.925782,2.507812 0.07227,0.0759 0.280777,0.482576 0.40625,0.990235 0.125472,0.507658 0.207031,1.126843 0.207031,1.699218 0,0.951409 0.214939,1.744059 0.851562,2.248047 0.636624,0.503988 1.534094,0.690496 2.847657,0.822266 1.055817,0.105909 1.821853,0.300907 2.269531,0.5 0.223839,0.09955 0.365312,0.200754 0.421875,0.259765 0.05656,0.05901 0.02217,0.03732 0.02734,-0.0098 0.0052,-0.04708 0.02747,-0.03757 -0.05469,0.02539 -0.08215,0.06295 -0.252112,0.152733 -0.5,0.230469 -0.495776,0.155472 -1.295198,0.271485 -2.363281,0.271484 -1.004248,0 -1.831034,0.109386 -2.470703,0.298829 -0.639669,0.189442 -1.124203,0.427518 -1.378906,0.896484 -0.127352,0.234483 -0.15364,0.549512 -0.05273,0.806641 0.100906,0.257128 0.289875,0.448837 0.519531,0.607422 0.459314,0.317168 1.121729,0.534322 2.052735,0.685546 1.758101,0.285569 3.268067,0.22624 4.515625,-0.21875 1.247557,-0.44499 2.217261,-1.292851 2.826172,-2.476562 0.341777,-0.664412 0.728266,-1.027351 1.546875,-1.294922 0.818608,-0.267571 2.080386,-0.384766 3.976562,-0.384766 1.3939,0 2.657866,-0.117424 3.607422,-0.316406 0.474778,-0.09949 0.868886,-0.216852 1.185547,-0.373047 0.158331,-0.0781 0.299888,-0.164914 0.425781,-0.292969 0.125893,-0.128054 0.246094,-0.324382 0.246094,-0.558593 0,-0.306891 -0.155925,-0.573905 -0.347656,-0.761719 -0.191732,-0.187814 -0.427343,-0.32403 -0.695313,-0.435547 -0.53594,-0.223034 -1.212783,-0.34375 -1.957031,-0.34375 -0.761753,0 -1.329297,-9.73e-4 -1.609375,-0.05859 -0.140039,-0.02881 -0.188223,-0.06718 -0.189453,-0.06836 -0.0012,-0.0012 -0.0037,0.02248 -0.0078,-0.0625 -0.0083,-0.169957 0.116066,-0.684293 0.447266,-1.478516 0.3312,-0.794222 0.844898,-1.887641 1.53125,-3.357422 0.853772,-1.828295 1.362362,-3.147298 1.554687,-4.240234 0.192326,-1.0929356 0.03447,-1.9864286 -0.429687,-2.7578126 -0.836101,-1.38941 -2.416861,-2.146846 -4.007821,-2.287036 z m -42.767578,0.431641 c -0.165885,0.0035 -0.3499403,0.09575 -0.4511723,0.207031 -0.212603,0.233704 -0.376601,0.542195 -0.6132809,1 -0.236679,0.457805 -0.514395,1.042585 -0.818359,1.714844 -0.607928,1.344517 -1.320957,3.0416256 -2.003906,4.7480466 -0.68295,1.706421 -1.335012,3.420554 -1.81836,4.802734 -0.241674,0.69109 -0.44059,1.297989 -0.582031,1.785156 -0.141442,0.487168 -0.234375,0.808776 -0.234375,1.13086 0,0.511339 0.165692,0.960182 0.494141,1.242187 0.328449,0.282005 0.77027,0.355661 1.171875,0.28125 0.803208,-0.14882 1.563083,-0.814117 1.941406,-1.839844 0.142314,-0.385842 0.453839,-0.680333 0.927734,-0.890624 0.473895,-0.210292 1.0969389,-0.315482 1.7519529,-0.291016 1.3100293,0.04893 2.7068013,0.623409 3.3613283,1.554687 0.339728,0.483369 0.63985,0.856617 0.917969,1.132813 0.278119,0.276196 0.521425,0.475591 0.865235,0.544922 0.171904,0.03467 0.382531,0.01694 0.554687,-0.08008 0.172156,-0.09702 0.285157,-0.249249 0.355469,-0.396485 0.140624,-0.294472 0.166777,-0.607958 0.162109,-0.996093 -0.01867,-1.552543 -0.719289,-4.356464 -2.066406,-8.199219 -0.767207,-2.188501 -1.547112,-4.0826876 -2.201172,-5.3945296 -0.32703,-0.65592 -0.617431,-1.163548 -0.886719,-1.515625 -0.134643,-0.176038 -0.253747,-0.317639 -0.443359,-0.43164 -0.09481,-0.057 -0.218881,-0.112829 -0.384766,-0.109375 z m 17.525391,0.228515 c 0.09037,0.09119 0.16137,0.123032 0.296875,0.408203 0.207979,0.437696 0.38695,1.051631 0.464844,1.69336 0.112938,0.930407 0.315005,1.630263 0.769531,2.1074216 0.454526,0.477159 1.154753,0.590203 1.847656,0.417969 0.806143,-0.200388 1.424617,-0.18144 1.898438,0.01172 0.47382,0.193158 0.84917,0.562519 1.162109,1.226563 0.625877,1.328087 0.869619,3.804811 0.669922,7.478515 -0.06279,1.155176 -0.232625,1.911609 -0.382813,2.234376 -0.113999,-0.147577 -0.335796,-0.503586 -0.517578,-1.191407 -0.204068,-0.772149 -0.373272,-1.832204 -0.453125,-3.126953 -0.110936,-1.798678 -0.28616,-3.062243 -0.609375,-3.947266 -0.161607,-0.442511 -0.363385,-0.800089 -0.65039,-1.0625 -0.287006,-0.26241 -0.666204,-0.402343 -1.042969,-0.402343 -0.376765,0 -0.757916,0.139933 -1.044922,0.402343 -0.287006,0.262411 -0.488783,0.619989 -0.650391,1.0625 -0.323215,0.885023 -0.498443,2.148588 -0.609375,3.947266 -0.107813,1.748011 -0.294949,2.955516 -0.548828,3.65625 -0.126939,0.350367 -0.269033,0.566053 -0.386719,0.675781 -0.117685,0.109729 -0.199988,0.140625 -0.355468,0.140625 -0.198421,0 -0.229998,-0.0098 -0.332032,-0.148437 -0.102033,-0.13865 -0.233648,-0.479906 -0.316406,-1.074219 -0.165516,-1.188625 -0.16568,-3.33275 -0.04687,-6.84375 0.08461,-2.500381 0.25941,-4.6107176 0.482422,-6.0546876 0.111506,-0.721985 0.239784,-1.280477 0.355469,-1.609375 3.24e-4,-9.22e-4 -3.25e-4,-0.001 0,-0.002 z m -8.113281,0.203125 c -0.254842,0.04275 -0.455925,0.185391 -0.609375,0.34961 -0.306901,0.328437 -0.501891,0.778485 -0.685547,1.345703 -0.183656,0.567218 -0.337175,1.251146 -0.460938,2.021484 -0.495051,3.0813536 -0.522504,7.5118346 0.425781,10.6367186 0.199325,0.656833 0.718587,1.135756 1.322266,1.482422 0.603679,0.346666 1.312947,0.569281 2.011719,0.669922 0.698772,0.100641 1.38486,0.08631 1.964844,-0.119141 0.289992,-0.102724 0.559288,-0.258427 0.765625,-0.496094 0.206337,-0.237666 0.332031,-0.562736 0.332031,-0.902343 0,-0.482712 -0.287068,-0.890422 -0.65625,-1.146485 -0.369182,-0.256062 -0.836669,-0.394531 -1.34375,-0.394531 -0.181914,0 -0.278269,-0.03515 -0.376953,-0.115234 -0.09868,-0.08009 -0.211135,-0.232007 -0.310547,-0.507813 -0.198824,-0.551612 -0.3125,-1.557428 -0.3125,-3.037109 0,-1.242919 0.112922,-2.228871 0.285156,-2.826172 0.08612,-0.29865 0.192588,-0.495633 0.251953,-0.564453 0.05937,-0.06882 -0.01584,-0.02318 -0.02539,-0.02539 0.93409,0.21596 1.840449,-0.432005 2.167968,-1.361328 0.17181,-0.487503 0.106731,-1.016703 -0.1875,-1.3925776 -0.29423,-0.375875 -0.776618,-0.572266 -1.302734,-0.572266 -0.491562,0 -1.365313,-0.645899 -1.646484,-1.408203 -0.256827,-0.696326 -0.495907,-1.159768 -0.888672,-1.44922 -0.196383,-0.144726 -0.465862,-0.230248 -0.720703,-0.1875 z m 33.267578,0.132813 c 1.331348,0.117314 2.611284,0.76465 3.238281,1.80664 0.352219,0.585349 0.465784,1.141793 0.302734,2.0683596 -0.163049,0.926567 -0.637174,2.194693 -1.476562,3.992188 -0.685644,1.468264 -1.201743,2.562215 -1.548828,3.394531 -0.347086,0.832315 -0.549375,1.382372 -0.523438,1.912109 0.01297,0.264869 0.11884,0.547244 0.316406,0.736328 0.197567,0.189084 0.436908,0.274272 0.679688,0.324219 0.485559,0.0999 1.05645,0.08008 1.810547,0.08008 0.630751,0 1.201956,0.113472 1.572265,0.267578 0.169061,0.07036 0.279918,0.147322 0.347657,0.207031 -0.0166,0.0095 -0.01278,0.01141 -0.0332,0.02148 -0.187579,0.09252 -0.524123,0.201936 -0.949219,0.291015 -0.850192,0.17816 -2.065594,0.294922 -3.402344,0.294922 -1.934934,0 -3.27292,0.104049 -4.287109,0.435547 -1.014189,0.331499 -1.694371,0.944219 -2.126953,1.785157 -0.50428,0.980309 -1.239855,1.624216 -2.271485,1.992187 -1.03163,0.367971 -2.373872,0.443086 -4.019531,0.175781 -0.84641,-0.137484 -1.400512,-0.352983 -1.644531,-0.521484 -0.101945,-0.0704 -0.12185,-0.107544 -0.132813,-0.125 0.03147,-0.04414 0.264025,-0.256901 0.761719,-0.404297 0.512813,-0.151873 1.25558,-0.257813 2.185547,-0.257813 1.137502,0 2.015733,-0.113707 2.662109,-0.316406 0.323188,-0.101349 0.589699,-0.222885 0.808594,-0.390625 0.218895,-0.16774 0.407988,-0.406838 0.441406,-0.710937 0.03342,-0.304099 -0.110003,-0.591979 -0.300781,-0.791016 C 45.100548,21.527215 44.856863,21.378077 44.554998,21.24383 43.951267,20.975337 43.104543,20.776673 41.978826,20.663752 40.725699,20.538045 39.999358,20.324942 39.652654,20.050471 39.30595,19.776 39.179998,19.410629 39.179998,18.58758 c 0,-0.66341 -0.08993,-1.345161 -0.236328,-1.9375 -0.146403,-0.592338 -0.312117,-1.084125 -0.652344,-1.441406 -0.522032,-0.548203 -0.701429,-1.126178 -0.654297,-1.742188 0.04713,-0.616009 0.345788,-1.280234 0.865234,-1.892578 1.038893,-1.224688 2.940133,-2.203125 5.095704,-2.203125 1.447784,0 2.148454,0.124449 2.417968,0.367188 0.134757,0.12137 0.232251,0.29763 0.308594,0.648437 0.07634,0.350808 0.114602,0.855297 0.132813,1.521485 0.08155,2.983714 -1.783806,5.342887 -4.900391,6.132812 -0.361019,0.0915 -0.611156,0.162781 -0.826172,0.275391 -0.107508,0.05631 -0.246466,0.09319 -0.349609,0.361328 -0.05157,0.134067 -0.03822,0.340222 0.0332,0.466797 0.07143,0.126574 0.156008,0.184775 0.222656,0.224609 0.266592,0.159339 0.457903,0.159385 0.785156,0.197266 0.327254,0.03788 0.752478,0.06477 1.28711,0.08594 0.792718,0.03137 1.638481,0.176897 2.335937,0.38086 0.697456,0.203962 1.255066,0.504898 1.404297,0.660156 0.167232,0.173987 0.425898,0.273059 0.652344,0.271484 0.226446,-0.0016 0.421629,-0.07325 0.609375,-0.169921 0.375492,-0.193339 0.73784,-0.508664 1.132812,-0.917969 0.789946,-0.818611 1.68119,-2.024307 2.53711,-3.375 0.855919,-1.350693 1.672434,-2.840671 2.279297,-4.212891 0.606862,-1.37222 1.019531,-2.601453 1.019531,-3.5703116 0,-0.474198 -0.02111,-0.866035 -0.134766,-1.222657 -0.113658,-0.356622 -0.377849,-0.689351 -0.736328,-0.839844 -0.716957,-0.300986 -1.552727,-0.105272 -2.970703,0.21875 -0.733104,0.16752 -1.290947,0.286645 -1.671875,0.34375 -0.05469,0.0082 -0.02061,0.0044 -0.06836,0.0078 0.111998,-0.163556 0.198457,-0.302014 0.40625,-0.5625 0.723615,-0.90711 2.045606,-1.322389 3.376954,-1.205075 z M 10.28351,6.1266464 c 0.190775,0.26208 0.443621,0.682451 0.736329,1.269531 0.624165,1.251882 1.397733,3.1211546 2.154297,5.2792966 1.331253,3.797502 1.9948,6.636507 2.009765,7.880859 0.0024,0.19826 -0.02223,0.257175 -0.04101,0.353516 -0.06542,-0.04209 -0.07752,-0.03534 -0.191407,-0.148438 -0.21271,-0.211239 -0.486535,-0.543421 -0.804687,-0.996093 -0.910643,-1.295687 -2.581329,-1.9202 -4.142578,-1.978516 -0.7806252,-0.02916 -1.5423722,0.08526 -2.1953132,0.375 -0.652941,0.289744 -1.208771,0.775311 -1.460937,1.458984 -0.271568,0.736288 -0.830095,1.137628 -1.183594,1.203125 -0.176749,0.03275 -0.273193,-0.0011 -0.337891,-0.05664 -0.0647,-0.05555 -0.146484,-0.17492 -0.146484,-0.484375 0,-0.02422 0.06016,-0.392791 0.193359,-0.851563 0.133197,-0.458771 0.328433,-1.053865 0.566407,-1.734375 0.475947,-1.361019 1.124134,-3.066165 1.802734,-4.761719 0.6786,-1.695553 1.389444,-3.38262 1.988281,-4.7070306 0.2994139,-0.662205 0.5713549,-1.233584 0.7949172,-1.666016 0.123781,-0.239428 0.170657,-0.294915 0.257812,-0.435546 z m 9.46875,0.214843 c 0.0789,0.06463 0.309555,0.365721 0.53125,0.966797 0.422589,1.14571 1.45352,2.0624996 2.585938,2.0624996 0.285874,0 0.438875,0.0939 0.513672,0.189453 0.0748,0.09555 0.113473,0.215595 0.0332,0.44336 -0.176641,0.501211 -0.69659,0.790851 -1,0.720703 -0.353303,-0.08168 -0.741006,0.09332 -0.957031,0.34375 -0.216025,0.25043 -0.345883,0.56272 -0.455078,0.941406 -0.218392,0.757373 -0.324219,1.803254 -0.324219,3.103516 0,1.52589 0.0927,2.599179 0.373047,3.376953 0.140171,0.388887 0.335011,0.714728 0.61914,0.945312 0.284129,0.230585 0.648056,0.337891 1.007813,0.337891 0.317919,0 0.598869,0.09572 0.773437,0.216797 0.174568,0.121079 0.226563,0.234716 0.226563,0.324219 0,0.121014 -0.02764,0.17669 -0.08789,0.246093 -0.06026,0.0694 -0.171507,0.147971 -0.34375,0.208985 -0.344486,0.122027 -0.905703,0.158125 -1.488281,0.07422 -0.582578,-0.08391 -1.189289,-0.280673 -1.65625,-0.548828 -0.466961,-0.268156 -0.770265,-0.599735 -0.863281,-0.90625 -0.868155,-2.860832 -0.867728,-7.254338 -0.396485,-10.1874996 0.117811,-0.733291 0.264798,-1.375851 0.425782,-1.873048 0.160983,-0.497196 0.354333,-0.848394 0.466797,-0.96875 0.02123,-0.02272 0.0059,-0.01039 0.01562,-0.01758 z m 71.046878,2.056641 c -1.40847,-0.0082 -3.00567,0.458916 -3.90625,1.5878906 -1.685141,2.112471 -0.501037,5.252958 2.22265,6.152344 1.01957,0.336664 1.49564,1.131682 1.52149,1.714843 0.0129,0.291581 -0.0727,0.509908 -0.23438,0.658203 -0.16163,0.148296 -0.43135,0.262644 -0.91992,0.210938 -1.40929,-0.149145 -2.26256,-0.212612 -2.91015,0.0625 -0.323802,0.137556 -0.610113,0.497085 -0.619146,0.857422 -0.009,0.360336 0.133943,0.656172 0.330078,0.986328 0.336238,0.566029 0.968118,0.762245 1.718748,0.916016 0.75064,0.15377 1.6528,0.198128 2.57032,0.105468 1.22179,-0.123385 2.12037,-0.347912 2.7832,-0.84375 0.66283,-0.495838 1.00406,-1.252954 1.13086,-2.179687 0.23497,-1.717507 -0.66407,-3.274385 -2.46485,-4.501953 -0.73465,-0.500805 -1.29728,-0.992294 -1.67773,-1.417969 -0.38045,-0.425675 -0.5635,-0.797208 -0.5918,-0.962891 -0.0142,-0.08284 -10e-4,-0.09644 -0.004,-0.0918 -0.003,0.0046 -0.01,-0.0044 0.0625,-0.0293 0.14403,-0.04978 0.58061,-0.06707 1.23633,0.111329 0.70893,0.192877 1.31446,0.237993 1.82813,0.002 0.51367,-0.23604 0.80468,-0.804146 0.80468,-1.402344 0,-0.666707 -0.42753,-1.2101716 -0.96875,-1.5078116 -0.54122,-0.297641 -1.20787,-0.423619 -1.91211,-0.427735 z m 3.6875,10.2285156 0.004,-0.0332 0,-0.03516 -0.004,0.06836 z M 64.056948,8.5719584 c -1.941183,-0.233323 -3.551613,0.598621 -4.320312,1.8906246 -0.7687,1.292004 -0.647905,3.047474 0.65625,4.404297 0.459528,0.478094 0.977995,0.905103 1.466796,1.224609 0.488801,0.319507 0.895481,0.560547 1.390625,0.560547 0.0084,0 0.10216,0.02515 0.21875,0.236329 0.116591,0.211179 0.210938,0.558065 0.210938,0.945312 0,0.498082 -0.0967,0.640964 -0.226563,0.714844 -0.129866,0.07388 -0.502257,0.115615 -1.142578,-0.05859 -0.688958,-0.187443 -1.286665,-0.227144 -1.794922,-0.01563 -0.508257,0.211519 -0.835937,0.754421 -0.835937,1.330078 0,0.717362 0.335758,1.379437 0.896484,1.878906 0.560726,0.49947 1.336006,0.864338 2.292969,1.113282 0.17634,0.04585 0.245526,0.01735 0.324219,0.002 0.07869,-0.0154 0.151717,-0.03782 0.232422,-0.06445 0.161408,-0.05327 0.349061,-0.128284 0.5625,-0.222657 0.426876,-0.188745 0.95595,-0.452932 1.5,-0.755859 1.486668,-0.827774 2.217723,-2.241706 2.097656,-3.689453 -0.120067,-1.447747 -1.036429,-2.899508 -2.625,-3.982422 -1.393791,-0.95013 -2.128672,-1.926446 -2.208985,-2.287109 -0.02008,-0.09017 -0.0081,-0.123499 -0.0059,-0.128907 0.0022,-0.0054 -0.0069,-0.0086 0.04492,-0.03516 0.103606,-0.05304 0.468407,-0.114364 1.050781,-0.01172 0.563973,0.0994 1.129177,0.05669 1.621094,-0.09961 0.491917,-0.156297 0.938757,-0.423543 1.166016,-0.888672 0.135815,-0.277971 0.108772,-0.632386 -0.0293,-0.882812 -0.13807,-0.250427 -0.348365,-0.428785 -0.59375,-0.5800776 -0.490771,-0.302587 -1.157565,-0.502507 -1.949219,-0.597657 z m 4.623047,0.08203 0,6.6035156 c 0,1.707318 0.111353,3.251678 0.298828,4.394531 0.09374,0.571427 0.203765,1.038751 0.345703,1.404297 0.07097,0.182773 0.146507,0.342388 0.263672,0.488282 0.117165,0.145893 0.31728,0.310546 0.591797,0.310546 0.379974,0 0.639076,-0.255647 0.804687,-0.505859 0.165612,-0.250212 0.283269,-0.550291 0.382813,-0.904297 0.199088,-0.708011 0.3125,-1.630163 0.3125,-2.646484 0,-2.239109 0.220703,-3.910304 0.609375,-4.953125 0.194336,-0.521411 0.427064,-0.878182 0.664062,-1.091797 0.236998,-0.213616 0.467743,-0.302734 0.777344,-0.302734 0.06484,0 0.113491,0.0077 0.226563,0.136718 0.113071,0.129022 0.252336,0.381347 0.376953,0.75 0.249234,0.737307 0.441919,1.923537 0.541015,3.503906 0.106284,1.694881 0.32206,3.006394 0.609375,3.947266 0.143658,0.470436 0.30448,0.848846 0.498047,1.148438 0.193568,0.299591 0.430338,0.55283 0.789063,0.632812 0.358724,0.07998 0.731537,-0.103642 0.958984,-0.355469 0.227447,-0.251827 0.388529,-0.579067 0.535156,-0.998047 0.293255,-0.837959 0.504145,-2.056154 0.605469,-3.707031 0.109807,-1.789083 0.29593,-3.014472 0.550781,-3.720703 0.127426,-0.353115 0.270134,-0.566501 0.388672,-0.675781 0.118538,-0.109281 0.205503,-0.142578 0.369141,-0.142578 0.163246,0 0.250786,0.03241 0.369141,0.140625 0.118354,0.108212 0.25761,0.319796 0.384765,0.667968 0.25431,0.696345 0.442258,1.904504 0.550781,3.664063 0.0855,1.386312 0.275715,2.646122 0.523438,3.587891 0.123861,0.470884 0.257857,0.860076 0.423828,1.169922 0.08298,0.154922 0.172667,0.290695 0.298828,0.412109 0.126161,0.121414 0.315021,0.242187 0.552734,0.242187 0.252054,0 0.46404,-0.147772 0.585938,-0.292968 0.121898,-0.145197 0.19654,-0.302961 0.261719,-0.480469 0.130357,-0.355016 0.215106,-0.801161 0.279297,-1.353516 0.12838,-1.10471 0.156682,-2.619047 0.06836,-4.380859 L 84.154605,8.8981294 76.437808,8.7770354 68.679996,8.6539884 Z M 90.793278,9.398129 c 0.58147,0.0034 1.10647,0.121763 1.43555,0.302735 0.32907,0.180971 0.45117,0.352472 0.45117,0.632812 0,0.352791 -0.0613,0.419991 -0.22266,0.494141 -0.16136,0.07415 -0.55556,0.102178 -1.14648,-0.05859 -0.75574,-0.205611 -1.33478,-0.261649 -1.82618,-0.0918 -0.24569,0.08493 -0.47581,0.250009 -0.60742,0.484375 -0.1316,0.234366 -0.15336,0.503884 -0.11133,0.75 0.0841,0.492231 0.38056,0.955788 0.83204,1.460937 0.45147,0.50515 1.07275,1.040565 1.86132,1.578126 1.61891,1.103591 2.21577,2.220873 2.03516,3.541015 -0.10652,0.778518 -0.31713,1.198623 -0.73828,1.513672 -0.42115,0.315049 -1.1394,0.534881 -2.2832,0.650391 -0.81838,0.08265 -1.6394,0.03924 -2.26954,-0.08984 -0.63013,-0.129085 -1.03576,-0.410781 -1.05859,-0.449219 -0.14093,-0.237239 -0.1717,-0.376126 -0.17773,-0.412109 0.19199,-0.08056 1.04289,-0.132979 2.41015,0.01172 0.69627,0.07369 1.29621,-0.09527 1.70117,-0.466796 0.40497,-0.371532 0.58209,-0.909371 0.5586,-1.439454 -0.047,-1.060165 -0.83497,-2.169337 -2.20899,-2.623046 -2.16638,-0.71536 -2.997671,-3.01455 -1.75195,-4.576172 0.60334,-0.756357 1.95424,-1.219688 3.11719,-1.212891 z M 63.937807,9.564145 c 0.683857,0.08219 1.244445,0.271771 1.544922,0.457031 0.136596,0.08422 0.194916,0.156804 0.21875,0.191406 -0.05991,0.09981 -0.234006,0.257923 -0.541015,0.355469 -0.323708,0.102851 -0.746004,0.138602 -1.144532,0.06836 -0.69316,-0.122172 -1.233258,-0.123068 -1.679687,0.105469 -0.223215,0.114269 -0.418526,0.30844 -0.515625,0.544922 -0.0971,0.236482 -0.09744,0.490733 -0.04492,0.726563 0.21006,0.943319 1.125304,1.876823 2.621094,2.896484 1.392644,0.949352 2.103729,2.159491 2.193359,3.240234 0.08963,1.080743 -0.386034,2.061278 -1.587891,2.730469 -0.51979,0.289419 -1.02922,0.54491 -1.417968,0.716797 -0.194374,0.08594 -0.360181,0.151023 -0.470703,0.1875 -0.02718,0.009 -0.0356,0.01034 -0.05469,0.01563 -0.808495,-0.220161 -1.434294,-0.522913 -1.816406,-0.863281 -0.395227,-0.352051 -0.5625,-0.71022 -0.5625,-1.132813 0,-0.288625 0.0429,-0.332255 0.220703,-0.40625 0.177801,-0.07399 0.579673,-0.09757 1.146484,0.05664 0.750599,0.204212 1.377988,0.260079 1.900391,-0.03711 0.522403,-0.297188 0.732422,-0.912335 0.732422,-1.583984 0,-0.537816 -0.11592,-1.03117 -0.335938,-1.429688 -0.220017,-0.398517 -0.591398,-0.751953 -1.09375,-0.751953 -0.01557,0 -0.427018,-0.126039 -0.84375,-0.398437 C 61.989826,14.981205 61.51725,14.593495 61.113589,14.173525 60.072753,13.090655 60.042328,11.904917 60.59601,10.974306 61.149693,10.043695 62.335851,9.3716 63.937807,9.56415 Z m 5.742188,0.105469 6.742187,0.107421 6.78125,0.105469 0.277344,5.515625 c 0.08634,1.722203 0.0555,3.199438 -0.0625,4.214844 -0.04713,0.405519 -0.116356,0.667249 -0.18164,0.898437 -0.08567,-0.196728 -0.175421,-0.408248 -0.261719,-0.736328 C 82.751424,18.92543 82.56486,17.71421 82.482729,16.382504 82.371793,14.583826 82.19657,13.32026 81.873354,12.435238 c -0.161608,-0.44251 -0.363386,-0.800089 -0.65039,-1.0625 -0.287005,-0.26241 -0.666206,-0.402343 -1.042969,-0.402343 -0.377887,0 -0.759667,0.141471 -1.046875,0.40625 -0.287208,0.264778 -0.489088,0.62527 -0.650391,1.072265 -0.322606,0.893991 -0.497222,2.172701 -0.609375,4 -0.09786,1.594437 -0.310061,2.749654 -0.550781,3.4375 -0.12036,0.343924 -0.252282,0.567744 -0.333984,0.658204 -0.0817,0.09046 -0.0351,0.041 0,0.04883 0.0351,0.0078 -0.04918,-0.01839 -0.166016,-0.199219 -0.116837,-0.180832 -0.255021,-0.484401 -0.380859,-0.896485 -0.251677,-0.824166 -0.465424,-2.077256 -0.56836,-3.71875 -0.102044,-1.62738 -0.290603,-2.870701 -0.591797,-3.761718 -0.150596,-0.445509 -0.325903,-0.806776 -0.572265,-1.087891 -0.246362,-0.281115 -0.601772,-0.478516 -0.978516,-0.478515 -0.536698,0 -1.047047,0.199814 -1.447266,0.560546 -0.400218,0.360733 -0.699504,0.863499 -0.93164,1.486328 -0.464273,1.24566 -0.671875,2.998579 -0.671875,5.300782 0,0.939632 -0.111978,1.79386 -0.275391,2.375 -0.05539,0.196993 -0.114105,0.303132 -0.171875,0.423828 -0.09062,-0.255817 -0.187487,-0.619185 -0.267578,-1.107422 -0.174302,-1.062551 -0.285156,-2.569323 -0.285156,-4.232422 l 0,-5.58789 z m -27.578125,1 c -0.545504,0.01774 -1.04297,0.273743 -1.423828,0.65625 -0.761716,0.765012 -1.11469,2.062669 -0.632813,3.36914 0.192459,0.521796 0.498129,0.983908 0.857422,1.335938 0.359294,0.352029 0.775869,0.621093 1.277344,0.621093 0.564843,0 1.057986,-0.280256 1.410156,-0.669921 0.35217,-0.389666 0.589597,-0.888986 0.726563,-1.425782 0.273932,-1.073591 0.16589,-2.346299 -0.644532,-3.189453 -0.457848,-0.476337 -1.024808,-0.715002 -1.570312,-0.697265 z m -30.947266,0.21875 c -0.340779,-0.103284 -0.558796,0.03325 -0.75,0.152343 -0.382407,0.23818 -0.7544303,0.632035 -1.1425782,1.111328 -0.388147,0.479294 -0.77045,1.038185 -1.064453,1.583985 -0.294003,0.545799 -0.517578,1.05324 -0.517578,1.574218 0,0.28642 0.149315,0.528809 0.322266,0.691407 0.17295,0.162598 0.379937,0.274769 0.611328,0.367187 0.462782,0.184837 1.0379859,0.283203 1.6718752,0.283203 0.80666,0 1.433563,-0.0865 1.849609,-0.542968 0.208023,-0.228233 0.309307,-0.540461 0.3125,-0.841797 0.0032,-0.301337 -0.06979,-0.60386 -0.191406,-0.933594 -0.312823,-0.848111 -0.595184,-2.1591 -0.609375,-2.701172 -0.0034,-0.130442 -0.01935,-0.263617 -0.0918,-0.40625 -0.07245,-0.142633 -0.230001,-0.286249 -0.400391,-0.33789 z m 30.980469,0.78125 c 0.251138,-0.0082 0.516994,0.07912 0.816406,0.390624 0.469609,0.488576 0.603993,1.434785 0.396485,2.248047 -0.103754,0.406632 -0.28791,0.767282 -0.5,1.001953 -0.21209,0.234672 -0.422897,0.341797 -0.667969,0.341797 -0.08306,0 -0.334159,-0.0969 -0.578125,-0.335937 -0.243967,-0.239034 -0.478877,-0.591807 -0.617188,-0.966797 -0.351582,-0.953214 -0.06415,-1.847894 0.402344,-2.316406 0.233247,-0.234257 0.496909,-0.355116 0.748047,-0.363281 z m -31.394531,0.414063 c 0.08018,0.783464 0.271099,1.768605 0.576172,2.595703 0.09595,0.260141 0.132107,0.458342 0.130859,0.576172 -0.0012,0.11783 -0.01823,0.143969 -0.05078,0.179687 -0.06511,0.07144 -0.407488,0.216797 -1.111328,0.216797 -0.5249613,0 -1.0017342,-0.09072 -1.3027352,-0.210937 -0.148566,-0.05934 -0.248906,-0.127167 -0.291015,-0.166016 0.0087,-0.176802 0.137751,-0.602259 0.386718,-1.064453 0.2571109,-0.477312 0.6113759,-0.99804 0.9609382,-1.429687 0.273837,-0.33814 0.505332,-0.535469 0.701172,-0.697266 z"
       id="path4750-9"
       inkscape:connector-curvature="0" />
  </g>
  <g
     inkscape:groupmode="layer"
     id="layer8"
     inkscape:label="Layer 7">
    <path
       style="fill:#775683;fill-opacity:1;stroke:#775683;stroke-width:2.01959419;stroke-linecap:butt;stroke-linejoin:miter;stroke-miterlimit:4;stroke-dasharray:none;stroke-opacity:1"
       d="M 24.085233,202.39918 C 21.300971,202.0545 13.61066,201.72862 6.9956641,201.67499 -0.83456109,201.61154 -5.6917118,201.18898 -6.9232916,200.46416 -8.297,199.6557 -8.82759,172.09087 -8.8610397,99.795137 -8.9036867,7.677089 -8.6951929,0.125052 -6.0707241,-1.291399 -3.3366564,-2.766998 4.1450829,-2.822221 201.32047,-2.822221 c 177.19949,0 204.82803,0.160783 206.59778,1.202321 1.5746,0.926701 2.03502,24.099331 2.00837,101.084315 -0.0292,84.925465 -0.39152,100.056355 -2.41839,101.046335 -1.9907,0.97233 -19.69018,1.20692 -107.33232,1.42254 -57.72171,0.142 -105.39832,0.47788 -105.94803,0.74639 -0.54972,0.26849 -2.2285,0.19071 -3.73063,-0.17287 -3.00476,-0.72731 -154.747137,-0.66509 -158.818574,0.0651 -1.392131,0.24966 -4.80918,0.17192 -7.593443,-0.17275 z m 33.841044,-4.11848 172.493673,0 172.49372,0 0,-46.56687 c 0,-25.61177 -0.48533,-46.56687 -1.07855,-46.56687 0.56313,-16.575893 0.23481,-33.185344 0.23481,-49.77095 l 0,-48.435095 -6.27308,-2.807662 -6.27311,-2.807672 -187.44666,-0.01969 C 87.135356,1.293831 13.474439,1.588371 11.641892,2.067397 9.9982235,2.497058 6.632796,4.272717 4.1631893,6.013314 l -4.49021157,3.164718 -0.0329697,91.327338 -0.0331031,91.32736 3.52185137,2.19373 c 5.9734789,3.72086 9.4816627,4.1939 31.3335627,4.22502 l 20.501715,0.0292 c 407.287646,2.74796 411.534376,1.07569 2.962201,0 z"
       id="path4239"
       inkscape:connector-curvature="0"
       sodipodi:nodetypes="ccsssssssscsccccccscccccssscccsscc" />
  </g>
</svg>
