<?xml version="1.0" encoding="UTF-8" standalone="no"?>
<!-- Created with Inkscape (http://www.inkscape.org/) -->

<svg
   xmlns:dc="http://purl.org/dc/elements/1.1/"
   xmlns:cc="http://creativecommons.org/ns#"
   xmlns:rdf="http://www.w3.org/1999/02/22-rdf-syntax-ns#"
   xmlns:svg="http://www.w3.org/2000/svg"
   xmlns="http://www.w3.org/2000/svg"
   xmlns:sodipodi="http://sodipodi.sourceforge.net/DTD/sodipodi-0.dtd"
   xmlns:inkscape="http://www.inkscape.org/namespaces/inkscape"
   id="svg4205"
   version="1.1"
   inkscape:version="0.91 r13725"
   width="640"
   height="640"
   viewBox="0 0 640 640"
   sodipodi:docname="bgHelp.svg"
   inkscape:export-filename="/home/lionel/Documents/workspace/athg2sms/res/drawable/iconnew.png"
   inkscape:export-xdpi="127.85"
   inkscape:export-ydpi="127.85">
  <metadata
     id="metadata4211">
    <rdf:RDF>
      <cc:Work
         rdf:about="">
        <dc:format>image/svg+xml</dc:format>
        <dc:type
           rdf:resource="http://purl.org/dc/dcmitype/StillImage" />
        <dc:title></dc:title>
      </cc:Work>
    </rdf:RDF>
  </metadata>
  <defs
     id="defs4209">
    <filter
       y="-0.25"
       height="1.5"
       inkscape:menu-tooltip="Darkens the edge with an inner blur and adds a flexible glow"
       inkscape:menu="Shadows and Glows"
       inkscape:label="Dark And Glow"
       style="color-interpolation-filters:sRGB;"
       id="filter4196">
      <feGaussianBlur
         stdDeviation="5"
         result="result6"
         id="feGaussianBlur4198" />
      <feComposite
         result="result8"
         in="SourceGraphic"
         operator="atop"
         in2="result6"
         id="feComposite4200" />
      <feComposite
         result="result9"
         operator="over"
         in2="SourceAlpha"
         in="result8"
         id="feComposite4202" />
      <feColorMatrix
         values="1 0 0 0 0 0 1 0 0 0 0 0 1 0 0 0 0 0 1 0 "
         result="result10"
         id="feColorMatrix4204" />
      <feBlend
         in="result10"
         mode="normal"
         in2="result6"
         id="feBlend4206" />
    </filter>
  </defs>
  <sodipodi:namedview
     pagecolor="#ffffff"
     bordercolor="#666666"
     borderopacity="1"
     objecttolerance="10"
     gridtolerance="10"
     guidetolerance="10"
     inkscape:pageopacity="0"
     inkscape:pageshadow="2"
     inkscape:window-width="1920"
     inkscape:window-height="978"
     id="namedview4207"
     showgrid="false"
     inkscape:zoom="0.46829224"
     inkscape:cx="-359.26952"
     inkscape:cy="197.36214"
     inkscape:window-x="0"
     inkscape:window-y="65"
     inkscape:window-maximized="1"
     inkscape:current-layer="layer3" />
  <g
     inkscape:groupmode="layer"
     id="layer2"
     inkscape:label="Layer 1" />
  <g
     inkscape:groupmode="layer"
     id="layer3"
     inkscape:label="Layer 2"
     style="opacity:0.277">
    <path
       style="fill:#2172aa;fill-opacity:1;stroke:none;stroke-width:1px;stroke-linecap:butt;stroke-linejoin:miter;stroke-opacity:1"
       d="m 121.05026,609.95411 c 4.86942,-4.37802 18.4163,-20.2675 30.10418,-35.30993 11.68788,-15.04244 24.43831,-30.82573 28.3343,-35.07398 l 7.08362,-7.72411 3.16092,6.16131 c 1.73851,3.38871 7.24667,10.63174 12.24034,16.0956 10.48799,11.47555 19.17445,15.16582 38.54816,16.37651 6.82414,0.42644 34.53209,2.80097 61.57323,5.27677 27.04114,2.47577 66.46313,5.73456 87.60439,7.24177 21.14126,1.50719 48.89754,3.74477 61.68063,4.97241 35.48156,3.40755 58.55537,2.69877 71.26566,-2.18913 36.00935,-18.41177 29.3826,-38.30915 24.38404,-69.85691 0,-1.78727 -3.21814,-9.69871 -7.15139,-17.58103 -3.93325,-7.88231 -7.15139,-14.76647 -7.15139,-15.29817 0,-0.53169 -11.36853,-24.36299 -25.26342,-52.95845 -16.50327,-33.96347 -24.65572,-52.59943 -23.51084,-53.74431 0.96391,-0.96391 13.74038,-4.84788 28.39215,-8.63108 35.46235,-9.1566 70.31978,-19.04944 104.85778,-29.75958 2.96141,-0.91832 3.12872,6.54097 3.12872,139.49607 l 0,140.46629 -254.06728,0 -254.06729,0 z"
       id="path4225"
       inkscape:connector-curvature="0"
       sodipodi:nodetypes="ssscssssssccssssssscccs" />
    <path
       style="fill:#000000;fill-opacity:1;stroke:#000000;stroke-width:15.15477562;stroke-linecap:butt;stroke-linejoin:miter;stroke-miterlimit:4;stroke-dasharray:none;stroke-opacity:1"
       d="m 329.09794,442.65816 c -35.09151,-13.61527 -101.00153,-41.35641 -114.76168,-48.3025 -11.89128,-6.00269 -13.97768,-9.88171 -4.48666,-8.34153 8.14485,1.32173 47.38264,16.88552 92.24541,36.58939 43.86113,19.26397 49.30167,21.16875 52.61323,18.42041 2.99568,-2.4862 6.45277,-12.06643 22.29618,-61.78704 6.89332,-21.6329 13.66013,-40.87122 15.03737,-42.75179 1.4654,-2.00095 3.65592,-2.9772 5.28101,-2.35361 3.66236,1.40539 2.70725,5.60437 -13.30969,58.51424 -14.81119,48.92674 -19.5371,60.80713 -24.16173,60.73958 -1.77491,-0.026 -15.61395,-4.85312 -30.75344,-10.72715 z"
       id="path4229"
       inkscape:connector-curvature="0" />
    <path
       style="fill:#eb7e21;fill-opacity:1;stroke:#eb7e21;stroke-width:8.65987206;stroke-linecap:butt;stroke-linejoin:miter;stroke-miterlimit:4;stroke-dasharray:none;stroke-opacity:0"
       d="M 258.83718,267.72344 C 241.49381,261.66159 146.59571,215.14273 89.215418,184.5752 66.833589,172.65199 56.218275,166.38371 55.206477,164.49313 c -1.981595,-3.70263 3.13994,-13.41908 8.831208,-16.7544 4.039527,-2.36731 4.474664,-2.33005 10.328846,0.88456 9.456082,5.19246 42.468879,21.94611 88.597479,44.96229 54.70931,27.29759 82.0516,40.4381 87.60305,42.10136 l 1.92628,0.57711 1.83105,-2.02836 c 3.16102,-3.50173 7.37108,-12.83436 15.0801,-33.42875 9.13346,-24.39977 17.7596,-49.29394 21.08315,-60.84387 1.26961,-4.41203 1.82139,-5.60023 3.79879,-8.18014 7.66974,-10.00672 26.25705,-46.876642 32.23862,-63.948757 0.76872,-2.194 1.52013,-5.160699 1.6698,-6.592673 0.23342,-2.233252 0.40612,-2.613182 1.21411,-2.670986 4.28069,-0.3063 7.51266,1.589671 12.05929,7.074357 1.33665,1.612403 1.60014,3.866979 0.86728,7.420623 -2.49751,12.110225 -55.05215,153.612666 -68.39666,184.156766 -2.84055,6.50173 -4.62236,8.5285 -8.90701,10.1316 -2.66009,0.99525 -4.1502,1.08417 -6.19468,0.36958 z"
       id="path4233"
       inkscape:connector-curvature="0" />
    <path
       style="fill:#000000;fill-opacity:1;stroke:#000000;stroke-width:19.56552505;stroke-linecap:butt;stroke-linejoin:miter;stroke-miterlimit:4;stroke-dasharray:none;stroke-opacity:1"
       d="m 439.25032,599.92052 c -69.52779,-11.45389 -200.1173,-34.79127 -227.38067,-40.63467 -23.56053,-5.04981 -27.69436,-8.31307 -8.88954,-7.0174 16.13763,1.11193 93.88064,14.20503 182.76851,30.78102 86.90335,16.20587 97.68286,17.80831 104.24414,15.49623 5.93541,-2.09151 12.78504,-10.15095 44.17604,-51.9786 13.65794,-18.19879 26.61828,-17.3986 29.34705,-18.98065 2.90344,-1.6833 -7.50614,2.85897 -4.28631,3.38357 7.25632,1.18231 20.56061,-17.63339 -11.17418,26.8773 -29.34584,41.15987 -38.70943,51.15429 -47.8724,51.09746 -3.51665,-0.0221 -30.93633,-4.08272 -60.93264,-9.02426 z"
       id="path4229-6"
       inkscape:connector-curvature="0"
       sodipodi:nodetypes="ssssssssscs" />
  </g>
</svg>
