<?xml version="1.0" encoding="UTF-8" standalone="no"?>
<!-- Created with Inkscape (http://www.inkscape.org/) -->

<svg
   xmlns:dc="http://purl.org/dc/elements/1.1/"
   xmlns:cc="http://creativecommons.org/ns#"
   xmlns:rdf="http://www.w3.org/1999/02/22-rdf-syntax-ns#"
   xmlns:svg="http://www.w3.org/2000/svg"
   xmlns="http://www.w3.org/2000/svg"
   xmlns:sodipodi="http://sodipodi.sourceforge.net/DTD/sodipodi-0.dtd"
   xmlns:inkscape="http://www.inkscape.org/namespaces/inkscape"
   id="svg4205"
   version="1.1"
   inkscape:version="0.91 r13725"
   width="640"
   height="640"
   viewBox="0 0 640 640"
   sodipodi:docname="bgSettings.svg"
   inkscape:export-filename="/home/lionel/Documents/workspace/athg2sms/res/drawable/iconnew.png"
   inkscape:export-xdpi="127.85"
   inkscape:export-ydpi="127.85">
  <metadata
     id="metadata4211">
    <rdf:RDF>
      <cc:Work
         rdf:about="">
        <dc:format>image/svg+xml</dc:format>
        <dc:type
           rdf:resource="http://purl.org/dc/dcmitype/StillImage" />
        <dc:title></dc:title>
      </cc:Work>
    </rdf:RDF>
  </metadata>
  <defs
     id="defs4209">
    <filter
       y="-0.25"
       height="1.5"
       inkscape:menu-tooltip="Darkens the edge with an inner blur and adds a flexible glow"
       inkscape:menu="Shadows and Glows"
       inkscape:label="Dark And Glow"
       style="color-interpolation-filters:sRGB;"
       id="filter4196">
      <feGaussianBlur
         stdDeviation="5"
         result="result6"
         id="feGaussianBlur4198" />
      <feComposite
         result="result8"
         in="SourceGraphic"
         operator="atop"
         in2="result6"
         id="feComposite4200" />
      <feComposite
         result="result9"
         operator="over"
         in2="SourceAlpha"
         in="result8"
         id="feComposite4202" />
      <feColorMatrix
         values="1 0 0 0 0 0 1 0 0 0 0 0 1 0 0 0 0 0 1 0 "
         result="result10"
         id="feColorMatrix4204" />
      <feBlend
         in="result10"
         mode="normal"
         in2="result6"
         id="feBlend4206" />
    </filter>
  </defs>
  <sodipodi:namedview
     pagecolor="#ffffff"
     bordercolor="#666666"
     borderopacity="1"
     objecttolerance="10"
     gridtolerance="10"
     guidetolerance="10"
     inkscape:pageopacity="0"
     inkscape:pageshadow="2"
     inkscape:window-width="1340"
     inkscape:window-height="615"
     id="namedview4207"
     showgrid="false"
     inkscape:zoom="0.60546875"
     inkscape:cx="389.1782"
     inkscape:cy="312.02939"
     inkscape:window-x="513"
     inkscape:window-y="163"
     inkscape:window-maximized="0"
     inkscape:current-layer="layer3" />
  <g
     inkscape:groupmode="layer"
     id="layer2"
     inkscape:label="Layer 1">
    <g
       style=""
       id="g4281"
       inkscape:export-filename="/home/lionel/Documents/workspace/athg2sms/res/drawable/g4281.png"
       inkscape:export-xdpi="127"
       inkscape:export-ydpi="127">
      <rect
         y="12.387098"
         x="14.864527"
         height="609.44513"
         width="612.74841"
         id="rect4270"
         style="opacity:1;fill:#ffffff;fill-opacity:1;stroke:#eb7e21;stroke-width:4;stroke-linecap:round;stroke-linejoin:bevel;stroke-miterlimit:4;stroke-dasharray:none;stroke-opacity:0" />
    </g>
  </g>
  <g
     inkscape:groupmode="layer"
     id="layer3"
     inkscape:label="Layer 2">
    <g
       style=""
       id="g4254"
       transform="matrix(2.164968,0,0,2.164968,-346.71377,-370.22753)">
      <path
         sodipodi:nodetypes="ssscccccccccssscccccccsssssssscccsssssscsssscssssssscssscscsscccsssssscscssssssscssssssssssssss"
         inkscape:connector-curvature="0"
         id="path4237"
         d="m 172.94597,451.3925 c -3.40068,-4.32326 -3.44262,-5.54793 -3.3751,-98.56659 0.0679,-93.48657 0.0949,-94.2329 3.63045,-100.08685 l 3.56208,-5.89793 -3.61008,3.14631 -3.61008,3.1463 0,-31.28611 0,-31.28611 4.54193,-5.37677 4.54194,-5.37678 25.33949,0.48433 25.33949,0.48432 -3.5755,4.54193 c -1.96652,2.49807 -2.91809,4.54194 -2.1146,4.54194 0.80349,0 3.10936,-2.22968 5.12416,-4.95484 l 3.66327,-4.95484 102.86736,0 102.86736,0 4.43803,4.63231 4.43803,4.63231 0,66.42793 0,66.42792 -4.11613,1.56495 c -5.52582,2.10091 -58.06924,16.52103 -60.19863,16.52103 -0.92543,0 -3.26907,-3.15871 -5.20806,-7.01935 -12.63545,-25.15791 -28.39995,-29.88696 -64.42402,-19.32597 -66.51971,19.50122 -71.32466,21.37477 -74.19755,28.93102 -1.81268,4.76771 -1.89713,20.50914 -0.17662,32.92398 1.06247,7.66657 0.75636,8.74344 -4.27372,15.03462 -7.12536,8.91175 -6.97409,11.63695 0.17673,3.18384 l 5.54576,-6.55573 2.0175,11.96108 2.01749,11.96108 -13.64173,16.89143 c -23.80684,29.47803 -21.20041,27.62691 -38.89933,27.62691 -14.52661,0 -15.40903,-0.20669 -18.68992,-4.37767 z m 37.88759,-28.84953 c 0,-0.90839 -0.74323,-1.19228 -1.65161,-0.63087 -0.90839,0.56142 -1.65162,1.76397 -1.65162,2.67236 0,0.90839 0.74323,1.19228 1.65162,0.63087 0.90838,-0.56142 1.65161,-1.76397 1.65161,-2.67236 z m 4.95484,-6.60645 c 0,-0.90839 -0.74323,-1.19229 -1.65161,-0.63087 -0.90839,0.56142 -1.65162,1.76397 -1.65162,2.67236 0,0.90839 0.74323,1.19228 1.65162,0.63087 0.90838,-0.56142 1.65161,-1.76398 1.65161,-2.67236 z m 6.60645,-8.46759 c 0,-0.92132 -1.09545,-0.74247 -2.47742,0.40446 -1.36258,1.13085 -2.47742,2.79931 -2.47742,3.70769 0,0.92132 1.09545,0.74247 2.47742,-0.40446 1.36258,-1.13084 2.47742,-2.7993 2.47742,-3.70769 z m 4.95484,-4.74532 c 0,-0.90838 -0.74323,-1.19228 -1.65161,-0.63086 -0.90839,0.56141 -1.65162,1.76397 -1.65162,2.67236 0,0.90838 0.74323,1.19228 1.65162,0.63086 0.90838,-0.56141 1.65161,-1.76397 1.65161,-2.67236 z m -42.10656,-36.65267 c 5.80851,-7.37896 10.22644,-13.75079 9.81762,-14.15961 -0.40883,-0.40882 -0.97794,-0.43363 -1.26471,-0.0552 -0.28676,0.3785 -4.98378,6.26237 -10.43782,13.07527 -11.24942,14.0522 -13.6808,17.64891 -10.67488,15.79114 1.09938,-0.67946 6.75128,-7.2727 12.55979,-14.65166 l 0,2e-5 z m 15.68075,-19.50216 c 0,-0.90839 -0.74322,-1.19229 -1.65161,-0.63087 -0.90839,0.56142 -1.65161,1.76397 -1.65161,2.67236 0,0.90839 0.74322,1.19228 1.65161,0.63086 0.90839,-0.56141 1.65161,-1.76397 1.65161,-2.67235 z m 116.43871,-53.84253 c 54.56734,-66.49154 88.35536,-108.66721 88.3019,-110.22223 -0.073,-2.12207 2.96701,-5.73475 -56.89233,67.61011 -53.05238,65.00437 -54.59176,66.96197 -52.56129,66.8415 0.7328,-0.0435 10.25108,-10.94669 21.15172,-24.22938 z m -29.13294,2.24608 c 1.91993,-2.36653 31.5086,-82.71914 32.75505,-88.9514 1.15616,-5.7808 -1.86478,-9.55399 -7.64924,-9.55399 -3.42874,0 -1.12575,-1.04279 -3.83685,3.78094 -3.40533,6.05898 -27.66577,60.52855 -29.84405,68.89003 -2.39258,9.18406 -1.86981,9.32019 -44.17348,-11.50269 -22.18581,-10.92038 -42.23307,-19.86036 -44.54946,-19.8666 -2.31638,-0.006 -5.10348,0.88051 -6.19354,1.97058 -1.09007,1.09006 -1.98194,1.37067 -1.98194,0.62357 0,-0.74709 -1.11484,-0.43312 -2.47742,0.69772 -1.36258,1.13084 -2.47742,2.85694 -2.47742,3.83578 0,1.16516 0.68049,1.09921 1.97068,-0.19098 1.5265,-1.5265 2.40569,-0.93611 3.90064,2.61934 1.55303,3.69357 7.75657,7.56945 31.76395,19.84561 41.20331,21.06928 64.44028,31.4723 68.13864,30.50516 1.71838,-0.44937 3.81288,-1.66575 4.65444,-2.70307 z m -68.31222,-100.157 c 0.56142,-0.90839 0.23366,-1.65161 -0.72833,-1.65161 -0.962,0 -1.74909,0.74322 -1.74909,1.65161 0,0.90839 0.32775,1.65161 0.72833,1.65161 0.40059,0 1.18768,-0.74322 1.74909,-1.65161 z"
         style="fill:#5a97a9;fill-opacity:1;stroke:none;stroke-width:1px;stroke-linecap:butt;stroke-linejoin:miter;stroke-opacity:1;filter:url(#filter4196)" />
      <g
         id="g4246">
        <rect
           style="opacity:1;fill:none;fill-opacity:1;stroke:#000000;stroke-width:6.26499987;stroke-linecap:round;stroke-linejoin:bevel;stroke-miterlimit:0;stroke-dasharray:none;stroke-opacity:1"
           id="rect4219"
           width="284.3132"
           height="284.31317"
           x="165.8692"
           y="175.7789" />
        <path
           style="fill:#2172aa;fill-opacity:1;stroke:none;stroke-width:1px;stroke-linecap:butt;stroke-linejoin:miter;stroke-opacity:1"
           d="m 216.06048,452.74648 c 2.24919,-2.02221 8.5065,-9.36157 13.90514,-16.30968 5.39864,-6.94811 11.28807,-14.23842 13.08763,-16.20069 l 3.27193,-3.56777 1.46003,2.84591 c 0.80302,1.56525 3.34724,4.91081 5.65382,7.43457 4.84441,5.30056 8.85669,7.0051 17.80542,7.56432 3.15207,0.19697 15.95039,1.29377 28.44071,2.43734 12.49032,1.14356 30.69936,2.6488 40.46452,3.34498 9.76516,0.69617 22.5858,1.72971 28.49032,2.29676 16.38895,1.57395 27.04676,1.24656 32.91765,-1.01116 16.63274,-8.50441 13.57184,-17.69502 11.263,-32.26695 0,-0.82554 -1.48646,-4.47984 -3.30323,-8.12069 -1.81677,-3.64084 -3.30323,-6.82064 -3.30323,-7.06623 0,-0.24559 -5.25113,-11.25328 -11.66919,-24.46154 -7.62287,-15.68775 -11.38849,-24.29571 -10.85967,-24.82453 0.44523,-0.44523 6.34669,-2.23924 13.11435,-3.9867 16.38008,-4.22944 32.48075,-8.79895 48.43387,-13.74597 1.36788,-0.42417 1.44516,3.02128 1.44516,64.43332 l 0,64.88146 -117.35383,0 -117.35383,0 z"
           id="path4225"
           inkscape:connector-curvature="0"
           sodipodi:nodetypes="ssscssssssccssssssscccs" />
        <path
           style="fill:#000000;fill-opacity:1;stroke:#000000;stroke-width:7;stroke-linecap:butt;stroke-linejoin:miter;stroke-miterlimit:4;stroke-dasharray:none;stroke-opacity:1"
           d="m 312.15783,375.47238 c -16.20879,-6.2889 -46.65267,-19.10255 -53.00849,-22.31095 -5.49259,-2.77265 -6.4563,-4.56437 -2.07239,-3.85296 3.76211,0.61051 21.88607,7.79943 42.60821,16.90066 20.25948,8.89804 22.77247,9.77786 24.30208,8.5084 1.38371,-1.14838 2.98054,-5.57349 10.29862,-28.53947 3.18403,-9.99225 6.30962,-18.87844 6.94577,-19.74708 0.67687,-0.92424 1.68867,-1.37517 2.4393,-1.08713 1.69165,0.64915 1.25048,2.58866 -6.14775,27.02776 -6.8413,22.59929 -9.0242,28.08685 -11.16032,28.05565 -0.81983,-0.012 -7.21209,-2.24166 -14.20503,-4.95488 z"
           id="path4229"
           inkscape:connector-curvature="0" />
        <path
           style="fill:#eb7e21;fill-opacity:1;stroke:#eb7e21;stroke-width:4;stroke-linecap:butt;stroke-linejoin:miter;stroke-miterlimit:4;stroke-dasharray:none;stroke-opacity:0"
           d="m 279.70434,294.66993 c -8.01091,-2.79997 -51.8444,-24.28706 -78.34839,-38.40622 -10.33818,-5.50734 -15.2414,-8.40266 -15.70875,-9.27592 -0.9153,-1.71025 1.45034,-6.19828 4.07914,-7.73887 1.86586,-1.09346 2.06685,-1.07625 4.7709,0.40858 4.36777,2.3984 19.6164,10.13692 40.92323,20.76811 25.27026,12.60877 37.89968,18.67838 40.4639,19.44664 l 0.88975,0.26657 0.84576,-0.9369 c 1.46008,-1.61745 3.40471,-5.9282 6.96551,-15.44076 4.21875,-11.27027 8.20317,-22.7689 9.73832,-28.10382 0.58643,-2.03792 0.8413,-2.58675 1.75466,-3.77841 3.54266,-4.62211 12.12815,-21.65235 14.89104,-29.53797 0.35507,-1.01341 0.70215,-2.38373 0.77128,-3.04516 0.10782,-1.03154 0.18759,-1.20703 0.5608,-1.23373 1.97725,-0.14148 3.4701,0.73427 5.57019,3.26765 0.6174,0.74477 0.73911,1.78616 0.4006,3.42759 -1.1536,5.59372 -25.42862,70.95378 -31.59246,85.06212 -1.31205,3.00315 -2.13507,3.93932 -4.11415,4.67979 -1.2287,0.45971 -1.91698,0.50078 -2.86133,0.17071 z"
           id="path4233"
           inkscape:connector-curvature="0" />
        <path
           style="fill:#775683;fill-opacity:1;stroke:#775683;stroke-width:2;stroke-linecap:butt;stroke-linejoin:miter;stroke-miterlimit:4;stroke-dasharray:none;stroke-opacity:1"
           d="m 185.76389,463.46221 c -1.92698,-0.48841 -7.24942,-0.95018 -11.82764,-1.02618 -5.41928,-0.0899 -8.7809,-0.68867 -9.63327,-1.71571 -0.95074,-1.14558 -1.31796,-40.20448 -1.34111,-142.64632 -0.0295,-130.52973 0.11478,-141.23084 1.93117,-143.23793 1.89224,-2.0909 7.07033,-2.16915 143.53485,-2.16915 122.63926,0 141.76089,0.22783 142.98573,1.70367 1.08978,1.31312 1.40843,34.14835 1.38999,143.23478 -0.0203,120.33797 -0.27097,141.77818 -1.67376,143.18097 -1.37777,1.37777 -13.62752,1.71017 -74.2844,2.01571 -39.94902,0.20122 -72.94587,0.67715 -73.32632,1.05762 -0.38046,0.38045 -1.54235,0.27022 -2.58196,-0.24497 -2.07958,-1.03057 -107.10005,-0.9424 -109.91788,0.0923 -0.96349,0.35377 -3.32842,0.24363 -5.2554,-0.24477 z m 23.42129,-5.83582 119.38238,0 119.3824,0 0,-65.98447 c 0,-36.29146 -0.3359,-65.98447 -0.74646,-65.98447 0.38974,-23.48777 0.16252,-47.02308 0.16252,-70.52461 l 0,-68.63172 -4.34159,-3.97841 -4.3416,-3.97842 -129.7313,-0.0279 c -79.55083,-0.0171 -130.53134,0.40027 -131.79964,1.07904 -1.13758,0.60882 -3.46678,3.1249 -5.17599,5.5913 l -3.10766,4.48435 -0.0228,129.40931 -0.0229,129.40931 2.43746,3.10851 c 4.13423,5.27238 6.56223,5.94268 21.68587,5.98678 l 14.18918,0.0414 c 281.88261,3.89383 284.82176,1.52425 2.05013,0 z"
           id="path4239"
           inkscape:connector-curvature="0"
           sodipodi:nodetypes="ccsssssssscsccccccscccccssscccsscc" />
        <path
           style="fill:#000000;fill-opacity:1;stroke:#000000;stroke-width:9.03732777;stroke-linecap:butt;stroke-linejoin:miter;stroke-miterlimit:4;stroke-dasharray:none;stroke-opacity:1"
           d="m 363.03728,448.11196 c -32.11493,-5.29056 -92.4343,-16.07011 -105.02727,-18.76918 -10.88262,-2.33251 -12.79204,-3.83981 -4.10608,-3.24134 7.45398,0.5136 43.36352,6.56131 84.42088,14.21777 40.14071,7.4855 45.11977,8.22567 48.15043,7.15772 2.74157,-0.96607 5.90542,-4.68873 20.40494,-24.00895 6.30861,-8.40603 12.295,-8.03642 13.55542,-8.76717 1.3411,-0.77752 -3.46709,1.32056 -1.97985,1.56287 3.3517,0.54611 9.49696,-8.14487 -5.16136,12.41464 -13.55486,19.01177 -17.87991,23.6282 -22.11229,23.60195 -1.62434,-0.0102 -14.28951,-1.88581 -28.14482,-4.16831 z"
           id="path4229-6"
           inkscape:connector-curvature="0"
           sodipodi:nodetypes="ssssssssscs" />
      </g>
    </g>
  </g>
</svg>
