<?xml version="1.0" encoding="UTF-8" standalone="no"?>
<!-- Created with Inkscape (http://www.inkscape.org/) -->

<svg
   xmlns:dc="http://purl.org/dc/elements/1.1/"
   xmlns:cc="http://creativecommons.org/ns#"
   xmlns:rdf="http://www.w3.org/1999/02/22-rdf-syntax-ns#"
   xmlns:svg="http://www.w3.org/2000/svg"
   xmlns="http://www.w3.org/2000/svg"
   xmlns:sodipodi="http://sodipodi.sourceforge.net/DTD/sodipodi-0.dtd"
   xmlns:inkscape="http://www.inkscape.org/namespaces/inkscape"
   id="svg4277"
   version="1.1"
   inkscape:version="0.91 r13725"
   width="325"
   height="325"
   viewBox="0 0 325 325"
   sodipodi:docname="iconko.svg"
   inkscape:export-filename="/home/lionel/Documents/workspace/athg2sms/res/drawable/iconko.png"
   inkscape:export-xdpi="127"
   inkscape:export-ydpi="127">
  <metadata
     id="metadata4283">
    <rdf:RDF>
      <cc:Work
         rdf:about="">
        <dc:format>image/svg+xml</dc:format>
        <dc:type
           rdf:resource="http://purl.org/dc/dcmitype/StillImage" />
        <dc:title></dc:title>
      </cc:Work>
    </rdf:RDF>
  </metadata>
  <defs
     id="defs4281">
    <filter
       y="-0.25"
       height="1.5"
       inkscape:menu-tooltip="Darkens the edge with an inner blur and adds a flexible glow"
       inkscape:menu="Shadows and Glows"
       inkscape:label="Dark And Glow"
       style="color-interpolation-filters:sRGB;"
       id="filter5152">
      <feGaussianBlur
         stdDeviation="5"
         result="result6"
         id="feGaussianBlur5154" />
      <feComposite
         result="result8"
         in="SourceGraphic"
         operator="atop"
         in2="result6"
         id="feComposite5156" />
      <feComposite
         result="result9"
         operator="over"
         in2="SourceAlpha"
         in="result8"
         id="feComposite5158" />
      <feColorMatrix
         values="1 0 0 0 0 0 1 0 0 0 0 0 1 0 0 0 0 0 1 0 "
         result="result10"
         id="feColorMatrix5160" />
      <feBlend
         in="result10"
         mode="normal"
         in2="result6"
         id="feBlend5162" />
    </filter>
    <filter
       y="-0.25"
       height="1.5"
       inkscape:menu-tooltip="Darkens the edge with an inner blur and adds a flexible glow"
       inkscape:menu="Shadows and Glows"
       inkscape:label="Dark And Glow"
       style="color-interpolation-filters:sRGB;"
       id="filter5164">
      <feGaussianBlur
         stdDeviation="5"
         result="result6"
         id="feGaussianBlur5166" />
      <feComposite
         result="result8"
         in="SourceGraphic"
         operator="atop"
         in2="result6"
         id="feComposite5168" />
      <feComposite
         result="result9"
         operator="over"
         in2="SourceAlpha"
         in="result8"
         id="feComposite5170" />
      <feColorMatrix
         values="1 0 0 0 0 0 1 0 0 0 0 0 1 0 0 0 0 0 1 0 "
         result="result10"
         id="feColorMatrix5172" />
      <feBlend
         in="result10"
         mode="normal"
         in2="result6"
         id="feBlend5174" />
    </filter>
    <filter
       y="-0.25"
       height="1.5"
       inkscape:menu-tooltip="Darkens the edge with an inner blur and adds a flexible glow"
       inkscape:menu="Shadows and Glows"
       inkscape:label="Dark And Glow"
       style="color-interpolation-filters:sRGB;"
       id="filter5242">
      <feGaussianBlur
         stdDeviation="5"
         result="result6"
         id="feGaussianBlur5244" />
      <feComposite
         result="result8"
         in="SourceGraphic"
         operator="atop"
         in2="result6"
         id="feComposite5246" />
      <feComposite
         result="result9"
         operator="over"
         in2="SourceAlpha"
         in="result8"
         id="feComposite5248" />
      <feColorMatrix
         values="1 0 0 0 0 0 1 0 0 0 0 0 1 0 0 0 0 0 1 0 "
         result="result10"
         id="feColorMatrix5250" />
      <feBlend
         in="result10"
         mode="normal"
         in2="result6"
         id="feBlend5252" />
    </filter>
  </defs>
  <sodipodi:namedview
     pagecolor="#ffffff"
     bordercolor="#666666"
     borderopacity="1"
     objecttolerance="10"
     gridtolerance="10"
     guidetolerance="10"
     inkscape:pageopacity="0"
     inkscape:pageshadow="2"
     inkscape:window-width="1825"
     inkscape:window-height="827"
     id="namedview4279"
     showgrid="false"
     inkscape:zoom="0.66281255"
     inkscape:cx="141.36569"
     inkscape:cy="330.053"
     inkscape:window-x="30"
     inkscape:window-y="277"
     inkscape:window-maximized="0"
     inkscape:current-layer="svg4277" />
  <path
     inkscape:connector-curvature="0"
     id="path4321"
     d="m 2.1336563,161.43318 0,-162.5000037 162.5000037,0 162.5,0 0,162.5000037 0,162.5 -162.5,0 -162.5000037,0 0,-162.5 z"
     style="fill:#f5f3f2;filter:url(#filter5164)" />
  <path
     inkscape:connector-curvature="0"
     id="path4319"
     d="M 35.450696,312.64236 C 23.308942,310.56515 14.241511,301.25933 12.212619,288.79334 11.573779,284.86817 11.563639,253.51642 12.1886,214.5293 12.783456,177.42018 13.669638,120.67462 14.157893,88.42804 L 15.04563,29.797903 18.277142,23.42804 C 20.92375,18.211126 22.737043,16.435986 28.2953,13.620676 l 6.786643,-3.4375 54.463357,-0.06099 c 29.95485,-0.03354 86.52586,-0.5399007 125.71336,-1.1252407 41.26301,-0.6163424 74.14349,-0.5972816 78.125,0.04529 8.63171,1.3930567 15.88294,6.3588557 20,13.6964437 l 3.125,5.569494 0.96369,71.875003 c 0.53002,39.53125 0.81127,98.59375 0.625,131.25 -0.36869,64.63462 -0.22081,63.24624 -7.67844,72.09011 -1.83897,2.18082 -6.00234,5.27456 -9.25193,6.875 l -5.90832,2.90989 -126.875,0.18529 c -69.781254,0.1019 -129.601085,-0.2811 -132.932964,-0.85111 z M 245.32674,213.8114 c 6.33118,-6.33727 5.70441,-10.07523 -6.68683,-39.87822 -14.02989,-33.74426 -31.07041,-71.15007 -33.79805,-74.190474 -2.9577,-3.296826 -8.25713,-5.804952 -12.33362,-5.837295 -1.92477,-0.01528 -12.44539,1.507736 -23.37915,3.38446 l -19.87958,3.412229 -3.5242,5.55709 c -1.93831,3.0564 -4.14674,7.4434 -4.90762,9.74888 -1.30052,3.94062 -1.07301,4.58165 3.79715,10.69831 4.90572,6.16132 5.13693,6.82374 4.35816,12.48612 l -0.82241,5.97962 5.94762,2.54945 c 3.27119,1.40218 6.38689,2.10781 6.92378,1.56802 0.53688,-0.53977 4.16638,-11.38766 8.06556,-24.10641 3.89919,-12.71875 7.6548,-23.82812 8.34582,-24.6875 2.07748,-2.583624 8.09278,-1.870527 10.25442,1.21563 1.07022,1.52798 1.94587,3.60209 1.94587,4.60915 0,3.44617 -16.47734,55.73484 -18.09541,57.42344 -1.88645,1.96868 -5.90441,2.30327 -11.55501,0.96225 -3.65732,-0.86796 -4.25702,-0.57547 -6.55783,3.19835 -1.39282,2.28453 -2.53451,4.47137 -2.53707,4.85967 -0.002,0.38829 1.96407,1.64481 4.37032,2.79227 4.70431,2.24333 5.51784,5.20812 3.14301,11.45436 -0.93932,2.47062 -0.64253,4.79124 1.24938,9.76888 1.36474,3.59068 2.48164,8.63788 2.48199,11.216 3.3e-4,2.57813 0.4225,4.72081 0.93812,4.76153 0.51563,0.0408 12.46875,1.12182 26.5625,2.40245 14.09375,1.28062 31.6605,2.23168 39.03721,2.11347 12.63545,-0.2025 13.60007,-0.40299 16.65587,-3.46172 z m -98.69131,-6.98941 c 0.68482,-3.65036 0.21399,-5.79916 -2.2596,-10.3125 -3.04682,-5.55926 -3.07601,-5.85266 -1.17142,-11.77581 l 1.95326,-6.0745 -3.38701,-2.46725 c -3.93691,-2.86785 -4.19451,-4.88101 -1.26017,-9.84845 3.60569,-6.10395 1.30978,-9.66549 -9.00183,-13.96416 -40.072793,-16.70543 -43.125004,-18.3241 -43.125004,-22.87034 0,-2.67729 3.689464,-5.5758 7.097335,-5.5758 1.742821,0 11.869229,3.7628 22.503119,8.36177 15.94797,6.89723 19.53374,8.04663 20.4728,6.5625 2.14642,-3.3923 1.16931,-5.65108 -4.49146,-10.38291 l -5.66822,-4.73803 0.84685,-9.34532 0.84686,-9.34531 -3.61614,0.87152 c -15.71139,3.78659 -38.554954,10.59768 -41.069783,12.24546 -5.481645,3.59171 -6.273535,9.64247 -3.807991,29.09652 3.230253,25.4879 8.612841,48.54834 12.530725,53.68494 1.764139,2.31291 4.377552,4.83146 5.807587,5.5968 1.430032,0.76532 10.829052,2.10892 20.886692,2.98576 27.32075,2.38186 24.91197,2.63329 25.9134,-2.70489 z M 22.531632,190.56592 c -0.410927,-2.99805 -1.231079,-5.75008 -1.822559,-6.11564 -1.275052,-0.78802 -1.458218,13.28086 -0.215083,16.52043 1.410558,3.67586 2.9148,-4.00523 2.037642,-10.40479 z M 308.78176,42.058176 l -0.85865,-3.75 -0.93697,5 c -0.51534,2.75 -0.60151,6.125 -0.19147,7.5 0.64497,2.162864 0.88712,1.994295 1.79563,-1.25 0.57756,-2.0625 0.66372,-5.4375 0.19146,-7.5 z"
     style="fill:#f7d3ac" />
  <path
     inkscape:connector-curvature="0"
     id="path4317"
     d="m 33.088712,310.20012 c -6.481842,-1.97367 -12.236435,-6.50026 -15.653616,-12.31323 -3.211802,-5.46358 -3.453756,-6.91561 -3.862514,-23.1799 -0.418339,-16.64552 1.495844,-50.94488 3.072429,-55.0534 1.275189,-3.32308 2.831656,-2.20338 3.751281,2.69864 1.100183,5.86447 2.122425,3.62001 4.221435,-9.26873 l 1.461583,-8.97468 7.491761,-4.46282 c 4.120469,-2.45456 7.715039,-4.46282 7.987931,-4.46282 0.272894,0 9.027363,-4.531 19.454378,-10.0689 10.427015,-5.53789 19.619644,-9.81507 20.428065,-9.50486 0.808421,0.31022 2.699968,5.16006 4.20344,10.77741 3.510017,13.11432 8.448271,20.43382 15.536245,23.02785 5.01457,1.83522 47.73947,5.79785 50.95512,4.72597 0.82177,-0.27392 0.32971,-1.23988 -1.1649,-2.28675 -1.93605,-1.35606 -2.58769,-3.16867 -2.58769,-7.19803 0,-3.4928 -0.87863,-6.50253 -2.5,-8.56378 -3.00591,-3.8214 -3.07135,-5.2252 -0.57363,-12.30452 l 1.92638,-5.45993 -4.02199,-3.28259 -4.02199,-3.28258 2.79233,-4.73264 c 5.06557,-8.58551 3.7278,-9.74959 -24.99871,-21.75286 -19.298983,-8.06402 -25.386284,-11.14792 -26.401069,-13.37513 -1.709302,-3.75151 0.591519,-6.71866 5.209857,-6.71866 1.845289,0 12.523192,3.93334 23.728682,8.74075 13.60915,5.83865 21.31096,8.50549 23.1968,8.03217 2.05263,-0.51517 2.98598,-0.0861 3.41956,1.57188 0.58297,2.22924 14.19409,8.87155 15.50104,7.5646 0.34743,-0.34743 3.91341,-11.15894 7.9244,-24.02559 4.011,-12.86665 8.18965,-24.29083 9.28589,-25.38707 2.89395,-2.893958 8.78041,-0.65439 9.27299,3.528 0.55925,4.74845 -15.50144,56.52171 -18.14129,58.48027 -1.40148,1.03979 -3.61143,1.34136 -5.97425,0.81528 -2.0625,-0.45923 -4.93835,-1.10745 -6.39078,-1.44052 -1.99642,-0.4578 -3.29268,0.44925 -5.3125,3.71738 -3.66277,5.92649 -3.37796,7.60304 1.70328,10.02611 4.72436,2.25289 5.09991,3.42418 3.01527,9.40418 -1.09672,3.14607 -0.89042,5.29766 1.0666,11.12403 1.5045,4.47912 2.21248,9.20197 1.86345,12.43093 l -0.56286,5.2074 6.68376,0.72601 c 15.69763,1.7051 56.03327,4.75311 62.93378,4.75565 15.3631,0.006 23.14134,-6.69482 23.11147,-19.90916 -0.021,-9.30334 -2.43206,-15.48066 -20.71733,-53.07999 -9.3815,-19.29081 -17.13307,-36.74771 -17.2257,-38.79311 -0.15715,-3.4697 0.6692,-4.17695 12.33156,-10.55424 22.67615,-12.39991 71.25252,-37.480604 73.9678,-38.190667 2.3056,-0.602925 2.86867,0.08462 4.17001,5.091828 0.82748,3.183881 1.81351,6.913875 2.19121,8.288875 0.50857,1.851416 1.0414,1.040686 2.05385,-3.125 1.69512,-6.974493 3.52837,-6.899601 4.96059,0.202647 0.60141,2.982294 1.16391,54.078607 1.25,113.547357 l 0.15654,108.125 -3.47073,5.90427 c -2.25063,3.82872 -5.54628,7.12437 -9.375,9.375 l -5.90427,3.47073 -130,0.21664 C 95.008656,311.14394 34.969681,310.77287 33.088712,310.20012 Z M 27.167478,168.97588 23.241228,164.01859 21.99178,124.91338 C 21.304582,103.40552 20.914753,72.870676 21.125493,57.058176 21.490925,29.638626 21.63767,28.12731 24.296538,24.399785 c 6.115482,-8.573423 3.422867,-8.340069 88.346952,-7.656527 121.77832,0.980178 149.32312,1.822628 157.92668,4.830142 3.95366,1.38207 9.43849,3.114071 12.18849,3.84889 8.53745,2.281265 10.63061,7.169725 4.20893,9.829675 -2.15384,0.892148 -5.38822,2.827812 -7.1875,4.301475 -1.79929,1.473661 -5.80268,4.110151 -8.89643,5.858865 -3.09375,1.748712 -10.86755,6.382961 -17.27511,10.298329 -6.40755,3.915367 -17.3763,10.11311 -24.375,13.772762 -6.99869,3.659653 -17.62993,9.251734 -23.62496,12.426846 -9.2985,4.924704 -11.96165,5.775754 -18.125,5.792125 -8.69615,0.0231 -35.02807,6.243843 -38.88943,9.187373 -0.91548,0.69787 -3.37735,4.67752 -5.47083,8.84365 -8.49321,16.90196 -11.74196,18.68148 -10.5424,5.77466 0.46635,-5.01786 0.31055,-8.98151 -0.36957,-9.40184 -1.47674,-0.91268 -43.463721,11.34848 -47.239191,13.79492 -5.371749,3.4808 -7.140463,8.93498 -6.917608,21.3318 0.168846,9.39246 -0.172736,11.74079 -1.920262,13.20141 -3.599415,3.00852 -41.285819,23.49884 -43.219727,23.49884 -1.001464,0 -3.587656,-2.23079 -5.747094,-4.9573 z M 285.88366,21.433176 c -1.5162,-0.979843 -1.3368,-1.215381 0.9375,-1.230859 1.54687,-0.01053 2.8125,0.543359 2.8125,1.230859 0,1.566152 -1.32655,1.566152 -3.75,0 z"
     style="fill:#f9ad94" />
  <path
     inkscape:connector-curvature="0"
     id="path4315"
     d="m 36.700696,308.87254 c -8.433558,-1.41522 -14.934028,-6.07598 -18.368008,-13.16965 -2.656908,-5.48844 -2.837533,-7.32707 -2.617561,-26.64497 0.280711,-24.65194 2.470071,-42.62474 5.192344,-42.62474 0.674401,0 1.276916,3.79687 1.33892,8.4375 0.09228,6.90581 0.308316,7.75675 1.190117,4.6875 0.59256,-2.0625 1.628816,-8.24216 2.302789,-13.73259 0.930874,-7.58321 1.840536,-10.48069 3.784648,-12.05492 2.949321,-2.38822 52.735395,-28.91964 53.188118,-28.3444 0.165319,0.21005 1.822109,3.75691 3.681757,7.88191 3.694356,8.19469 8.166465,13.5808 13.65643,16.44752 3.14696,1.64327 37.71901,5.32252 50.75477,5.40147 l 4.29636,0.026 -3.35886,-3.5059 c -2.43791,-2.54463 -3.35886,-4.80514 -3.35886,-8.24453 0,-2.77825 -1.06338,-6.23201 -2.57039,-8.34842 -2.51892,-3.53749 -2.52645,-3.74922 -0.37569,-10.5722 l 2.19472,-6.96243 -3.52572,-2.8113 -3.52571,-2.81131 2.70929,-5.31061 c 2.34542,-4.59743 2.51052,-5.86028 1.22932,-9.40334 -1.24341,-3.43863 -1.14112,-4.60981 0.64002,-7.32818 2.25815,-3.44638 4.24352,-3.38931 12.29195,0.35337 1.89352,0.88052 3.75291,1.29082 4.13196,0.91177 0.37906,-0.37906 3.97092,-11.21645 7.98191,-24.0831 4.011,-12.86665 8.18965,-24.29083 9.28589,-25.38707 2.89406,-2.894069 8.78154,-0.65439 9.26955,3.52627 0.53885,4.61607 -15.53918,56.54543 -18.08591,58.41449 -2.71828,1.99496 -3.94937,1.96384 -10.25014,-0.2592 -4.94558,-1.74491 -5.23823,-1.70539 -6.94156,0.9375 -3.3121,5.13901 -5.10079,10.04525 -3.81979,10.47739 0.67941,0.2292 2.99809,1.4915 5.15261,2.8051 3.81288,2.3247 3.88096,2.52453 2.55399,7.49606 -1.12493,4.21452 -0.95886,6.29757 0.94961,11.91222 1.62821,4.79014 2.08001,8.50393 1.52613,12.54498 -0.55297,4.03427 -0.32765,5.896 0.75807,6.26385 4.03029,1.36552 68.93545,5.65231 74.468,4.9184 8.46881,-1.12343 13.6097,-4.51144 16.49711,-10.87213 4.99212,-10.99712 2.45234,-19.6575 -17.49662,-59.66167 -8.21575,-16.47526 -15.0486,-32.36862 -15.0486,-35.00338 0,-2.63007 2.49066,-4.21392 25,-15.897824 7.90625,-4.103895 24.14106,-12.68323 36.07735,-19.065192 17.12771,-9.157647 21.93234,-11.240484 22.79336,-9.881087 1.15688,1.826468 1.20301,2.183755 1.91764,14.847479 0.25217,4.46875 0.95215,13.1875 1.55549,19.375004 1.03262,10.58993 1.08772,10.1013 0.93907,-8.328144 -0.14491,-17.965891 0.42827,-22.75235 2.47899,-20.701621 3.30647,3.306463 5.77145,72.863585 5.28135,149.029765 l -0.41825,65 -2.96394,6.01997 c -3.71447,7.54439 -9.95283,11.793 -19.64701,13.38052 -8.99153,1.47245 -245.886618,1.39235 -254.697014,-0.0861 z M 114.12181,144.13988 C 90.897828,134.13803 87.235729,131.45367 90.858967,127.08793 c 2.667326,-3.21393 7.641773,-2.18396 24.469743,5.06655 25.14705,10.83486 24.30495,10.33777 24.30495,14.34735 0,1.9436 0.57167,3.88712 1.27039,4.31895 1.78122,1.10086 0.25816,3.12772 -2.28166,3.0364 -1.16256,-0.0418 -12.18781,-4.41458 -24.50058,-9.7173 z m -87.435686,-2.06997 c -0.393252,-1.0248 -1.323945,-7.91543 -2.068208,-15.3125 -0.744263,-7.39708 -1.923868,-15.41798 -2.621344,-17.82423 -0.77503,-2.6738 -1.116447,-19.199743 -0.878029,-42.500004 0.379854,-37.122396 0.463428,-38.227782 3.177995,-42.033391 5.73654,-8.042176 5.062249,-7.966609 71.086156,-7.966609 32.860416,0 64.275416,0.548205 69.811096,1.218234 5.53568,0.670027 18.47411,1.854722 28.75208,2.632652 10.27797,0.777931 19.84046,1.881571 21.25,2.452534 1.40953,0.570962 1.8461,1.073769 0.97015,1.117347 -0.87595,0.04357 -4.40645,2.0148 -7.84556,4.380493 -3.43911,2.365694 -7.36305,4.653599 -8.71986,5.084235 -1.35682,0.430636 -2.46694,1.281246 -2.46694,1.890246 0,0.609 -2.39063,2.182188 -5.3125,3.495971 -2.92188,1.313786 -6.67618,3.871357 -8.34289,5.683494 -1.66672,1.812136 -3.6745,3.294794 -4.46175,3.294794 -0.78724,0 -4.3682,2.191185 -7.95769,4.869301 -3.58948,2.678115 -8.3317,5.616184 -10.53824,6.52904 -2.20657,0.912858 -7.60806,4.346673 -12.00333,7.6307 -4.39528,3.284028 -8.46853,5.970959 -9.05169,5.970959 -0.58315,0 -3.63948,1.96875 -6.79184,4.375 -3.15236,2.40625 -6.44504,4.375 -7.31708,4.375 -2.92124,0 -5.39944,4.32114 -6.0652,10.575674 -0.46327,4.352272 -1.48348,6.867465 -3.42239,8.4375 -3.60158,2.91639 -10.1969,2.85348 -13.88435,-0.13243 -2.892924,-2.342547 -2.966043,-2.335499 -6.484391,0.625 -1.957163,1.64684 -4.331118,2.99426 -5.275457,2.99426 -0.94434,0 -2.195002,0.85418 -2.779251,1.89817 -1.020564,1.82365 -7.309519,5.74013 -16.561955,10.31406 -4.685855,2.31644 -6.30539,3.41601 -10.089595,6.85027 -1.325723,1.20313 -2.944954,2.1875 -3.598293,2.1875 -0.653337,0 -1.637712,0.70313 -2.1875,1.5625 -0.549786,0.85937 -4.252845,3.11251 -8.229018,5.00697 -3.976173,1.89445 -7.559493,4.30467 -7.962932,5.356 -0.403438,1.05136 -3.021485,3.01697 -5.81788,4.36804 -6.067508,2.9315 -5.437743,2.87231 -6.312315,0.59321 z"
     style="fill:#fc73af" />
  <path
     inkscape:connector-curvature="0"
     id="path4313"
     d="m 35.883656,299.30354 c -3.768269,-1.37117 -8.819235,-7.23827 -9.952685,-11.56082 -1.737089,-6.62461 -2.0063,-51.75492 -0.373101,-62.54618 1.022446,-6.75574 2.127828,-9.93736 3.971075,-11.42992 2.94591,-2.38545 52.73087,-28.91499 53.183118,-28.34035 0.165319,0.21005 1.822109,3.75691 3.681757,7.88191 3.694356,8.19469 8.166465,13.5808 13.65643,16.44753 3.14696,1.64326 37.71901,5.32251 50.75477,5.40146 l 4.29636,0.026 -3.35886,-3.5059 c -2.43791,-2.54463 -3.35886,-4.80514 -3.35886,-8.24453 0,-2.77825 -1.06338,-6.23201 -2.57039,-8.34842 -2.51892,-3.53749 -2.52645,-3.74922 -0.37569,-10.5722 l 2.19472,-6.96243 -3.52572,-2.8113 -3.52571,-2.81131 2.70929,-5.31061 c 2.34542,-4.59743 2.51052,-5.86028 1.22932,-9.40334 -1.24341,-3.43863 -1.14112,-4.60981 0.64002,-7.32818 2.25815,-3.44638 4.24352,-3.38931 12.29195,0.35337 1.89352,0.88052 3.75291,1.29082 4.13196,0.91177 0.37906,-0.37906 3.97092,-11.21645 7.98191,-24.0831 4.011,-12.86665 8.18965,-24.29083 9.28589,-25.38707 2.89406,-2.894069 8.78154,-0.65439 9.26955,3.52627 0.53885,4.61607 -15.53918,56.54543 -18.08591,58.41449 -2.71828,1.99496 -3.94937,1.96384 -10.25014,-0.2592 -4.94558,-1.74491 -5.23823,-1.70539 -6.94156,0.9375 -3.3121,5.13901 -5.10079,10.04525 -3.81979,10.47739 0.67941,0.2292 2.99809,1.4915 5.15261,2.8051 3.81288,2.3247 3.88096,2.52453 2.55399,7.49606 -1.12493,4.21452 -0.95886,6.29757 0.94961,11.91222 1.62821,4.79014 2.08001,8.50393 1.52613,12.54498 -0.55297,4.03427 -0.32765,5.896 0.75807,6.26385 4.03029,1.36552 68.93545,5.65231 74.468,4.9184 8.46881,-1.12343 13.6097,-4.51144 16.49711,-10.87213 4.99212,-10.99712 2.45234,-19.6575 -17.49662,-59.66167 -8.21575,-16.47526 -15.0486,-32.36862 -15.0486,-35.00338 0,-2.63007 2.49066,-4.21392 25,-15.897824 7.90625,-4.103895 24.14106,-12.68323 36.07735,-19.065192 16.15387,-8.636967 21.9555,-11.193987 22.69247,-10.001534 1.21443,1.964984 2.8707,14.557888 2.08909,15.883656 -0.31105,0.527599 -0.14639,4.05302 0.36593,7.83427 0.5123,3.78125 0.58692,49.343754 0.16581,101.250004 -0.71599,88.25302 -0.9123,94.591 -3.02635,97.70481 -5.20163,7.66153 1.60616,7.30471 -137.30321,7.1965 -69.677354,-0.0543 -127.529844,-0.4057 -128.561094,-0.78095 z M 114.12181,144.13988 C 90.897828,134.13803 87.235729,131.45367 90.858967,127.08793 c 2.667326,-3.21393 7.641773,-2.18396 24.469743,5.06655 25.14705,10.83486 24.30495,10.33777 24.30495,14.34735 0,1.9436 0.57167,3.88712 1.27039,4.31895 1.78122,1.10086 0.25816,3.12772 -2.28166,3.0364 -1.16256,-0.0418 -12.18781,-4.41458 -24.50058,-9.7173 z m -87.435686,-2.06997 c -0.393252,-1.0248 -1.323945,-7.91543 -2.068208,-15.3125 -0.744263,-7.39708 -1.923868,-15.41798 -2.621344,-17.82423 -0.77503,-2.6738 -1.116447,-19.199743 -0.878029,-42.500004 0.379854,-37.122396 0.463428,-38.227782 3.177995,-42.033391 5.73654,-8.042176 5.062249,-7.966609 71.086156,-7.966609 32.860416,0 64.275416,0.548205 69.811096,1.218234 5.53568,0.670027 18.47411,1.854722 28.75208,2.632652 10.27797,0.777931 19.84046,1.881571 21.25,2.452534 1.40953,0.570962 1.8461,1.073769 0.97015,1.117347 -0.87595,0.04357 -4.40645,2.0148 -7.84556,4.380493 -3.43911,2.365694 -7.36305,4.653599 -8.71986,5.084235 -1.35682,0.430636 -2.46694,1.281246 -2.46694,1.890246 0,0.609 -2.39063,2.182188 -5.3125,3.495971 -2.92188,1.313786 -6.67618,3.871357 -8.34289,5.683494 -1.66672,1.812136 -3.6745,3.294794 -4.46175,3.294794 -0.78724,0 -4.3682,2.191185 -7.95769,4.869301 -3.58948,2.678115 -8.3317,5.616184 -10.53824,6.52904 -2.20657,0.912858 -7.60806,4.346673 -12.00333,7.6307 -4.39528,3.284028 -8.46853,5.970959 -9.05169,5.970959 -0.58315,0 -3.63948,1.96875 -6.79184,4.375 -3.15236,2.40625 -6.44504,4.375 -7.31708,4.375 -2.92124,0 -5.39944,4.32114 -6.0652,10.575674 -0.46327,4.352272 -1.48348,6.867465 -3.42239,8.4375 -3.60158,2.91639 -10.1969,2.85348 -13.88435,-0.13243 -2.892924,-2.342547 -2.966043,-2.335499 -6.484391,0.625 -1.957163,1.64684 -4.331118,2.99426 -5.275457,2.99426 -0.94434,0 -2.195002,0.85418 -2.779251,1.89817 -1.020564,1.82365 -7.309519,5.74013 -16.561955,10.31406 -4.685855,2.31644 -6.30539,3.41601 -10.089595,6.85027 -1.325723,1.20313 -2.944954,2.1875 -3.598293,2.1875 -0.653337,0 -1.637712,0.70313 -2.1875,1.5625 -0.549786,0.85937 -4.252845,3.11251 -8.229018,5.00697 -3.976173,1.89445 -7.559493,4.30467 -7.962932,5.356 -0.403438,1.05136 -3.021485,3.01697 -5.81788,4.36804 -6.067508,2.9315 -5.437743,2.87231 -6.312315,0.59321 z"
     style="fill:#e79f74" />
  <path
     style="fill:#775683;fill-opacity:1;stroke:#775683;stroke-width:2.05769491;stroke-linecap:butt;stroke-linejoin:miter;stroke-miterlimit:4;stroke-dasharray:none;stroke-opacity:1"
     d="m 37.911276,308.98798 c -1.990332,-0.50054 -7.487753,-0.97377 -12.216488,-1.05165 -5.597445,-0.0922 -9.069586,-0.70577 -9.949973,-1.75832 -0.981997,-1.17403 -1.361295,-41.20293 -1.3852,-146.18884 -0.0305,-133.771342 0.118554,-144.738211 1.994655,-146.795136 1.954451,-2.142829 7.302777,-2.223022 148.25374,-2.223022 126.6712,0 146.42148,0.233489 147.68658,1.745979 1.12561,1.345727 1.45475,34.996395 1.43569,146.791909 -0.0208,123.32648 -0.27988,145.29914 -1.72877,146.73676 -1.42308,1.41199 -14.07556,1.75264 -76.72662,2.06578 -41.26239,0.20621 -75.34406,0.69395 -75.73701,1.08388 -0.39298,0.38989 -1.59305,0.27693 -2.66686,-0.25105 -2.14793,-1.05616 -110.621094,-0.96581 -113.531563,0.0946 -0.995168,0.36255 -3.437849,0.24967 -5.428181,-0.25087 z m 24.191294,-5.98074 123.30724,0 123.30724,0 0,-67.62314 c 0,-37.19274 -0.34692,-67.62315 -0.77098,-67.62315 0.40255,-24.07107 0.16786,-48.19088 0.16786,-72.276045 l 0,-70.336129 -4.48433,-4.077215 -4.48434,-4.077224 -133.99638,-0.02863 C 82.982699,16.948177 30.326145,17.37592 29.016147,18.071551 c -1.174977,0.623931 -3.580756,3.202505 -5.346156,5.730153 l -3.209828,4.595715 -0.02355,132.623091 -0.02362,132.62311 2.5176,3.18569 c 4.270146,5.40333 6.777969,6.09026 22.39882,6.13545 l 14.655669,0.0424 c 291.149868,3.99054 294.185648,1.5621 2.117527,0 z"
     id="path4239"
     inkscape:connector-curvature="0"
     sodipodi:nodetypes="ccsssssssscsccccccscccccssscccsscc" />
  <path
     inkscape:connector-curvature="0"
     id="path4317-5"
     d="M 100.39103,218.34924 C 72.412248,211.74452 72.291724,118.75656 83.284019,114.91779 c 2.694322,2.95048 3.489456,59.401 4.020401,67.30817 1.181532,17.59611 5.430824,26.84589 12.518798,29.43992 5.014572,1.83522 49.002402,4.77678 52.218052,3.7049 0.82177,-0.27392 0.32971,-1.23988 -1.1649,-2.28675 -1.93605,-1.35606 -2.58769,-3.16867 -2.58769,-7.19803 0,-3.4928 -0.87863,-6.50253 -2.5,-8.56378 -3.00591,-3.8214 -3.07135,-5.2252 -0.57363,-12.30452 l 1.92638,-5.45993 -4.02199,-3.28259 -4.02199,-3.28258 2.79233,-4.73264 c 5.06557,-8.58551 3.7278,-9.74959 -24.99871,-21.75286 -19.298984,-8.06402 -25.386282,-11.14792 -26.401062,-13.37513 -1.70931,-3.75151 0.59151,-6.71866 5.209848,-6.71866 1.84529,0 12.523194,3.93334 23.728684,8.74075 13.60915,5.83865 21.31096,8.50549 23.1968,8.03217 2.05263,-0.51517 2.98598,-0.0861 3.41956,1.57188 0.58297,2.22924 14.19409,8.87155 15.50104,7.5646 0.34743,-0.34743 3.91341,-11.15894 7.9244,-24.02559 4.011,-12.86665 8.18965,-24.29083 9.28589,-25.38707 2.89395,-2.89396 8.78041,-0.65439 9.27299,3.528 0.55925,4.74845 -15.50144,56.52171 -18.14129,58.48027 -1.40148,1.03979 -3.61143,1.34136 -5.97425,0.81528 -2.0625,-0.45923 -4.93835,-1.10745 -6.39078,-1.44052 -1.99642,-0.4578 -3.29268,0.44925 -5.3125,3.71738 -3.66277,5.92649 -3.37796,7.60304 1.70328,10.02611 4.72436,2.25289 5.09991,3.42418 3.01527,9.40418 -1.09672,3.14607 -0.89042,5.29766 1.0666,11.12403 1.5045,4.47912 2.21248,9.20197 1.86345,12.43093 l -0.56286,5.2074 6.68376,0.72601 c 15.69763,1.7051 56.03327,4.75311 62.93378,4.75565 15.3631,0.006 23.14134,-6.69482 23.11147,-19.90916 -0.021,-9.30334 -2.43206,-15.48066 -20.71733,-53.07999 -9.3815,-19.29081 -18.26461,-36.37053 -18.35724,-38.41593 -0.15715,-3.4697 -2.85485,-11.34338 12.57932,-10.931422 34.91837,102.502092 58.02697,113.318712 -1.50752,130.760952 -56.86343,-0.83525 -57.4609,-1.21302 -123.63135,-11.75998 z m 92.62818,-144.582649 32.76413,26.443019 c -18.60969,20.15055 -23.93341,-7.898867 -34.62292,-3.733511 -8.10275,3.157377 -36.91398,2.094864 -40.77534,5.038391 -0.91548,0.69787 -5.26325,1.2829 -7.35673,5.44903 -8.49321,16.90196 -11.74196,18.68148 -10.5424,5.77466 0.46635,-5.01786 -0.95238,-7.96044 -1.6325,-8.38077 -1.47674,-0.91268 -53.640161,19.12906 -53.640161,19.12906 C 78.828623,97.776154 168.15071,78.505181 193.01921,73.766591 Z"
     style="fill:#f9ad94;filter:url(#filter5242)"
     sodipodi:nodetypes="ccssssssscccssssssssssssssssssscscssscccccssssscc" />
  <g
     inkscape:groupmode="layer"
     id="layer3"
     inkscape:label="Layer 1" />
  <g
     inkscape:groupmode="layer"
     id="layer4"
     inkscape:label="Layer 2">
    <path
       inkscape:connector-curvature="0"
       id="path4307"
       d="m 159.61462,161.12068 c -3.23586,-1.64015 -6.56644,-4.58459 -7.99019,-7.0638 l -2.44142,-4.25129 3.66282,0.88954 c 11.27464,2.73812 9.65962,4.3724 16.1308,-16.32311 9.26778,-29.63923 9.45857,-30.1755 11.27063,-31.67938 2.02092,-1.67722 6.88979,0.33721 6.88121,2.84702 -0.015,4.38218 -16.5228,55.46446 -18.36561,56.83102 -2.73435,2.0277 -2.66222,2.03756 -9.14824,-1.25 z m -44.98096,-18.51393 c -11.34375,-4.80567 -21.318596,-9.66141 -22.166321,-10.79052 -1.861349,-2.4792 0.0086,-5.38305 3.466379,-5.38305 2.321172,0 36.868992,14.471 39.637442,16.60289 1.66629,1.28313 2.20085,8.42735 0.625,8.3527 -0.51563,-0.0244 -10.21875,-3.97633 -21.5625,-8.78202 z"
       style="fill:#252424;filter:url(#filter5152)" />
  </g>
</svg>
