<?xml version="1.0" encoding="UTF-8" standalone="no"?>
<svg
   xmlns="http://www.w3.org/2000/svg"
   viewBox="0 0 640 640"
   height="640"
   width="640"
   version="1.1">
  
  <defs>
    <filter
       id="filter4196"
       style="color-interpolation-filters:sRGB;"
       height="1.5"
       y="-0.25">
      <feGaussianBlur
         id="feGaussianBlur4198"
         result="result6"
         stdDeviation="5" />
      <feComposite
         id="feComposite4200"
         in2="result6"
         operator="atop"
         in="SourceGraphic"
         result="result8" />
      <feComposite
         id="feComposite4202"
         in="result8"
         in2="SourceAlpha"
         operator="over"
         result="result9" />
      <feColorMatrix
         id="feColorMatrix4204"
         result="result10"
         values="1 0 0 0 0 0 1 0 0 0 0 0 1 0 0 0 0 0 1 0 " />
      <feBlend
         id="feBlend4206"
         in2="result6"
         mode="normal"
         in="result10" />
    </filter>
  </defs>
    <rect
       style="opacity:1;fill:#ffffff;fill-opacity:1;stroke:#eb7e21;stroke-width:4;stroke-linecap:round;stroke-linejoin:bevel;stroke-miterlimit:4;stroke-dasharray:none;stroke-opacity:0"
       id="rect4270"
       width="612.74841"
       height="609.44513"
       x="14.864527"
       y="12.387098" />
    <path
       transform="matrix(2.164968,0,0,2.164968,-346.71377,-370.22753)"
       id="path4237"
       d="m 172.94597,451.3925 c -3.40068,-4.32326 -3.44262,-5.54793 -3.3751,-98.56659 0.0679,-93.48657 0.0949,-94.2329 3.63045,-100.08685 l 3.56208,-5.89793 -3.61008,3.14631 -3.61008,3.1463 0,-31.28611 0,-31.28611 4.54193,-5.37677 4.54194,-5.37678 25.33949,0.48433 25.33949,0.48432 -3.5755,4.54193 c -1.96652,2.49807 -2.91809,4.54194 -2.1146,4.54194 0.80349,0 3.10936,-2.22968 5.12416,-4.95484 l 3.66327,-4.95484 102.86736,0 102.86736,0 4.43803,4.63231 4.43803,4.63231 0,66.42793 0,66.42792 -4.11613,1.56495 c -5.52582,2.10091 -58.06924,16.52103 -60.19863,16.52103 -0.92543,0 -3.26907,-3.15871 -5.20806,-7.01935 -12.63545,-25.15791 -28.39995,-29.88696 -64.42402,-19.32597 -66.51971,19.50122 -71.32466,21.37477 -74.19755,28.93102 -1.81268,4.76771 -1.89713,20.50914 -0.17662,32.92398 1.06247,7.66657 0.75636,8.74344 -4.27372,15.03462 -7.12536,8.91175 -6.97409,11.63695 0.17673,3.18384 l 5.54576,-6.55573 2.0175,11.96108 2.01749,11.96108 -13.64173,16.89143 c -23.80684,29.47803 -21.20041,27.62691 -38.89933,27.62691 -14.52661,0 -15.40903,-0.20669 -18.68992,-4.37767 z m 37.88759,-28.84953 c 0,-0.90839 -0.74323,-1.19228 -1.65161,-0.63087 -0.90839,0.56142 -1.65162,1.76397 -1.65162,2.67236 0,0.90839 0.74323,1.19228 1.65162,0.63087 0.90838,-0.56142 1.65161,-1.76397 1.65161,-2.67236 z m 4.95484,-6.60645 c 0,-0.90839 -0.74323,-1.19229 -1.65161,-0.63087 -0.90839,0.56142 -1.65162,1.76397 -1.65162,2.67236 0,0.90839 0.74323,1.19228 1.65162,0.63087 0.90838,-0.56142 1.65161,-1.76398 1.65161,-2.67236 z m 6.60645,-8.46759 c 0,-0.92132 -1.09545,-0.74247 -2.47742,0.40446 -1.36258,1.13085 -2.47742,2.79931 -2.47742,3.70769 0,0.92132 1.09545,0.74247 2.47742,-0.40446 1.36258,-1.13084 2.47742,-2.7993 2.47742,-3.70769 z m 4.95484,-4.74532 c 0,-0.90838 -0.74323,-1.19228 -1.65161,-0.63086 -0.90839,0.56141 -1.65162,1.76397 -1.65162,2.67236 0,0.90838 0.74323,1.19228 1.65162,0.63086 0.90838,-0.56141 1.65161,-1.76397 1.65161,-2.67236 z m -42.10656,-36.65267 c 5.80851,-7.37896 10.22644,-13.75079 9.81762,-14.15961 -0.40883,-0.40882 -0.97794,-0.43363 -1.26471,-0.0552 -0.28676,0.3785 -4.98378,6.26237 -10.43782,13.07527 -11.24942,14.0522 -13.6808,17.64891 -10.67488,15.79114 1.09938,-0.67946 6.75128,-7.2727 12.55979,-14.65166 l 0,2e-5 z m 15.68075,-19.50216 c 0,-0.90839 -0.74322,-1.19229 -1.65161,-0.63087 -0.90839,0.56142 -1.65161,1.76397 -1.65161,2.67236 0,0.90839 0.74322,1.19228 1.65161,0.63086 0.90839,-0.56141 1.65161,-1.76397 1.65161,-2.67235 z m 116.43871,-53.84253 c 54.56734,-66.49154 88.35536,-108.66721 88.3019,-110.22223 -0.073,-2.12207 2.96701,-5.73475 -56.89233,67.61011 -53.05238,65.00437 -54.59176,66.96197 -52.56129,66.8415 0.7328,-0.0435 10.25108,-10.94669 21.15172,-24.22938 z m -29.13294,2.24608 c 1.91993,-2.36653 31.5086,-82.71914 32.75505,-88.9514 1.15616,-5.7808 -1.86478,-9.55399 -7.64924,-9.55399 -3.42874,0 -1.12575,-1.04279 -3.83685,3.78094 -3.40533,6.05898 -27.66577,60.52855 -29.84405,68.89003 -2.39258,9.18406 -1.86981,9.32019 -44.17348,-11.50269 -22.18581,-10.92038 -42.23307,-19.86036 -44.54946,-19.8666 -2.31638,-0.006 -5.10348,0.88051 -6.19354,1.97058 -1.09007,1.09006 -1.98194,1.37067 -1.98194,0.62357 0,-0.74709 -1.11484,-0.43312 -2.47742,0.69772 -1.36258,1.13084 -2.47742,2.85694 -2.47742,3.83578 0,1.16516 0.68049,1.09921 1.97068,-0.19098 1.5265,-1.5265 2.40569,-0.93611 3.90064,2.61934 1.55303,3.69357 7.75657,7.56945 31.76395,19.84561 41.20331,21.06928 64.44028,31.4723 68.13864,30.50516 1.71838,-0.44937 3.81288,-1.66575 4.65444,-2.70307 z m -68.31222,-100.157 c 0.56142,-0.90839 0.23366,-1.65161 -0.72833,-1.65161 -0.962,0 -1.74909,0.74322 -1.74909,1.65161 0,0.90839 0.32775,1.65161 0.72833,1.65161 0.40059,0 1.18768,-0.74322 1.74909,-1.65161 z"
       style="fill:#5a97a9;fill-opacity:1;stroke:none;stroke-width:1px;stroke-linecap:butt;stroke-linejoin:miter;stroke-opacity:1;filter:url(#filter4196)" />
    <path
       id="path4225"
       d="m 121.05026,609.95411 c 4.86942,-4.37802 18.4163,-20.2675 30.10418,-35.30993 11.68788,-15.04244 24.43831,-30.82573 28.3343,-35.07398 l 7.08362,-7.72411 3.16092,6.16131 c 1.73851,3.38871 7.24667,10.63174 12.24034,16.0956 10.48799,11.47555 19.17445,15.16582 38.54816,16.37651 6.82414,0.42644 34.53209,2.80097 61.57323,5.27677 27.04114,2.47577 66.46313,5.73456 87.60439,7.24177 21.14126,1.50719 48.89754,3.74477 61.68063,4.97241 35.48156,3.40755 58.55537,2.69877 71.26566,-2.18913 36.00935,-18.41177 29.3826,-38.30915 24.38404,-69.85691 0,-1.78727 -3.21814,-9.69871 -7.15139,-17.58103 -3.93325,-7.88231 -7.15139,-14.76647 -7.15139,-15.29817 0,-0.53169 -11.36853,-24.36299 -25.26342,-52.95845 -16.50327,-33.96347 -24.65572,-52.59943 -23.51084,-53.74431 0.96391,-0.96391 13.74038,-4.84788 28.39215,-8.63108 35.46235,-9.1566 70.31978,-19.04944 104.85778,-29.75958 2.96141,-0.91832 3.12872,6.54097 3.12872,139.49607 l 0,140.46629 -254.06728,0 -254.06729,0 z"
       style="fill:#2172aa;fill-opacity:1;stroke:none;stroke-width:1px;stroke-linecap:butt;stroke-linejoin:miter;stroke-opacity:1" />
    <path
       id="path4229"
       d="m 329.09794,442.65816 c -35.09151,-13.61527 -101.00153,-41.35641 -114.76168,-48.3025 -11.89128,-6.00269 -13.97768,-9.88171 -4.48666,-8.34153 8.14485,1.32173 47.38264,16.88552 92.24541,36.58939 43.86113,19.26397 49.30167,21.16875 52.61323,18.42041 2.99568,-2.4862 6.45277,-12.06643 22.29618,-61.78704 6.89332,-21.6329 13.66013,-40.87122 15.03737,-42.75179 1.4654,-2.00095 3.65592,-2.9772 5.28101,-2.35361 3.66236,1.40539 2.70725,5.60437 -13.30969,58.51424 -14.81119,48.92674 -19.5371,60.80713 -24.16173,60.73958 -1.77491,-0.026 -15.61395,-4.85312 -30.75344,-10.72715 z"
       style="fill:#000000;fill-opacity:1;stroke:#000000;stroke-width:15.15477562;stroke-linecap:butt;stroke-linejoin:miter;stroke-miterlimit:4;stroke-dasharray:none;stroke-opacity:1" />
    <path
       id="path4233"
       d="m 55.206477,164.49313 c -1.981595,-3.70263 3.13994,-13.41908 8.831208,-16.7544 65.750165,15.83857 123.538415,62.14501 187.697245,83.27674 31.01364,-65.66257 51.46076,-113.88089 74.79012,-163.181297 0.76872,-2.194 1.52013,-5.160699 1.6698,-6.592673 0.23342,-2.233252 0.40612,-2.613182 1.21411,-2.670986 4.28069,-0.3063 7.51266,1.589671 12.05929,7.074357 1.33665,1.612403 1.60014,3.866979 0.86728,7.420623 C 313.42419,156.21144 312.72395,174.13671 269.70333,269.68959 141.46325,214.14472 141.38255,213.41589 55.206477,164.49313 Z"
       style="fill:#eb7e21;fill-opacity:1;stroke:#eb7e21;stroke-width:8.65987206;stroke-linecap:butt;stroke-linejoin:miter;stroke-miterlimit:4;stroke-dasharray:none;stroke-opacity:0" />
    <path
       id="path4239"
       d="M 8.996924,627.21722 C 6.9386023,624.73708 6.1435828,540.17581 6.0934638,318.3925 6.0295972,35.799813 6.3419588,12.632252 10.274385,8.2869668 14.371024,3.7602352 25.581423,3.5908265 321.02274,3.5908265 c 265.51008,0 306.90779,0.4932446 309.55953,3.688391 2.35934,2.8428625 3.04921,73.9300845 3.00929,310.0987125 -0.0439,260.52786 -0.58665,306.94523 -3.62364,309.98222 -121.80166,-0.25223 -121.47143,-0.34194 -318.98856,1.39826 -198.58387,-1.04082 -198.66204,-1.79622 -301.982436,-1.54119 z m 355.627556,-6.69826 257.29121,-2.33573 1.16787,-141.68641 C 621.45329,326.47526 621.83547,160.9674 621.81935,33.541427 L 603.02052,16.315144 322.15641,16.254744 C 149.9314,16.217721 39.560232,17.121314 36.814403,18.590829 28.895089,24.886275 24.657418,32.068297 18.880566,40.404289 L 18.831206,320.5713 c 0.864127,123.25537 -5.354692,147.10304 5.227443,286.89684 8.950475,11.41454 14.207018,12.86572 46.949214,12.96119 974.298237,6.77684 -482.143763,0.0896 293.616617,0.0896 z"
       style="fill:#775683;fill-opacity:1;stroke:#775683;stroke-width:4.32993603;stroke-linecap:butt;stroke-linejoin:miter;stroke-miterlimit:4;stroke-dasharray:none;stroke-opacity:1" />
    <path
       id="path4229-6"
       d="m 439.25032,599.92052 c -69.52779,-11.45389 -200.1173,-34.79127 -227.38067,-40.63467 -23.56053,-5.04981 -27.69436,-8.31307 -8.88954,-7.0174 16.13763,1.11193 93.88064,14.20503 182.76851,30.78102 86.90335,16.20587 97.68286,17.80831 104.24414,15.49623 5.93541,-2.09151 12.78504,-10.15095 44.17604,-51.9786 13.65794,-18.19879 26.61828,-17.3986 29.34705,-18.98065 2.90344,-1.6833 -7.50614,2.85897 -4.28631,3.38357 7.25632,1.18231 20.56061,-17.63339 -11.17418,26.8773 -29.34584,41.15987 -38.70943,51.15429 -47.8724,51.09746 -3.51665,-0.0221 -30.93633,-4.08272 -60.93264,-9.02426 z"
       style="fill:#000000;fill-opacity:1;stroke:#000000;stroke-width:19.56552505;stroke-linecap:butt;stroke-linejoin:miter;stroke-miterlimit:4;stroke-dasharray:none;stroke-opacity:1" />
</svg>
