<?xml version="1.0" encoding="UTF-8" standalone="no"?>
<!-- Created with Inkscape (http://www.inkscape.org/) -->

<svg
   xmlns:dc="http://purl.org/dc/elements/1.1/"
   xmlns:cc="http://creativecommons.org/ns#"
   xmlns:rdf="http://www.w3.org/1999/02/22-rdf-syntax-ns#"
   xmlns:svg="http://www.w3.org/2000/svg"
   xmlns="http://www.w3.org/2000/svg"
   xmlns:sodipodi="http://sodipodi.sourceforge.net/DTD/sodipodi-0.dtd"
   xmlns:inkscape="http://www.inkscape.org/namespaces/inkscape"
   id="svg6001"
   version="1.1"
   inkscape:version="0.91 r13725"
   width="325"
   height="325"
   viewBox="0 0 325 325"
   sodipodi:docname="iconok.svg"
   inkscape:export-filename="/home/lionel/Documents/workspace/athg2sms/res/drawable/iconok.png"
   inkscape:export-xdpi="127"
   inkscape:export-ydpi="127">
  <metadata
     id="metadata6007">
    <rdf:RDF>
      <cc:Work
         rdf:about="">
        <dc:format>image/svg+xml</dc:format>
        <dc:type
           rdf:resource="http://purl.org/dc/dcmitype/StillImage" />
        <dc:title />
      </cc:Work>
    </rdf:RDF>
  </metadata>
  <defs
     id="defs6005">
    <filter
       y="-0.25"
       height="1.5"
       inkscape:menu-tooltip="Darkens the edge with an inner blur and adds a flexible glow"
       inkscape:menu="Shadows and Glows"
       inkscape:label="Dark And Glow"
       style="color-interpolation-filters:sRGB;"
       id="filter7707">
      <feGaussianBlur
         stdDeviation="5"
         result="result6"
         id="feGaussianBlur7709" />
      <feComposite
         result="result8"
         in="SourceGraphic"
         operator="atop"
         in2="result6"
         id="feComposite7711" />
      <feComposite
         result="result9"
         operator="over"
         in2="SourceAlpha"
         in="result8"
         id="feComposite7713" />
      <feColorMatrix
         values="1 0 0 0 0 0 1 0 0 0 0 0 1 0 0 0 0 0 1 0 "
         result="result10"
         id="feColorMatrix7715" />
      <feBlend
         in="result10"
         mode="normal"
         in2="result6"
         id="feBlend7717" />
    </filter>
  </defs>
  <sodipodi:namedview
     pagecolor="#ffffff"
     bordercolor="#666666"
     borderopacity="1"
     objecttolerance="10"
     gridtolerance="10"
     guidetolerance="10"
     inkscape:pageopacity="0"
     inkscape:pageshadow="2"
     inkscape:window-width="1920"
     inkscape:window-height="978"
     id="namedview6003"
     showgrid="false"
     inkscape:zoom="1.072729"
     inkscape:cx="-18.310645"
     inkscape:cy="266.78092"
     inkscape:window-x="0"
     inkscape:window-y="65"
     inkscape:window-maximized="1"
     inkscape:current-layer="layer1" />
  <path
     style="fill:#775683;fill-opacity:1;stroke:#775683;stroke-width:2.01378155;stroke-linecap:butt;stroke-linejoin:miter;stroke-miterlimit:4;stroke-dasharray:none;stroke-opacity:1"
     d="m 37.2028,305.1942 c -1.944862,-0.49059 -7.31669,-0.95445 -11.937397,-1.0308 -5.46957,-0.0903 -8.862386,-0.69178 -9.722664,-1.72344 -0.959563,-1.15074 -1.330191,-40.38569 -1.353556,-143.28927 -0.02979,-131.118073 0.115843,-141.867416 1.949092,-143.883556 1.909799,-2.100322 7.135942,-2.178926 144.866835,-2.178926 123.77732,0 143.07638,0.228854 144.31258,1.711349 1.09989,1.319038 1.42151,34.302271 1.40291,143.880383 -0.0205,120.88039 -0.27351,142.41722 -1.68931,143.82634 -1.39054,1.38397 -13.75398,1.71787 -74.97374,2.02479 -40.31974,0.20211 -73.62278,0.6802 -74.00677,1.06238 -0.38399,0.38218 -1.55665,0.27145 -2.60592,-0.24606 -2.09889,-1.03521 -108.09391,-0.94666 -110.937893,0.0927 -0.972428,0.35536 -3.359304,0.24473 -5.304167,-0.24588 z m 23.638635,-5.86212 120.490205,0 120.49026,0 0,-66.28188 c 0,-36.45505 -0.33901,-66.28189 -0.75338,-66.28189 0.39336,-23.59363 0.16405,-47.23502 0.16405,-70.842486 l 0,-68.941061 -4.38192,-3.996341 -4.38187,-3.996352 -130.9352,-0.02803 C 81.244549,18.94687 29.790954,19.366111 28.510884,20.047939 c -1.148139,0.611565 -3.498951,3.138986 -5.224025,5.616504 l -3.136497,4.50456 -0.02303,129.992597 -0.02312,129.9926 2.460077,3.12253 c 4.172597,5.29615 6.623127,5.96946 21.887113,6.01376 l 14.320849,0.0416 c 284.498429,3.91138 287.464849,1.53112 2.069155,0 z"
     id="path4239"
     inkscape:connector-curvature="0"
     sodipodi:nodetypes="ccsssssssscsccccccscccccssscccsscc" />
  <g
     inkscape:groupmode="layer"
     id="layer5"
     inkscape:label="Layer 1" />
  <rect
     style="opacity:1;fill:#ffffff;fill-opacity:1;stroke:none;stroke-width:3;stroke-linecap:round;stroke-linejoin:bevel;stroke-miterlimit:4;stroke-dasharray:none;stroke-opacity:1"
     id="rect4151"
     width="201.35561"
     height="259.15213"
     x="85.762573"
     y="21.10219" />
  <g
     inkscape:groupmode="layer"
     id="layer1"
     inkscape:label="Layer 2">
    <path
       inkscape:connector-curvature="0"
       id="path7570"
       d="m 280.74551,142.98545 c -1.43862,1.01212 -3.42465,1.77684 -4.4134,1.69939 -0.98874,-0.0774 -31.37388,-2.67409 -67.52253,-5.77028 -52.63509,-4.50826 -66.09095,-5.99714 -67.56311,-7.47586 -2.38825,-2.39888 -13.06548,-50.385306 -13.98689,-62.861002 -1.19282,-16.150324 -2.89992,-15.33355 53.12245,-25.416547 18.12432,-3.262054 34.21184,-6.219284 35.74999,-6.571637 3.44424,-0.788979 3.6395,-1.837433 -4.71837,25.335292 -3.47414,11.294975 -6.94304,20.7805 -7.70864,21.078957 -0.76562,0.298448 -14.3515,-5.086158 -30.19089,-11.965805 -15.83938,-6.879645 -29.82748,-12.508446 -31.08469,-12.508446 -4.91199,0 -7.85537,6.824728 -4.71021,10.921448 0.80911,1.053919 12.06328,6.427171 25.00922,11.940563 47.59221,20.268427 47.32399,20.179817 51.5583,17.035183 1.7925,-1.331216 9.63211,-24.820763 15.88013,-47.5811 2.39635,-8.729504 1.91827,-13.01947 -1.60216,-14.376387 -1.51929,-0.585603 -1.58287,-0.926409 -0.32249,-1.728913 2.80079,-1.783318 9.92828,-1.15826 11.77934,1.03302 1.8763,2.221147 43.33964,101.723714 43.33964,104.005274 0,0.75162 -1.17706,2.19471 -2.61569,3.20686 z m -7.06143,42.55702 c -1.43862,1.01212 -3.42465,1.77683 -4.41338,1.69938 -0.98875,-0.0774 -31.3739,-2.67407 -67.52254,-5.77026 -52.24423,-4.47478 -66.0975,-6.00374 -67.54178,-7.45444 -3.21754,-3.23185 -16.02886,-64.46029 -14.80746,-70.76852 0.75188,-3.883246 5.83091,-8.973942 7.39001,-7.406974 0.606,0.609057 1.70553,6.095884 2.44339,12.192944 1.56618,12.94144 3.38794,18.72114 7.68439,24.37911 5.74432,7.5647 8.8933,8.68987 28.27019,10.1013 9.6519,0.70303 30.85196,2.3085 47.11121,3.56768 16.25926,1.25917 33.7363,2.29805 38.83788,2.30752 5.10156,0.01 9.99836,0.47805 10.8818,1.04024 1.60271,1.0199 14.2766,30.18599 14.28037,32.86114 9e-4,0.77584 -1.17546,2.23875 -2.61408,3.25088 z m -15.29976,41.37488 c -1.43861,1.01212 -3.42464,1.77683 -4.41339,1.69938 -0.98875,-0.0774 -31.37388,-2.67408 -67.52254,-5.77026 -51.3851,-4.40119 -66.11139,-6.0177 -67.49658,-7.40903 -1.89208,-1.9005 -3.25832,-7.29625 -10.97564,-43.34659 -4.97804,-23.25411 -5.34688,-29.46769 -1.95161,-32.87804 2.68638,-2.69832 10.51937,-4.94657 12.85663,-3.69014 2.77053,1.48934 2.61979,6.06992 -0.28668,8.71194 -1.2946,1.17681 -2.35381,3.38711 -2.35381,4.91179 0,2.61583 3.65093,7.50068 5.60601,7.50068 0.49412,0 1.55146,2.76149 2.34966,6.13667 1.75576,7.42418 6.44207,14.51523 12.03175,18.20566 4.59473,3.03354 4.33315,3.00542 70.63425,7.59628 19.74258,1.36702 37.20225,2.85917 38.79925,3.3159 2.37172,0.67827 4.04258,3.52152 9.121,15.52093 3.41955,8.07979 6.21739,15.35745 6.21739,16.17257 0,0.81512 -1.17706,2.31013 -2.61569,3.32226 z m -7.06142,40.19274 c -1.43862,1.01212 -3.42464,1.77684 -4.41341,1.69939 -0.98873,-0.0774 -31.37387,-2.67409 -67.52253,-5.77027 -52.15216,-4.46689 -66.09904,-6.00526 -67.53682,-7.44946 -2.91547,-2.92842 -14.439929,-56.84759 -14.439929,-67.55969 0,-5.6933 2.663729,-10.10447 6.101679,-10.10447 2.18638,0 2.3596,0.48928 1.68143,4.74917 -0.45333,2.84767 -0.10032,6.98917 0.88178,10.34372 0.9008,3.07701 2.26019,8.25436 3.02088,11.50525 1.69072,7.22547 6.30487,14.18496 11.84726,17.86903 3.58927,2.38582 6.55194,2.93598 21.7927,4.04681 9.70128,0.70709 30.94172,2.31584 47.20097,3.57502 16.25927,1.25918 34.05143,2.28941 39.53815,2.28941 8.02076,0 10.33362,0.40544 11.80136,2.06874 1.97722,2.24067 12.66215,27.09825 12.66215,29.45743 0,0.79183 -1.17706,2.2678 -2.61567,3.27992 z m -216.809408,33.4646 c 6.956582,1.84592 242.486248,1.92789 249.765088,0.0869 8.14996,-2.06132 16.04293,-10.37732 17.86408,-18.82152 1.01605,-4.70941 1.28044,-37.91714 1.00757,-126.37514 -0.36612,-118.698872 -0.39644,-120.044258 -2.82185,-125.306767 -2.97952,-6.464789 -9.4976,-12.443692 -15.47654,-14.196332 -3.13109,-0.917794 -40.03233,-1.193856 -125.6541,-0.939922 -120.577734,0.357592 -121.249342,0.37277 -126.517299,2.858742 -6.309774,2.977612 -9.750346,6.510432 -12.548283,12.884718 -1.908159,4.34719 -2.140584,14.057746 -2.998914,125.290641 -0.689929,89.40931 -0.581607,122.08896 0.419064,126.42257 1.706587,7.39071 10.012325,16.25221 16.961184,18.09611 z"
       style="fill:#61a95a;fill-opacity:1;filter:url(#filter7707)"
       sodipodi:nodetypes="cssssssscssssssssssccsssssssssscscsssssssssssssssssssssssssssssssssssscsscssssss"
       transform="matrix(1.0123242,0,0,0.99172326,-0.32361388,3.2890856)" />
    <path
       style="fill:#775683;fill-opacity:1;stroke:#775683;stroke-width:1.96867979;stroke-linecap:butt;stroke-linejoin:miter;stroke-miterlimit:4;stroke-dasharray:none;stroke-opacity:1"
       d="m 40.847478,302.67919 c -1.888199,-0.48293 -7.103491,-0.93955 -11.589559,-1.01471 -5.310194,-0.0889 -8.604152,-0.68098 -9.439355,-1.69654 -0.931609,-1.13278 -1.29144,-39.75537 -1.314119,-141.05287 -0.02893,-129.071635 0.112465,-139.653204 1.892296,-141.637876 1.854151,-2.06754 6.928008,-2.144923 140.645599,-2.144923 120.17061,0 138.90732,0.225288 140.1075,1.68464 1.06784,1.298453 1.38009,33.766895 1.36203,141.634759 -0.0199,118.99373 -0.26554,140.19443 -1.64008,141.58155 -1.35002,1.36237 -13.35321,1.69106 -72.78911,1.99319 -39.14487,0.19896 -71.4775,0.66958 -71.85031,1.0458 -0.3728,0.37622 -1.51129,0.26721 -2.52998,-0.24222 -2.03773,-1.01905 -104.944188,-0.93188 -107.705308,0.0913 -0.944085,0.34982 -3.261414,0.24091 -5.149604,-0.24204 z m 22.949832,-5.77063 116.97927,0 116.97933,0 0,-65.24738 c 0,-35.88607 -0.32913,-65.24738 -0.73142,-65.24738 0.3819,-23.2254 0.15927,-46.4978 0.15927,-69.736804 l 0,-67.865056 -4.25424,-3.933967 -4.25419,-3.933987 -127.11992,-0.02756 c -77.949501,-0.01693 -127.90381,0.395792 -129.14658,1.06698 -1.114685,0.602025 -3.396996,3.089998 -5.071799,5.52885 l -3.045107,4.434255 -0.02233,127.963719 -0.02243,127.96373 2.388397,3.07379 c 4.051006,5.21349 6.430131,5.87629 21.249348,5.9199 l 13.903559,0.0409 c 276.208512,3.85034 279.088492,1.50723 2.008858,0 z"
       id="path4239-0"
       inkscape:connector-curvature="0"
       sodipodi:nodetypes="ccsssssssscsccccccscccccssscccsscc" />
    <path
       style="fill:#775683;fill-opacity:1;stroke:#775683;stroke-width:2.00927305;stroke-linecap:butt;stroke-linejoin:miter;stroke-miterlimit:4;stroke-dasharray:none;stroke-opacity:1"
       d="m 37.58378,305.94761 c -1.94489,-0.48839 -7.316803,-0.95017 -11.937574,-1.02618 -5.469655,-0.0899 -8.862527,-0.68867 -9.722821,-1.7157 -0.959574,-1.14558 -1.33021,-40.20444 -1.35357,-142.64619 -0.0298,-130.52961 0.115841,-141.230707 1.94912,-143.237798 1.909829,-2.090894 7.13605,-2.169151 144.869065,-2.169151 123.77923,0 143.07859,0.227833 144.31481,1.703669 1.09991,1.313121 1.42153,34.148327 1.40293,143.23465 -0.0205,120.33787 -0.27351,141.77805 -1.68934,143.18084 -1.39056,1.37776 -13.75419,1.71016 -74.97489,2.0157 -40.32037,0.20121 -73.62392,0.67715 -74.00792,1.05762 -0.38399,0.38046 -1.55667,0.27023 -2.60596,-0.24496 -2.09892,-1.03056 -108.09557,-0.94241 -110.939597,0.0923 -0.972443,0.35377 -3.359356,0.24364 -5.304253,-0.24477 z m 23.639005,-5.83581 120.492055,0 120.49212,0 0,-65.98441 c 0,-36.29144 -0.33901,-65.98442 -0.75339,-65.98442 0.39337,-23.48774 0.16406,-47.02302 0.16406,-70.524534 l 0,-68.631653 -4.38199,-3.978404 -4.38194,-3.978415 -130.93722,-0.02787 C 81.626214,20.984974 30.171826,21.40236 28.891736,22.081129 c -1.148158,0.608816 -3.499004,3.124893 -5.224111,5.591294 l -3.136538,4.484343 -0.023,129.409184 -0.0231,129.40919 2.460108,3.10851 c 4.172664,5.27238 6.623232,5.94267 21.887454,5.98677 l 14.321071,0.0414 c 284.50282,3.89382 287.46928,1.52425 2.069187,0 z"
       id="path4239-7"
       inkscape:connector-curvature="0"
       sodipodi:nodetypes="ccsssssssscsccccccscccccssscccsscc" />
  </g>
</svg>
