<?xml version="1.0" encoding="UTF-8" standalone="no"?>
<svg
   xmlns:dc="http://purl.org/dc/elements/1.1/"
   xmlns:cc="http://creativecommons.org/ns#"
   xmlns:rdf="http://www.w3.org/1999/02/22-rdf-syntax-ns#"
   xmlns:svg="http://www.w3.org/2000/svg"
   xmlns="http://www.w3.org/2000/svg"
   xmlns:sodipodi="http://sodipodi.sourceforge.net/DTD/sodipodi-0.dtd"
   xmlns:inkscape="http://www.inkscape.org/namespaces/inkscape"
   id="svg5161"
   version="1.1"
   width="640"
   height="640"
   viewBox="0 0 640 640"
   inkscape:version="0.91 r13725"
   sodipodi:docname="bgSettingsNotBlurred.svg">
  <sodipodi:namedview
     pagecolor="#ffffff"
     bordercolor="#666666"
     borderopacity="1"
     objecttolerance="10"
     gridtolerance="10"
     guidetolerance="10"
     inkscape:pageopacity="0"
     inkscape:pageshadow="2"
     inkscape:window-width="1920"
     inkscape:window-height="978"
     id="namedview5763"
     showgrid="false"
     inkscape:zoom="1.1408203"
     inkscape:cx="320"
     inkscape:cy="320"
     inkscape:window-x="0"
     inkscape:window-y="65"
     inkscape:window-maximized="1"
     inkscape:current-layer="svg5161" />
  <metadata
     id="metadata5174">
    <rdf:RDF>
      <cc:Work
         rdf:about="">
        <dc:format>image/svg+xml</dc:format>
        <dc:type
           rdf:resource="http://purl.org/dc/dcmitype/StillImage" />
        <dc:title />
      </cc:Work>
    </rdf:RDF>
  </metadata>
  <defs
     id="defs5172" />
  <g
     transform="translate(-3.0466426,0.31543427)"
     id="g4281"
     inkscape:export-filename="/home/lionel/Documents/workspace/athg2sms/res/drawable/g4281.png"
     inkscape:export-xdpi="127"
     inkscape:export-ydpi="127">
    <rect
       y="12.387098"
       x="14.864527"
       height="609.44513"
       width="612.74841"
       id="rect4270"
       style="opacity:1;fill:#ffffff;fill-opacity:1;stroke:#eb7e21;stroke-width:4;stroke-linecap:round;stroke-linejoin:bevel;stroke-miterlimit:4;stroke-dasharray:none;stroke-opacity:0" />
  </g>
  <path
     style="fill:#5a97a9;fill-opacity:1;stroke:none;stroke-width:1px;stroke-linecap:butt;stroke-linejoin:miter;stroke-opacity:1;filter:url(#filter4196)"
     d="m 27.70872,607.02279 c -7.36236,-9.35972 -7.45316,-12.01109 -7.30698,-213.39352 0.147,-202.39543 0.20545,-204.01121 7.8598,-216.68482 l 7.71179,-12.76883 -7.8157,6.81166 -7.81571,6.81164 0,-67.73343 0,-67.733427 9.83313,-11.640535 9.83316,-11.640557 54.85918,1.048559 54.85919,1.048537 -7.74085,9.833134 c -4.25745,5.408241 -6.31757,9.833154 -4.57804,9.833154 1.73953,0 6.73167,-4.827186 11.09365,-10.72707 l 7.93086,-10.72707 222.70454,0 222.70456,0 9.6082,10.028803 9.6082,10.028803 0,143.814339 0,143.81432 -8.9113,3.38807 c -11.9632,4.5484 -125.7181,35.7675 -130.3281,35.7675 -2.0036,0 -7.0775,-6.8385 -11.2753,-15.19667 -27.3554,-54.46607 -61.485,-64.70431 -139.47595,-41.8401 -144.01305,42.21952 -154.41561,46.27569 -160.63533,62.63473 -3.92439,10.32194 -4.10722,44.40163 -0.38237,71.27936 2.30021,16.59788 1.63749,18.92927 -9.25247,32.54947 -15.42618,19.29366 -15.09868,25.19363 0.38262,6.89292 l 12.00639,-14.19295 4.36782,25.89536 4.3678,25.89535 -29.53391,36.56941 c -51.54104,63.81899 -45.89821,59.81137 -84.2158,59.81137 -31.44965,0 -33.36006,-0.44747 -40.46308,-9.47751 z m 82.02542,-62.45831 c 0,-1.96664 -1.60907,-2.58125 -3.57568,-1.36581 -1.96664,1.21545 -3.57571,3.81893 -3.57571,5.78557 0,1.96663 1.60907,2.58125 3.57571,1.36581 1.96661,-1.21545 3.57568,-3.81894 3.57568,-5.78557 z m 10.72707,-14.30275 c 0,-1.96664 -1.60907,-2.58127 -3.57568,-1.36582 -1.96664,1.21546 -3.57571,3.81894 -3.57571,5.78558 0,1.96663 1.60907,2.58124 3.57571,1.36581 1.96661,-1.21546 3.57568,-3.81896 3.57568,-5.78557 z m 14.30275,-18.33207 c 0,-1.99462 -2.37161,-1.60742 -5.36353,0.87565 -2.94994,2.44825 -5.36354,6.06041 -5.36354,8.02703 0,1.99463 2.37162,1.60742 5.36354,-0.87565 2.94994,-2.44823 5.36353,-6.06039 5.36353,-8.02703 z m 10.72707,-10.27346 c 0,-1.96662 -1.60907,-2.58125 -3.57568,-1.36579 -1.96663,1.21543 -3.5757,3.81894 -3.5757,5.78557 0,1.96661 1.60907,2.58125 3.5757,1.36579 1.96661,-1.21543 3.57568,-3.81894 3.57568,-5.78557 z M 54.33168,422.30434 c 12.57524,-15.97521 22.13991,-29.77002 21.25483,-30.6551 -0.8851,-0.88508 -2.11721,-0.9388 -2.73805,-0.11951 -0.62083,0.81944 -10.78973,13.55783 -22.59755,28.30754 -24.35464,30.42257 -29.6185,38.20933 -23.11078,34.18732 2.38013,-1.47101 14.61631,-15.74517 27.19155,-31.72038 l 0,4e-5 z M 88.28,380.08279 c 0,-1.96664 -1.60905,-2.58127 -3.57568,-1.36581 -1.96664,1.21545 -3.57568,3.81893 -3.57568,5.78557 0,1.96663 1.60904,2.58125 3.57568,1.36579 1.96663,-1.21543 3.57568,-3.81894 3.57568,-5.78555 z M 340.36608,263.51543 C 458.5026,119.56338 531.6526,28.254402 531.5369,24.887833 531.3788,20.29362 537.9603,12.472283 408.3668,171.26156 293.51009,311.99394 290.17738,316.23208 294.57328,315.97127 c 1.58649,-0.0942 22.19326,-23.69924 45.7928,-52.45584 z M 48.94743,150.15018 c 0,-1.61743 -2.4136,-0.9377 -5.36354,1.51054 -2.94994,2.44823 -5.36353,6.18518 -5.36353,8.30434 0,2.52253 1.47323,2.37975 4.26645,-0.41347 3.30483,-3.30482 5.20825,-2.02665 8.44477,5.67079 4.84521,1.48412 -1.74713,-10.01033 -1.98415,-15.0722 z m 80.453,-98.608755 c 1.21545,-1.966635 0.50587,-3.575682 -1.57681,-3.575682 -2.0827,0 -3.78673,1.609047 -3.78673,3.575682 0,1.966636 0.70957,3.575683 1.57681,3.575683 0.86727,0 2.57129,-1.609047 3.78673,-3.575683 z"
     id="path4237" />
  <path
     style="fill:#2172aa;fill-opacity:1;stroke:none;stroke-width:1px;stroke-linecap:butt;stroke-linejoin:miter;stroke-opacity:1"
     d="m 121.05026,609.95411 c 4.86942,-4.37802 18.4163,-20.2675 30.10418,-35.30993 11.68788,-15.04244 24.43831,-30.82573 28.3343,-35.07398 l 7.08362,-7.72411 3.16092,6.16131 c 1.73851,3.38871 7.24667,10.63174 12.24034,16.0956 10.48799,11.47555 19.17445,15.16582 38.54816,16.37651 6.82414,0.42644 34.53209,2.80097 61.57323,5.27677 27.04114,2.47577 66.46313,5.73456 87.60439,7.24177 21.14126,1.50719 48.89754,3.74477 61.68063,4.97241 35.48156,3.40755 58.55537,2.69877 71.26566,-2.18913 36.00935,-18.41177 29.3826,-38.30915 24.38404,-69.85691 0,-1.78727 -3.21814,-9.69871 -7.15139,-17.58103 -3.93325,-7.88231 -7.15139,-14.76647 -7.15139,-15.29817 0,-0.53169 -11.36853,-24.36299 -25.26342,-52.95845 -16.50327,-33.96347 -24.65572,-52.59943 -23.51084,-53.74431 0.96391,-0.96391 13.74038,-4.84788 28.39215,-8.63108 35.46235,-9.1566 70.31978,-19.04944 104.85778,-29.75958 2.96141,-0.91832 3.12872,6.54097 3.12872,139.49607 l 0,140.46629 -254.06728,0 -254.06729,0 z"
     id="path4225" />
  <path
     style="fill:#000000;fill-opacity:1;stroke:#000000;stroke-width:15.15477562;stroke-linecap:butt;stroke-linejoin:miter;stroke-miterlimit:4;stroke-dasharray:none;stroke-opacity:1"
     d="m 329.09794,442.65816 c -35.09151,-13.61527 -101.00153,-41.35641 -114.76168,-48.3025 -11.89128,-6.00269 -13.97768,-9.88171 -4.48666,-8.34153 8.14485,1.32173 47.38264,16.88552 92.24541,36.58939 43.86113,19.26397 49.30167,21.16875 52.61323,18.42041 2.99568,-2.4862 6.45277,-12.06643 22.29618,-61.78704 6.89332,-21.6329 13.66013,-40.87122 15.03737,-42.75179 1.4654,-2.00095 3.65592,-2.9772 5.28101,-2.35361 3.66236,1.40539 2.70725,5.60437 -13.30969,58.51424 -14.81119,48.92674 -19.5371,60.80713 -24.16173,60.73958 -1.77491,-0.026 -15.61395,-4.85312 -30.75344,-10.72715 z"
     id="path4229" />
  <path
     style="fill:#eb7e21;fill-opacity:1;stroke:#eb7e21;stroke-width:8.65987206;stroke-linecap:butt;stroke-linejoin:miter;stroke-miterlimit:4;stroke-dasharray:none;stroke-opacity:0"
     d="m 49.070541,169.7525 c -2.858157,-13.34481 -2.995995,-23.06126 14.090582,-24.64346 65.750167,15.83857 122.661857,56.00908 185.944117,80.64706 31.01364,-65.66257 48.83108,-115.63402 72.16044,-164.934425 11.98174,-19.79238 33.27068,6.240939 28.30421,3.884775 -11.3201,47.81257 -55.13458,167.94992 -76.36031,215.50188 C 144.9695,224.66346 135.24661,218.67526 49.070541,169.7525 Z"
     id="path4233" />
  <path
     style="fill:#775683;fill-opacity:1;stroke:#775683;stroke-width:4.32993603;stroke-linecap:butt;stroke-linejoin:miter;stroke-miterlimit:4;stroke-dasharray:none;stroke-opacity:1"
     d="M 8.996924,627.21722 C 6.9386023,624.73708 6.1435828,540.17581 6.0934638,318.3925 6.0295972,35.799813 6.3419588,12.632252 10.274385,8.2869668 14.371024,3.7602352 25.581423,3.5908265 321.02274,3.5908265 c 265.51008,0 306.90779,0.4932446 309.55953,3.688391 2.35934,2.8428625 3.04921,73.9300845 3.00929,310.0987125 -0.0439,260.52786 -0.58665,306.94523 -3.62364,309.98222 -121.80166,-0.25223 -121.47143,-0.34194 -318.98856,1.39826 -198.58387,-1.04082 -198.66204,-1.79622 -301.982436,-1.54119 z m 355.627556,-6.69826 257.29121,-2.33573 1.16787,-141.68641 C 621.45329,326.47526 621.83547,160.9674 621.81935,33.541427 L 603.02052,16.315144 322.15641,16.254744 C 149.9314,16.217721 39.560232,17.121314 36.814403,18.590829 28.895089,24.886275 24.657418,32.068297 18.880566,40.404289 L 18.831206,320.5713 c 0.864127,123.25537 -5.354692,147.10304 5.227443,286.89684 8.950475,11.41454 14.207018,12.86572 46.949214,12.96119 974.298237,6.77684 -482.143763,0.0896 293.616617,0.0896 z"
     id="path4239" />
  <path
     style="fill:#000000;fill-opacity:1;stroke:#000000;stroke-width:19.56552505;stroke-linecap:butt;stroke-linejoin:miter;stroke-miterlimit:4;stroke-dasharray:none;stroke-opacity:1"
     d="m 439.25032,599.92052 c -69.52779,-11.45389 -200.1173,-34.79127 -227.38067,-40.63467 -23.56053,-5.04981 -27.69436,-8.31307 -8.88954,-7.0174 16.13763,1.11193 93.88064,14.20503 182.76851,30.78102 86.90335,16.20587 97.68286,17.80831 104.24414,15.49623 5.93541,-2.09151 12.78504,-10.15095 44.17604,-51.9786 13.65794,-18.19879 26.61828,-17.3986 29.34705,-18.98065 2.90344,-1.6833 -7.50614,2.85897 -4.28631,3.38357 7.25632,1.18231 20.56061,-17.63339 -11.17418,26.8773 -29.34584,41.15987 -38.70943,51.15429 -47.8724,51.09746 -3.51665,-0.0221 -30.93633,-4.08272 -60.93264,-9.02426 z"
     id="path4229-6" />
</svg>
